<?xml version="1.0" encoding="utf-8"?>
<!-- Generator: Adobe Illustrator 27.0.0, SVG Export Plug-In . SVG Version: 6.00 Build 0)  -->
<svg version="1.1" id="Layer_1" xmlns="http://www.w3.org/2000/svg" xmlns:xlink="http://www.w3.org/1999/xlink" x="0px" y="0px"
	 viewBox="0 0 93.56 86.06" style="enable-background:new 0 0 93.56 86.06;" xml:space="preserve">
<style type="text/css">
	.st0{fill-rule:evenodd;clip-rule:evenodd;fill:#2AB1E5;}
	.st1{fill-rule:evenodd;clip-rule:evenodd;fill:#CDCDCF;}
	.st2{fill-rule:evenodd;clip-rule:evenodd;fill:#3D4452;}
</style>
<g>
	<g>
		<path class="st0" d="M6.47,30.07V43.2h6.51V30.07c0-9.57,7.76-17.32,17.32-17.32h40.46c1.8,0,3.26-1.46,3.26-3.26
			c0-1.8-1.46-3.26-3.26-3.26H30.31C17.14,6.23,6.47,16.91,6.47,30.07L6.47,30.07z M6.47,30.07"/>
		<path class="st1" d="M9.73,36.32c3.8,0,6.88,3.08,6.88,6.87c0,3.8-3.08,6.88-6.88,6.88c-3.8,0-6.88-3.08-6.88-6.88
			C2.85,39.4,5.93,36.32,9.73,36.32L9.73,36.32z M9.73,36.32"/>
		<path class="st0" d="M30.31,73.36c-9.56,0-17.32-7.75-17.32-17.32c0-1.8-1.46-3.26-3.26-3.26c-1.8,0-3.25,1.46-3.25,3.26
			c0,13.17,10.67,23.84,23.83,23.84h53.52v-6.52H30.31z M30.31,73.36"/>
		<path class="st0" d="M30.53,21.82c-4.4,0-7.96,3.57-7.96,7.96v7.88c0,1.8,1.46,3.25,3.26,3.25h54.49v4.16H25.83
			c-1.8,0-3.26,1.46-3.26,3.25v7.89c0,4.4,3.57,7.96,7.96,7.96h53.04c1.8,0,3.26-1.46,3.26-3.26s-1.46-3.26-3.26-3.26H30.53
			c-0.8,0-1.45-0.65-1.45-1.45v-4.63h54.49c1.8,0,3.26-1.46,3.26-3.26V37.65c0-1.8-1.46-3.26-3.26-3.26H29.08v-4.62
			c0-0.8,0.65-1.45,1.45-1.45h53.04c1.8,0,3.26-1.46,3.26-3.25V9.45h-6.52v12.37H30.53z M30.53,21.82"/>
		<path class="st2" d="M9.73,39.94c1.8,0,3.26,1.46,3.26,3.26c0,1.8-1.46,3.26-3.26,3.26c-1.8,0-3.26-1.46-3.26-3.26
			C6.47,41.4,7.93,39.94,9.73,39.94L9.73,39.94z M9.73,39.94"/>
		<path class="st1" d="M83.83,69.74c3.8,0,6.88,3.08,6.88,6.88c0,3.8-3.08,6.88-6.88,6.88c-3.79,0-6.87-3.08-6.87-6.88
			C76.96,72.82,80.04,69.74,83.83,69.74L83.83,69.74z M83.83,69.74"/>
		<path class="st2" d="M83.83,73.36c1.8,0,3.26,1.46,3.26,3.26c0,1.8-1.46,3.26-3.26,3.26c-1.8,0-3.25-1.46-3.25-3.26
			C80.58,74.82,82.03,73.36,83.83,73.36L83.83,73.36z M83.83,73.36"/>
		<path class="st1" d="M83.57,2.57c3.8,0,6.88,3.08,6.88,6.88c0,3.79-3.08,6.87-6.88,6.87c-3.8,0-6.87-3.08-6.87-6.87
			C76.7,5.65,79.77,2.57,83.57,2.57L83.57,2.57z M83.57,2.57"/>
		<path class="st2" d="M83.57,6.19c1.8,0,3.26,1.46,3.26,3.26c0,1.8-1.46,3.26-3.26,3.26c-1.8,0-3.26-1.46-3.26-3.26
			C80.31,7.65,81.77,6.19,83.57,6.19L83.57,6.19z M83.57,6.19"/>
	</g>
</g>
</svg>
