<?xml version="1.0" encoding="utf-8"?>
<!-- Generator: Adobe Illustrator 27.0.0, SVG Export Plug-In . SVG Version: 6.00 Build 0)  -->
<svg version="1.1" id="Layer_1" xmlns="http://www.w3.org/2000/svg" xmlns:xlink="http://www.w3.org/1999/xlink" x="0px" y="0px"
	 viewBox="0 0 85.95 94.25" style="enable-background:new 0 0 85.95 94.25;" xml:space="preserve">
<style type="text/css">
	.st0{fill:#29B0E4;}
	.st1{fill-rule:evenodd;clip-rule:evenodd;fill:#29B0E4;}
	.st2{fill-rule:evenodd;clip-rule:evenodd;fill:#CDCDCF;}
	.st3{fill-rule:evenodd;clip-rule:evenodd;fill:#3D4452;}
</style>
<g>
	<g>
		<path class="st0" d="M53.83,76.59H27.49c-2.79,0-5.07-2.27-5.07-5.06V22.72c0-2.79,2.27-5.06,5.07-5.06h26.34
			c2.79,0,5.07,2.27,5.07,5.06v48.81C58.9,74.32,56.62,76.59,53.83,76.59z M27.49,19.68c-1.68,0-3.04,1.36-3.04,3.04v48.81
			c0,1.68,1.36,3.04,3.04,3.04h26.34c1.68,0,3.04-1.36,3.04-3.04V22.72c0-1.68-1.36-3.04-3.04-3.04H27.49z"/>
		<path class="st0" d="M48.16,25.15H33.17c-1.45,0-2.63-1.18-2.63-2.63v-3.85c0-0.56,0.45-1.01,1.01-1.01h18.23
			c0.56,0,1.01,0.45,1.01,1.01v3.85C50.79,23.97,49.61,25.15,48.16,25.15z M32.56,19.68v2.84c0,0.34,0.27,0.61,0.61,0.61h14.99
			c0.34,0,0.61-0.27,0.61-0.61v-2.84H32.56z"/>
		<path class="st1" d="M30.61,46.1v3.17c0,0,0.18,0.66,0.81,0.66c0.54,0,0.76-0.66,0.76-0.66V46.1c0-2.31,1.88-4.19,4.19-4.19h9.79
			c0.43,0,0.79-0.35,0.79-0.79c0-0.44-0.35-0.79-0.79-0.79h-9.79C33.19,40.33,30.61,42.91,30.61,46.1L30.61,46.1z M30.61,46.1"/>
		<path class="st1" d="M36.37,56.56c-2.31,0-4.19-1.88-4.19-4.19c0-0.43-0.35-0.79-0.79-0.79c-0.44,0-0.79,0.35-0.79,0.79
			c0,3.18,2.58,5.76,5.76,5.76h12.94c0,0,0.73,0,0.73-0.77c0-0.76-0.73-0.81-0.73-0.81H36.37z M36.37,56.56"/>
		<path class="st1" d="M36.42,44.1c-1.06,0-1.93,0.86-1.93,1.92v1.9c0,0.43,0.35,0.79,0.79,0.79h13.18v1.01H35.29
			c-0.43,0-0.79,0.35-0.79,0.79v1.91c0,1.06,0.86,1.93,1.93,1.93h12.83c0.44,0,0.79-0.35,0.79-0.79c0-0.43-0.35-0.79-0.79-0.79
			H36.42c-0.19,0-0.35-0.16-0.35-0.35V51.3h13.18c0.44,0,0.79-0.35,0.79-0.79v-2.58c0-0.43-0.35-0.79-0.79-0.79H36.07v-1.12
			c0-0.19,0.16-0.35,0.35-0.35h12.83c0.44,0,0.79-0.35,0.79-0.79v-3.78c0,0,0-0.97-0.8-0.97c-0.9,0-0.77,0.97-0.77,0.97v2.99H36.42z
			 M36.42,44.1"/>
	</g>
	<g>
		<path class="st2" d="M57.57,57.86c3.28,0,5.95,2.66,5.95,5.95c0,3.28-2.66,5.94-5.95,5.94c-3.28,0-5.94-2.66-5.94-5.94
			C51.63,60.53,54.29,57.86,57.57,57.86L57.57,57.86z M57.57,57.86"/>
		<path class="st3" d="M57.57,60.99c1.56,0,2.82,1.26,2.82,2.82c0,1.55-1.26,2.82-2.82,2.82c-1.55,0-2.82-1.26-2.82-2.82
			C54.76,62.26,56.02,60.99,57.57,60.99L57.57,60.99z M57.57,60.99"/>
	</g>
</g>
</svg>
