<?xml version="1.0" encoding="utf-8"?>
<!-- Generator: Adobe Illustrator 27.0.0, SVG Export Plug-In . SVG Version: 6.00 Build 0)  -->
<svg version="1.1" id="Layer_1" xmlns="http://www.w3.org/2000/svg" xmlns:xlink="http://www.w3.org/1999/xlink" x="0px" y="0px"
	 viewBox="0 0 85.95 94.25" style="enable-background:new 0 0 85.95 94.25;" xml:space="preserve">
<style type="text/css">
	.st0{fill:#FFFFFF;}
	.st1{fill-rule:evenodd;clip-rule:evenodd;fill:#FFFFFF;}
	.st2{fill-rule:evenodd;clip-rule:evenodd;fill:#CECED0;}
	.st3{fill-rule:evenodd;clip-rule:evenodd;fill:#3D4553;}
</style>
<g>
	<g>
		<g>
			<g>
				<path class="st0" d="M56.12,76.1H29.83c-2.79,0-5.05-2.27-5.05-5.05V20.3c0-2.79,2.27-5.05,5.05-5.05h26.28
					c2.79,0,5.05,2.27,5.05,5.05v50.75C61.17,73.83,58.9,76.1,56.12,76.1z M29.83,17.26c-1.67,0-3.03,1.36-3.03,3.03v50.75
					c0,1.67,1.36,3.03,3.03,3.03h26.28c1.67,0,3.03-1.36,3.03-3.03V20.3c0-1.67-1.36-3.03-3.03-3.03H29.83z"/>
				<path class="st0" d="M50.46,22.72H35.49c-1.45,0-2.63-1.18-2.63-2.63v-3.84c0-0.56,0.45-1.01,1.01-1.01h18.2
					c0.56,0,1.01,0.45,1.01,1.01v3.84C53.08,21.54,51.9,22.72,50.46,22.72z M34.89,17.26v2.83c0,0.33,0.27,0.61,0.61,0.61h14.96
					c0.33,0,0.61-0.27,0.61-0.61v-2.83H34.89z"/>
				<path class="st1" d="M32.94,43.63v3.17c0,0,0.18,0.66,0.81,0.66c0.54,0,0.76-0.66,0.76-0.66v-3.17c0-2.31,1.87-4.18,4.18-4.18
					h9.77c0.43,0,0.79-0.35,0.79-0.79c0-0.43-0.35-0.79-0.79-0.79h-9.77C35.51,37.88,32.94,40.45,32.94,43.63L32.94,43.63z
					 M32.94,43.63"/>
				<path class="st1" d="M38.69,54.08c-2.31,0-4.18-1.87-4.18-4.18c0-0.43-0.35-0.79-0.79-0.79c-0.43,0-0.79,0.35-0.79,0.79
					c0,3.18,2.57,5.75,5.75,5.75h12.92c0,0,0.72,0,0.72-0.77c0-0.76-0.72-0.81-0.72-0.81H38.69z M38.69,54.08"/>
				<path class="st1" d="M38.75,41.64c-1.06,0-1.92,0.86-1.92,1.92v1.9c0,0.43,0.35,0.79,0.79,0.79h13.15v1H37.61
					c-0.43,0-0.79,0.35-0.79,0.79v1.9c0,1.06,0.86,1.92,1.92,1.92h12.8c0.43,0,0.79-0.35,0.79-0.79c0-0.43-0.35-0.79-0.79-0.79
					h-12.8c-0.19,0-0.35-0.16-0.35-0.35v-1.12h13.15c0.43,0,0.79-0.35,0.79-0.79v-2.58c0-0.43-0.35-0.79-0.79-0.79H38.4v-1.11
					c0-0.19,0.16-0.35,0.35-0.35h12.8c0.43,0,0.79-0.35,0.79-0.79v-3.77c0,0,0-0.97-0.8-0.97c-0.9,0-0.77,0.97-0.77,0.97v2.99H38.75
					z M38.75,41.64"/>
			</g>
		</g>
	</g>
	<g>
		<path class="st2" d="M43.24,70.29c2.41,0,4.36,1.95,4.36,4.36c0,2.41-1.95,4.36-4.36,4.36c-2.41,0-4.36-1.95-4.36-4.36
			C38.88,72.24,40.83,70.29,43.24,70.29L43.24,70.29z M43.24,70.29"/>
		<path class="st3" d="M43.24,72.58c1.14,0,2.07,0.93,2.07,2.07c0,1.14-0.93,2.07-2.07,2.07c-1.14,0-2.07-0.93-2.07-2.07
			C41.17,73.51,42.1,72.58,43.24,72.58L43.24,72.58z M43.24,72.58"/>
	</g>
</g>
</svg>
