<?xml version="1.0" encoding="utf-8"?>
<!-- Generator: Adobe Illustrator 27.0.0, SVG Export Plug-In . SVG Version: 6.00 Build 0)  -->
<svg version="1.1" id="Layer_1" xmlns="http://www.w3.org/2000/svg" xmlns:xlink="http://www.w3.org/1999/xlink" x="0px" y="0px"
	 viewBox="0 0 85.95 94.25" style="enable-background:new 0 0 85.95 94.25;" xml:space="preserve">
<style type="text/css">
	.st0{fill:#FFFFFF;}
	.st1{fill-rule:evenodd;clip-rule:evenodd;fill:#CECED0;}
	.st2{fill-rule:evenodd;clip-rule:evenodd;fill:#3D4553;}
</style>
<g>
	<g>
		<path class="st0" d="M42.96,32.4c11.75-0.02,21.96,8.29,24.3,19.81c0.31,1.54,0.35,3.14,0.52,4.71c0.04,0.34-0.06,0.47-0.43,0.46
			c-0.74-0.03-1.48-0.02-2.22,0c-0.32,0.01-0.43-0.09-0.43-0.42c-0.03-3.66-0.89-7.12-2.71-10.3c-3.52-6.14-8.78-9.86-15.78-10.94
			c-5.76-0.9-11.09,0.37-15.84,3.75c-4.9,3.49-7.86,8.27-8.86,14.22c-0.18,1.09-0.22,2.2-0.29,3.31c-0.02,0.3-0.11,0.39-0.39,0.38
			c-0.74-0.01-1.48-0.02-2.22,0c-0.36,0.01-0.48-0.09-0.47-0.46c0.08-3.45,0.75-6.77,2.21-9.89c3.15-6.75,8.29-11.27,15.39-13.55
			C38.09,32.72,40.5,32.39,42.96,32.4z"/>
		<path class="st0" d="M38.56,57.47c0.02-2.93,2.93-4.88,5.65-3.77c0.22,0.09,0.33,0.05,0.49-0.1c2.67-2.68,5.34-5.35,8.02-8.03
			c0.09-0.09,0.19-0.19,0.29-0.28c0.56-0.53,1.35-0.54,1.87-0.02c0.51,0.52,0.5,1.31-0.04,1.86c-1.14,1.15-2.29,2.3-3.44,3.44
			c-1.59,1.59-3.17,3.19-4.78,4.76c-0.23,0.23-0.25,0.4-0.14,0.69c0.82,2.14-0.3,4.55-2.42,5.28c-2.23,0.77-4.59-0.38-5.29-2.59
			c-0.07-0.22-0.12-0.45-0.16-0.69C38.57,57.86,38.57,57.66,38.56,57.47z M42.65,58.98c0.82,0,1.5-0.67,1.5-1.49
			c0.01-0.83-0.68-1.52-1.51-1.51c-0.83,0.01-1.52,0.7-1.5,1.52C41.15,58.31,41.83,58.98,42.65,58.98z"/>
	</g>
	<g>
		<path class="st1" d="M42.54,53.13c2.41,0,4.36,1.95,4.36,4.36c0,2.41-1.95,4.36-4.36,4.36c-2.41,0-4.36-1.95-4.36-4.36
			C38.18,55.09,40.13,53.13,42.54,53.13L42.54,53.13z M42.54,53.13"/>
		<path class="st2" d="M42.54,55.43c1.14,0,2.07,0.93,2.07,2.07c0,1.14-0.93,2.07-2.07,2.07c-1.14,0-2.07-0.93-2.07-2.07
			C40.47,56.35,41.4,55.43,42.54,55.43L42.54,55.43z M42.54,55.43"/>
	</g>
</g>
</svg>
