<?xml version="1.0" encoding="utf-8"?>
<!-- Generator: Adobe Illustrator 27.0.0, SVG Export Plug-In . SVG Version: 6.00 Build 0)  -->
<svg version="1.1" id="Layer_1" xmlns="http://www.w3.org/2000/svg" xmlns:xlink="http://www.w3.org/1999/xlink" x="0px" y="0px"
	 viewBox="0 0 50.64 57.28" style="enable-background:new 0 0 50.64 57.28;" xml:space="preserve">
<style type="text/css">
	.st0{fill:#606060;}
	.st1{fill-rule:evenodd;clip-rule:evenodd;fill:#CDCDCF;}
	.st2{fill-rule:evenodd;clip-rule:evenodd;fill:#3D4452;}
</style>
<g>
	<g>
		<path class="st0" d="M38.77,37.48c-0.02-2.14-1.32-4.01-3.26-4.66l-7.9-2.76l-0.28-3.27c0.53-0.65,1.35-1.86,1.47-2.86l0.08-0.65
			c0.06-0.48,0.22-0.94,0.46-1.36c0.43-0.74,0.66-1.59,0.66-2.44v-3.11c0-3.56-2.9-6.46-6.46-6.46s-6.46,2.9-6.46,6.46v3.25
			c0,0.75,0.18,1.5,0.51,2.17l0.1,0.19c0.18,0.36,0.3,0.75,0.35,1.16l0.1,0.79c0.12,0.91,0.86,2.07,1.38,2.74
			c-0.01,0.03-0.01,0.06-0.02,0.08l-0.28,3.31l-7.9,2.76c-1.94,0.65-3.25,2.52-3.26,4.66l-1.12,9.18c-0.04,0.34,0.2,0.65,0.54,0.69
			c0.03,0,0.05,0,0.08,0c0.31,0,0.58-0.23,0.62-0.55L9.3,37.6c0-0.02,0-0.05,0-0.08c0-1.62,0.97-3.04,2.42-3.53l3.59-1.25
			l-1.17,2.05c-0.09,0.15-0.11,0.34-0.05,0.5c0.06,0.17,0.18,0.3,0.34,0.37l2.31,1.02l-1.01,1.33c-0.18,0.23-0.17,0.56,0.03,0.78
			l7.31,8.35c0,0,0.01,0.01,0.01,0.01c0.02,0.02,0.05,0.05,0.07,0.07c0.01,0.01,0.01,0.01,0.02,0.02c0.03,0.02,0.06,0.04,0.1,0.06
			c0.01,0,0.02,0.01,0.03,0.01c0.03,0.01,0.06,0.02,0.09,0.03c0.01,0,0.02,0.01,0.03,0.01c0.04,0.01,0.08,0.01,0.12,0.01
			c0,0,0,0,0,0c0,0,0,0,0,0c0,0,0,0,0,0c0,0,0.01,0,0.01,0c0.03,0,0.06,0,0.09-0.01c0,0,0.01,0,0.01,0c0.02,0,0.04-0.01,0.06-0.02
			c0.01,0,0.02-0.01,0.02-0.01c0.01,0,0.01,0,0.02-0.01c0.1-0.03,0.18-0.09,0.26-0.17l7.31-8.35c0.19-0.22,0.21-0.55,0.03-0.78
			l-1.01-1.33l2.31-1.02c0.16-0.07,0.29-0.21,0.34-0.38c0.05-0.17,0.03-0.35-0.06-0.51l-1.14-1.94l3.3,1.15
			c1.45,0.49,2.42,1.9,2.42,3.52c0,0.03,0,0.05,0,0.08l1.12,9.22c0.04,0.31,0.31,0.55,0.62,0.55c0.03,0,0.05,0,0.08,0
			c0.34-0.04,0.58-0.35,0.54-0.69L38.77,37.48z M19.79,31.18l2.67,1.14l-2.69,2.71l-1.28-3.39L19.79,31.18z M23.51,39.58l0.64,3.67
			l-0.62,1.7l-0.65-1.71L23.51,39.58z M23.53,34.91l-0.81-1.1l0.83-0.84l0.87,0.84L23.53,34.91z M20.25,36.3l1.59-1.59l1.02,1.38
			l-0.84,4.88L20.25,36.3C20.25,36.3,20.25,36.3,20.25,36.3z M25,40.9l-0.83-4.8l1.16-1.42l1.43,1.37L25,40.9z M27.22,34.78
			l-2.59-2.49l2.42-1.11l1.31,0.46L27.22,34.78z M19.28,22.99c-0.07-0.54-0.23-1.07-0.47-1.55l-0.1-0.19
			c-0.25-0.5-0.38-1.06-0.38-1.61v-3.25c0-2.14,1.29-3.97,3.13-4.78v1.53c-0.35,0.21-0.59,0.6-0.59,1.04c0,0.67,0.54,1.21,1.21,1.21
			c0.67,0,1.21-0.54,1.21-1.21c0-0.44-0.24-0.83-0.59-1.04v-1.89c0.27-0.04,0.55-0.07,0.84-0.07c0.16,0,0.32,0.01,0.48,0.02v3.91
			c-0.35,0.21-0.59,0.6-0.59,1.04c0,0.67,0.54,1.21,1.21,1.21c0.67,0,1.21-0.54,1.21-1.21c0-0.44-0.24-0.83-0.59-1.04v-3.64
			c2.03,0.71,3.49,2.65,3.49,4.92v3.11c0,0.64-0.17,1.27-0.49,1.82c-0.33,0.57-0.54,1.18-0.62,1.83l-0.08,0.65
			c-0.08,0.6-0.7,1.63-1.26,2.3l-1.86,0.95c-0.31,0.16-0.43,0.53-0.27,0.84c0.11,0.21,0.33,0.34,0.55,0.34
			c0.1,0,0.19-0.02,0.28-0.07l1.12-0.58l0.22,2.58l-2.83,1.29l-3.07-1.31l0.22-2.6l0.96,0.59c0.29,0.18,0.68,0.09,0.85-0.21
			c0.18-0.29,0.09-0.68-0.21-0.85L20.58,26c-0.54-0.68-1.13-1.67-1.2-2.22L19.28,22.99z M18.33,36.28
			c-0.05-0.18-0.18-0.34-0.35-0.41l-2.4-1.06l1.54-2.69l0.19-0.07l4.44,11.69l-4.71-5.38l1.18-1.56
			C18.33,36.66,18.37,36.46,18.33,36.28z M31.52,34.81l-2.39,1.05c-0.17,0.08-0.3,0.23-0.35,0.41c-0.05,0.18-0.01,0.38,0.11,0.53
			l1.18,1.56l-4.81,5.5l4.28-11.81L30,32.22L31.52,34.81z"/>
		<path class="st0" d="M38.66,17.53h-3.28c-2.52,0-4.56,2.04-4.56,4.55v1.08c0,0.68,0.15,1.35,0.43,1.96l-1.26,2.74
			c-0.11,0.24-0.06,0.52,0.13,0.7c0.12,0.12,0.28,0.18,0.44,0.18c0.09,0,0.18-0.02,0.26-0.06l2.78-1.31
			c0.56,0.23,1.15,0.35,1.77,0.35h3.28c2.53,0,4.58-2.05,4.58-4.56v-1.08C43.24,19.57,41.19,17.53,38.66,17.53z M42,23.15
			c0,1.83-1.5,3.32-3.34,3.32h-3.28c-0.53,0-1.04-0.12-1.5-0.35c-0.17-0.09-0.37-0.09-0.54-0.01l-1.51,0.71l0.68-1.47
			c0.08-0.18,0.07-0.39-0.02-0.56c-0.28-0.49-0.42-1.06-0.42-1.64v-1.08c0-1.82,1.49-3.31,3.32-3.31h3.28
			c1.84,0,3.34,1.48,3.34,3.31V23.15z"/>
	</g>
	<g>
		<path class="st1" d="M40.75,16.1c1.62,0,2.94,1.32,2.94,2.94c0,1.62-1.32,2.94-2.94,2.94c-1.62,0-2.94-1.32-2.94-2.94
			C37.82,17.42,39.13,16.1,40.75,16.1L40.75,16.1z M40.75,16.1"/>
		<path class="st2" d="M40.75,17.65c0.77,0,1.39,0.62,1.39,1.39c0,0.77-0.62,1.39-1.39,1.39c-0.77,0-1.39-0.62-1.39-1.39
			C39.36,18.27,39.99,17.65,40.75,17.65L40.75,17.65z M40.75,17.65"/>
	</g>
</g>
</svg>
