<?xml version="1.0" encoding="utf-8"?>
<!-- Generator: Adobe Illustrator 27.0.0, SVG Export Plug-In . SVG Version: 6.00 Build 0)  -->
<svg version="1.1" id="Layer_1" xmlns="http://www.w3.org/2000/svg" xmlns:xlink="http://www.w3.org/1999/xlink" x="0px" y="0px"
	 viewBox="0 0 85.95 94.25" style="enable-background:new 0 0 85.95 94.25;" xml:space="preserve">
<style type="text/css">
	.st0{fill:#CDCDCF;}
	.st1{fill:#3D4452;}
	.st2{fill:#29B0E4;}
</style>
<g>
	<g>
		<path class="st0" d="M42.97,57.13c-3.28,0-5.94,2.66-5.94,5.95c0,3.28,2.66,5.94,5.94,5.94c3.28,0,5.95-2.66,5.95-5.94
			C48.92,59.79,46.26,57.13,42.97,57.13z M42.97,65.89c-1.55,0-2.82-1.26-2.82-2.82c0-1.56,1.26-2.82,2.82-2.82
			c1.56,0,2.82,1.26,2.82,2.82C45.79,64.63,44.53,65.89,42.97,65.89z"/>
		<path class="st1" d="M42.97,60.26c-1.55,0-2.82,1.26-2.82,2.82c0,1.55,1.26,2.82,2.82,2.82c1.56,0,2.82-1.26,2.82-2.82
			C45.79,61.52,44.53,60.26,42.97,60.26z"/>
	</g>
	<path class="st2" d="M42.97,75.96c-15.9,0-28.84-12.94-28.84-28.84c0-15.9,12.94-28.84,28.84-28.84c15.9,0,28.84,12.94,28.84,28.84
		C71.81,63.03,58.87,75.96,42.97,75.96z M42.97,20.39c-14.74,0-26.74,11.99-26.74,26.74s11.99,26.74,26.74,26.74
		s26.74-11.99,26.74-26.74S57.72,20.39,42.97,20.39z"/>
	<path class="st2" d="M44.92,41.5c-5.08,0.01-8.51,0.73-11.84,2.5c-1.95,1.03-3.65,2.33-5.05,3.85c-0.25,0.27-0.45,0.63-0.51,0.93
		c-0.12,0.56,0.22,1.16,0.83,1.47c0.21,0.11,0.42,0.16,0.63,0.16c0.35,0,0.68-0.15,0.99-0.45c0.14-0.13,0.27-0.27,0.41-0.41
		c0.27-0.27,0.55-0.56,0.85-0.82c2.85-2.49,6.26-3.91,10.12-4.24c0.59-0.05,1.18-0.07,1.75-0.07c3.9,0,7.45,1.16,10.56,3.44
		c0.64,0.47,1.21,1.02,1.77,1.55c0.21,0.2,0.42,0.4,0.63,0.6c0.28,0.26,0.64,0.4,1,0.4c0.29,0,0.57-0.09,0.81-0.26
		c0.58-0.4,0.74-1.02,0.44-1.64c-0.19-0.4-0.46-0.79-0.78-1.15c-0.98-1.08-2.17-1.85-3.63-2.74c-3.5-2.14-7.01-3.1-8.93-3.1v-0.5
		c0,0,0,0,0,0L44.92,41.5z"/>
	<path class="st2" d="M42.71,49.96c-0.15,0.02-0.32,0.03-0.5,0.05c-0.48,0.05-1.09,0.1-1.67,0.21c-2.77,0.52-5.07,1.83-6.83,3.88
		c-0.54,0.63-0.49,1.42,0.11,1.98c0.3,0.28,0.64,0.42,0.99,0.42c0.36,0,0.72-0.16,1.02-0.47c0.07-0.07,0.14-0.15,0.21-0.22
		c0.09-0.1,0.18-0.2,0.27-0.29c1.73-1.73,4.09-2.68,6.63-2.68c2.74,0,5.33,1.13,7.12,3.1c0.32,0.35,0.75,0.56,1.17,0.56
		c0.33,0,0.63-0.12,0.88-0.34c0.53-0.49,0.72-1.44,0.1-2.13C49.81,51.37,46.79,50.07,42.71,49.96z"/>
	<path class="st2" d="M63.9,43.89c0.27-0.27,0.43-0.62,0.43-1c0-0.39-0.16-0.77-0.45-1.06c-5.82-5.82-12.71-8.68-21.06-8.74
		l-0.47,0.02c-0.45,0.02-1.01,0.04-1.56,0.08c-4.19,0.31-8.17,1.46-11.84,3.42c-2.56,1.37-4.86,3.12-6.85,5.2
		c-0.38,0.4-0.53,0.78-0.45,1.2c0.12,0.64,0.47,1.04,1.09,1.23c0.13,0.04,0.26,0.06,0.39,0.06c0.34,0,0.69-0.16,1.07-0.52
		c0.25-0.23,0.5-0.46,0.75-0.69c0.84-0.78,1.7-1.59,2.65-2.26c4.54-3.22,9.64-4.86,15.17-4.86c1.24,0,2.51,0.08,3.79,0.24
		c6.03,0.76,11.17,3.32,15.28,7.61c0.29,0.3,0.67,0.47,1.06,0.47C63.27,44.3,63.62,44.16,63.9,43.89z"/>
</g>
</svg>
