<?xml version="1.0" encoding="utf-8"?>
<!-- Generator: Adobe Illustrator 27.0.0, SVG Export Plug-In . SVG Version: 6.00 Build 0)  -->
<svg version="1.1" id="Layer_1" xmlns="http://www.w3.org/2000/svg" xmlns:xlink="http://www.w3.org/1999/xlink" x="0px" y="0px"
	 viewBox="0 0 104.45 114.28" style="enable-background:new 0 0 104.45 114.28;" xml:space="preserve">
<style type="text/css">
	.st0{fill:#16AFE6;}
	.st1{fill-rule:evenodd;clip-rule:evenodd;fill:#CCCCCE;}
	.st2{fill-rule:evenodd;clip-rule:evenodd;fill:#3D4453;}
</style>
<g>
	<path class="st0" d="M34.81,98.74c-6.23,0-12.21-2.16-17.05-6.21c-5.46-4.57-8.81-10.99-9.44-18.08c-0.63-7.09,1.54-14,6.11-19.46
		s10.99-8.81,18.08-9.44c0.57-0.04,1.04,0.36,1.08,0.91c0.05,0.55-0.36,1.04-0.91,1.08c-6.56,0.58-12.5,3.69-16.72,8.73
		c-4.22,5.05-6.23,11.44-5.65,18c0.58,6.56,3.68,12.5,8.73,16.72c5.05,4.22,11.45,6.23,18,5.65c13.54-1.2,23.57-13.2,22.37-26.74
		c-0.44-4.92-2.31-9.54-5.41-13.35c-0.35-0.43-0.28-1.06,0.14-1.41c0.43-0.35,1.06-0.28,1.41,0.15c3.36,4.13,5.38,9.12,5.85,14.44
		c1.3,14.64-9.55,27.6-24.18,28.9C36.41,98.7,35.61,98.74,34.81,98.74z"/>
	<path class="st0" d="M34.86,87.52c-6.8,0-12.73-4.36-14.75-10.85c-0.16-0.53,0.13-1.09,0.66-1.25c0.53-0.17,1.09,0.13,1.25,0.66
		c1.76,5.65,6.91,9.44,12.83,9.44c5.92,0,11.08-3.79,12.83-9.44c0.16-0.53,0.72-0.82,1.25-0.66c0.53,0.16,0.82,0.72,0.66,1.25
		C47.58,83.16,41.66,87.52,34.86,87.52z"/>
	<path class="st0" d="M27.93,69.63c-1.49,0-2.88-0.8-3.62-2.09c-0.28-0.48-0.11-1.09,0.36-1.37c0.48-0.28,1.09-0.11,1.37,0.37
		c0.39,0.67,1.11,1.09,1.89,1.09c0.73,0,1.4-0.36,1.81-0.96c0.31-0.46,0.93-0.58,1.39-0.27c0.46,0.31,0.58,0.93,0.27,1.39
		C30.61,68.94,29.32,69.63,27.93,69.63z"/>
	<path class="st0" d="M41.67,69.63c-1.39,0-2.69-0.69-3.47-1.84c-0.31-0.46-0.19-1.08,0.27-1.39c0.46-0.31,1.08-0.19,1.39,0.27
		c0.41,0.6,1.08,0.96,1.81,0.96c0.78,0,1.5-0.42,1.89-1.09c0.28-0.48,0.89-0.64,1.37-0.36c0.48,0.28,0.64,0.89,0.36,1.37
		C44.54,68.83,43.15,69.63,41.67,69.63z"/>
	<g>
		<g>
			<path class="st0" d="M37.77,30.58l5.21-4.41h4.49v14.92h-3.83v-11.1l-3.57,3.12L37.77,30.58z"/>
			<path class="st0" d="M49.63,32.08c0-2.27,0.4-3.85,1.19-4.75s2.18-1.34,4.15-1.34h1.82c1.97,0,3.35,0.45,4.14,1.35
				c0.79,0.9,1.19,2.48,1.19,4.74v3.1c0,2.26-0.4,3.85-1.19,4.74c-0.79,0.9-2.17,1.35-4.14,1.35h-1.82c-1.97,0-3.36-0.45-4.15-1.34
				s-1.19-2.48-1.19-4.75V32.08z M53.54,32.2v2.85c0,1.26,0.13,2.06,0.4,2.39s0.8,0.5,1.61,0.5h0.65c0.8,0,1.33-0.16,1.59-0.48
				c0.26-0.32,0.39-1.12,0.39-2.42V32.2c0-1.3-0.13-2.1-0.39-2.42c-0.26-0.32-0.79-0.48-1.59-0.48h-0.65c-0.81,0-1.35,0.17-1.61,0.5
				S53.54,30.94,53.54,32.2z"/>
			<path class="st0" d="M62.16,32.08c0-2.27,0.4-3.85,1.19-4.75c0.79-0.9,2.18-1.34,4.15-1.34h1.82c1.97,0,3.35,0.45,4.14,1.35
				c0.79,0.9,1.19,2.48,1.19,4.74v3.1c0,2.26-0.4,3.85-1.19,4.74c-0.79,0.9-2.17,1.35-4.14,1.35H67.5c-1.97,0-3.36-0.45-4.15-1.34
				c-0.79-0.89-1.19-2.48-1.19-4.75V32.08z M66.07,32.2v2.85c0,1.26,0.13,2.06,0.4,2.39s0.8,0.5,1.61,0.5h0.65
				c0.8,0,1.33-0.16,1.59-0.48c0.26-0.32,0.39-1.12,0.39-2.42V32.2c0-1.3-0.13-2.1-0.39-2.42c-0.26-0.32-0.79-0.48-1.59-0.48h-0.65
				c-0.81,0-1.35,0.17-1.61,0.5S66.07,30.94,66.07,32.2z"/>
		</g>
	</g>
	<g>
		<path class="st0" d="M78.66,32.48c-0.82,0-1.39-0.16-1.71-0.48c-0.32-0.32-0.48-0.89-0.48-1.71v-2.14c0-0.81,0.16-1.38,0.49-1.7
			c0.32-0.32,0.89-0.48,1.7-0.48h0.62c0.82,0,1.39,0.16,1.71,0.47c0.33,0.32,0.49,0.88,0.49,1.7v2.14c0,0.83-0.16,1.4-0.48,1.71
			s-0.9,0.48-1.72,0.48H78.66z M78.88,31.01h0.21c0.24,0,0.4-0.06,0.48-0.19c0.08-0.12,0.12-0.45,0.12-0.97v-1.29
			c0-0.5-0.04-0.81-0.12-0.94s-0.24-0.19-0.48-0.19h-0.21c-0.24,0-0.4,0.06-0.48,0.19c-0.08,0.13-0.12,0.44-0.12,0.94v1.29
			c0,0.51,0.04,0.84,0.12,0.97C78.47,30.95,78.63,31.01,78.88,31.01z M79.87,35.79l5.64-9.82h1.09l-5.62,9.82H79.87z M87.18,35.79
			c-0.81,0-1.38-0.16-1.7-0.47C85.16,35,85,34.44,85,33.63v-2.15c0-0.82,0.16-1.39,0.48-1.71c0.32-0.32,0.89-0.48,1.7-0.48h0.63
			c0.82,0,1.39,0.16,1.71,0.48c0.32,0.32,0.48,0.89,0.48,1.72v2.15c0,0.81-0.16,1.38-0.48,1.69c-0.32,0.31-0.89,0.47-1.72,0.47
			H87.18z M87.4,34.33h0.22c0.24,0,0.4-0.06,0.48-0.18s0.12-0.44,0.12-0.94V31.9c0-0.51-0.04-0.82-0.12-0.96
			c-0.08-0.13-0.24-0.2-0.48-0.2H87.4c-0.24,0-0.4,0.07-0.48,0.2c-0.08,0.13-0.12,0.45-0.12,0.96v1.31c0,0.5,0.04,0.81,0.12,0.94
			S87.15,34.33,87.4,34.33z"/>
	</g>
	<path class="st0" d="M46.99,62.43c-0.31,0-0.63-0.06-0.96-0.18c-1.21-0.43-1.87-1.38-1.88-2.69c-0.01-1.78-0.01-3.56-0.01-5.34
		l0-1.84h-2.82c0,0,0,0,0,0c-5.06,0-8.61-3.35-8.62-8.15c-0.02-6.92-0.01-13.85,0-20.77c0.01-4.51,3.69-7.91,8.57-7.92l0.97,0
		c11.53,0,32.42-0.01,43.4,0.01h0.25c1.36,0,2.76,0,4.13,0.3c3.7,0.82,6.19,3.9,6.21,7.68c0.02,6.54,0.01,13.08,0,19.61v0.25
		c0,0.89,0,1.81-0.2,2.74c-0.79,3.65-4.11,6.21-8.08,6.23c-6.35,0.02-23.34,0.02-30.06-0.01c-0.28-0.02-0.38,0.05-0.55,0.23
		c-2.18,2.35-4.38,4.68-6.58,7.01l-1.69,1.79C48.43,62.09,47.74,62.43,46.99,62.43z M41.33,50.32h3.85c0.57,0,1.03,0.46,1.03,1.03
		l0,2.87c0,1.78,0,3.56,0.01,5.34c0,0.48,0.18,0.64,0.5,0.75c0.25,0.09,0.42,0.15,0.87-0.32l1.69-1.79c2.2-2.33,4.39-4.66,6.57-7
		c0.57-0.61,1.21-0.89,2.05-0.89c0,0,0.01,0,0.01,0c6.72,0.02,23.7,0.03,30.04,0.01c2.99-0.01,5.49-1.9,6.07-4.6
		c0.15-0.71,0.15-1.49,0.15-2.31v-0.26c0.01-6.53,0.02-13.07,0-19.6c-0.01-2.83-1.81-5.06-4.59-5.67c-1.15-0.25-2.44-0.26-3.69-0.26
		l-0.26,0c-10.98-0.02-31.86-0.01-43.4-0.01h-0.97c-3.76,0-6.5,2.47-6.51,5.86c-0.01,6.92-0.02,13.84,0,20.76
		C34.77,47.88,37.41,50.32,41.33,50.32C41.33,50.32,41.33,50.32,41.33,50.32z"/>
	<path class="st1" d="M28.33,61.3c3.17,0,5.75,2.57,5.75,5.75c0,3.17-2.57,5.74-5.75,5.74c-3.17,0-5.74-2.57-5.74-5.74
		C22.59,63.87,25.16,61.3,28.33,61.3L28.33,61.3z M28.33,61.3"/>
	<path class="st2" d="M28.33,64.32c1.5,0,2.72,1.22,2.72,2.72c0,1.5-1.22,2.72-2.72,2.72c-1.5,0-2.72-1.22-2.72-2.72
		C25.61,65.54,26.83,64.32,28.33,64.32L28.33,64.32z M28.33,64.32"/>
</g>
</svg>
