<?xml version="1.0" encoding="utf-8"?>
<!-- Generator: Adobe Illustrator 27.0.0, SVG Export Plug-In . SVG Version: 6.00 Build 0)  -->
<svg version="1.1" id="Layer_1" xmlns="http://www.w3.org/2000/svg" xmlns:xlink="http://www.w3.org/1999/xlink" x="0px" y="0px"
	 viewBox="0 0 85.95 94.25" style="enable-background:new 0 0 85.95 94.25;" xml:space="preserve">
<style type="text/css">
	.st0{fill:#29B0E4;}
	.st1{fill-rule:evenodd;clip-rule:evenodd;fill:#CDCDCF;}
	.st2{fill-rule:evenodd;clip-rule:evenodd;fill:#3D4452;}
</style>
<g>
	<g>
		<path class="st0" d="M67.44,34.16c1.07-0.32,2.09-0.65,3.12-0.93c0.93-0.25,1.29,0.1,1,1.03c-0.73,2.33-1.51,4.64-2.27,6.96
			c-0.21,0.63-0.62,0.88-1.18,0.47c-2.02-1.49-4.03-3-6-4.55c-0.19-0.15-0.14-0.62-0.2-0.95c0.36,0,0.82-0.14,1.06,0.03
			c1.48,1.04,2.9,2.16,4.35,3.25c0.26,0.19,0.53,0.37,0.93,0.66c0.53-1.8,1.02-3.47,1.56-5.29c-0.75,0.22-1.46,0.38-2.13,0.64
			c-0.78,0.3-1.2,0.08-1.55-0.68c-2.18-4.63-5.46-8.32-9.79-11.05c-10.61-6.67-25-4.29-33.01,5.45c-0.09,0.11-0.16,0.29-0.27,0.34
			c-0.38,0.16-0.79,0.27-1.19,0.41c0.06-0.42-0.03-0.96,0.2-1.24c6.08-7.32,13.92-10.78,23.38-9.89
			c9.75,0.91,16.87,6.01,21.47,14.63c0.09,0.16,0.17,0.33,0.27,0.48C67.25,33.99,67.31,34.03,67.44,34.16z"/>
		<path class="st0" d="M68.62,42.34c-0.21,0-0.48-0.07-0.77-0.29c-2.19-1.61-4.15-3.1-6.01-4.55c-0.29-0.23-0.32-0.61-0.34-0.94
			c-0.01-0.1-0.01-0.2-0.03-0.28c-0.02-0.13,0.01-0.27,0.1-0.37s0.2-0.18,0.35-0.16c0.08-0.02,0.2-0.01,0.31-0.02
			c0.33-0.04,0.71-0.08,1.01,0.14c1.07,0.76,2.13,1.56,3.15,2.34l1.21,0.92c0.13,0.09,0.25,0.18,0.4,0.29l1.15-3.9
			c-0.46,0.12-0.89,0.25-1.3,0.4c-0.98,0.37-1.66,0.08-2.13-0.92c-2.13-4.53-5.37-8.18-9.62-10.86
			c-10.35-6.51-24.59-4.16-32.41,5.36c-0.12,0.2-0.24,0.38-0.45,0.47c-0.29,0.12-0.59,0.22-0.89,0.31l-0.32,0.1
			c-0.15,0.05-0.31,0.02-0.44-0.08c-0.12-0.1-0.18-0.26-0.16-0.42c0.02-0.12,0.02-0.24,0.02-0.37c0.01-0.37,0.02-0.78,0.28-1.09
			c6.29-7.56,14.28-10.94,23.78-10.05c9.7,0.91,17.05,5.91,21.83,14.87c0.07,0.14,0.15,0.27,0.23,0.41l0.71-0.22
			c0.73-0.22,1.44-0.44,2.16-0.64c0.64-0.17,1.11-0.11,1.41,0.2c0.29,0.3,0.34,0.78,0.15,1.41c-0.51,1.64-1.05,3.27-1.59,4.91
			l-0.68,2.06c-0.2,0.63-0.55,0.86-0.81,0.94C68.84,42.32,68.74,42.34,68.62,42.34z M62.42,36.61c0.01,0.09,0.02,0.19,0.03,0.23
			c1.8,1.39,3.76,2.88,5.94,4.48c0.12,0.09,0.22,0.12,0.25,0.11c0.04-0.01,0.14-0.1,0.22-0.35l0.68-2.06
			c0.54-1.63,1.07-3.26,1.59-4.9c0.12-0.37,0.07-0.5,0.06-0.51c0,0-0.03-0.01-0.11-0.01c-0.08,0-0.21,0.01-0.4,0.06
			c-0.71,0.19-1.41,0.41-2.13,0.63l-0.98,0.3c-0.16,0.05-0.33,0.01-0.45-0.11l-0.1-0.09c-0.07-0.06-0.14-0.12-0.2-0.22
			c-0.1-0.17-0.19-0.34-0.29-0.51c-4.63-8.67-11.74-13.52-21.11-14.39c-9.18-0.86-16.91,2.41-22.99,9.73
			c-0.04,0.04-0.05,0.17-0.06,0.31c0.17-0.06,0.35-0.12,0.52-0.19c0.01-0.09,0.05-0.15,0.1-0.21c8.11-9.86,22.87-12.3,33.6-5.55
			c4.4,2.77,7.76,6.55,9.96,11.24c0.29,0.61,0.48,0.64,0.98,0.45c0.49-0.18,0.97-0.32,1.49-0.46c0.22-0.06,0.45-0.12,0.67-0.19
			c0.16-0.05,0.33,0,0.45,0.12c0.12,0.12,0.16,0.29,0.11,0.45l-1.56,5.29c-0.04,0.14-0.15,0.25-0.29,0.3S68.13,40.59,68,40.5
			l-0.37-0.26c-0.22-0.15-0.4-0.28-0.58-0.41l-1.21-0.92c-1.02-0.77-2.07-1.57-3.13-2.32C62.68,36.59,62.54,36.6,62.42,36.61z"/>
	</g>
	<g>
		<path class="st0" d="M17.68,50.82c-0.55,1.85-1.03,3.51-1.57,5.31c0.73-0.2,1.46-0.36,2.15-0.62c0.72-0.27,1.12-0.13,1.47,0.61
			c2.42,5.09,6.07,9.06,11.02,11.8c10.5,5.81,24,3.27,31.7-5.99c0.17-0.2,0.28-0.5,0.49-0.59c0.35-0.15,0.76-0.17,1.14-0.25
			c-0.03,0.36,0.06,0.82-0.12,1.05c-2.31,2.95-5.11,5.34-8.44,7.07C42.01,76.23,26.1,71.16,19.02,57.6
			c-0.32-0.6-0.61-0.82-1.28-0.55c-0.79,0.31-1.61,0.54-2.43,0.77c-0.81,0.22-1.18-0.13-0.94-0.92c0.73-2.37,1.51-4.72,2.27-7.08
			c0.25-0.78,0.74-0.86,1.35-0.4c1.89,1.42,3.78,2.84,5.63,4.31c0.25,0.2,0.26,0.72,0.38,1.09c-0.39-0.03-0.89,0.09-1.16-0.1
			C21.16,53.5,19.53,52.23,17.68,50.82z"/>
		<path class="st0" d="M42.94,72.79c-9.89,0-19.34-5.42-24.32-14.98c-0.25-0.48-0.33-0.49-0.71-0.34c-0.79,0.31-1.62,0.54-2.42,0.76
			c-0.79,0.22-1.19,0.02-1.39-0.19c-0.2-0.2-0.39-0.59-0.17-1.29c0.59-1.9,1.2-3.8,1.82-5.69l0.45-1.4
			c0.17-0.51,0.44-0.83,0.81-0.95c0.38-0.12,0.8-0.01,1.25,0.33l0.79,0.59c1.6,1.21,3.26,2.45,4.86,3.73
			c0.3,0.24,0.38,0.63,0.45,0.98c0.02,0.11,0.04,0.23,0.08,0.33c0.05,0.14,0.02,0.3-0.07,0.42c-0.09,0.12-0.23,0.18-0.39,0.17
			c-0.11-0.01-0.22,0-0.34,0c-0.35,0.02-0.74,0.03-1.05-0.19c-1.26-0.9-2.49-1.84-3.79-2.83l-0.86-0.65l-1.15,3.9
			c0.46-0.12,0.9-0.24,1.33-0.4c0.96-0.35,1.6-0.09,2.04,0.85c2.4,5.04,6.04,8.94,10.83,11.6c10.24,5.67,23.63,3.14,31.13-5.88
			c0.04-0.05,0.08-0.12,0.12-0.18c0.12-0.19,0.27-0.42,0.54-0.54c0.3-0.13,0.61-0.18,0.91-0.22c0.11-0.02,0.22-0.03,0.33-0.06
			c0.14-0.03,0.29,0.01,0.4,0.11c0.11,0.1,0.16,0.24,0.15,0.38c-0.01,0.1-0.01,0.2,0,0.31c0.01,0.33,0.01,0.69-0.21,0.98
			c-2.39,3.05-5.28,5.47-8.59,7.19C51.61,71.77,47.23,72.79,42.94,72.79z M18.24,56.48c0.61,0,0.94,0.44,1.19,0.91
			c6.92,13.26,22.68,18.28,35.9,11.43c3.2-1.66,5.99-3.99,8.29-6.94c0.02-0.03,0.02-0.13,0.02-0.23c-0.18,0.03-0.36,0.07-0.5,0.13
			c-0.02,0.02-0.08,0.12-0.13,0.19c-0.06,0.09-0.12,0.19-0.19,0.27c-7.78,9.35-21.65,11.97-32.27,6.09
			c-4.96-2.75-8.73-6.78-11.21-12c-0.25-0.54-0.41-0.56-0.91-0.38c-0.5,0.18-1.02,0.32-1.52,0.45c-0.22,0.06-0.44,0.12-0.66,0.18
			c-0.16,0.04-0.33,0-0.45-0.12c-0.12-0.12-0.16-0.29-0.11-0.45l1.57-5.31c0.04-0.14,0.15-0.26,0.29-0.3
			c0.14-0.05,0.3-0.02,0.42,0.07l1.38,1.06c1.3,0.99,2.52,1.93,3.77,2.82c0.05,0.03,0.19,0.03,0.32,0.03
			c-0.03-0.12-0.06-0.25-0.1-0.29c-1.58-1.26-3.24-2.5-4.83-3.71l-0.79-0.59c-0.24-0.18-0.38-0.2-0.43-0.19
			c-0.04,0.01-0.14,0.1-0.22,0.36l-0.45,1.4c-0.61,1.89-1.23,3.78-1.81,5.68c-0.08,0.24-0.05,0.36-0.04,0.39
			c0.02,0.01,0.15,0.04,0.42-0.04c0.84-0.23,1.64-0.45,2.39-0.75C17.83,56.52,18.05,56.48,18.24,56.48z"/>
	</g>
	<g>
		<path class="st0" d="M47.55,63.42c-0.25,0-0.5-0.01-0.76-0.02c-2.05-0.08-3.85-0.52-5.52-1.35c-1.76-0.87-3.34-2.13-4.81-3.85
			c-1.61-1.88-2.64-3.95-3.06-6.15c-0.9-4.74,0.11-8.92,2.99-12.42c1.63-1.98,3.36-3.93,5.03-5.82l0.44-0.5
			c1-1.14,2.03-2.26,3.05-3.38l1.52-1.66c0.02-0.03,0.05-0.06,0.07-0.09l0.09-0.13c0.21-0.29,0.56-0.43,0.91-0.44l0.12,0
			c0.34,0.01,0.66,0.19,0.86,0.47c0.01,0.01,0.07,0.1,0.07,0.11l1.66,1.86c1.08,1.2,2.17,2.41,3.24,3.62
			c1.96,2.23,3.56,4.07,5.02,5.78c1.62,1.91,2.63,3.86,3.07,5.96c1.01,4.83,0.07,9.06-2.79,12.57c-1.65,2.01-3.57,3.49-5.72,4.39
			C51.37,63.08,49.57,63.42,47.55,63.42z M47.52,30.33l-0.99,1.08c-1.02,1.11-2.03,2.22-3.03,3.35l-0.44,0.5
			c-1.66,1.87-3.37,3.81-4.98,5.76c-2.49,3.02-3.32,6.49-2.53,10.62c0.35,1.85,1.19,3.53,2.57,5.13c1.28,1.49,2.62,2.57,4.12,3.31
			c1.39,0.69,2.91,1.05,4.64,1.12c2.01,0.08,3.74-0.2,5.3-0.85c1.84-0.77,3.43-2,4.87-3.75c2.46-3.01,3.23-6.52,2.35-10.74
			c-0.36-1.74-1.21-3.37-2.59-5c-1.45-1.71-3.04-3.54-4.99-5.75c-1.07-1.21-2.14-2.41-3.22-3.61L47.52,30.33z"/>
	</g>
	<g>
		<g>
			<path class="st0" d="M43.69,64.8c-0.28,0-0.56-0.11-0.77-0.31c-0.27-0.27-0.39-0.66-0.3-1.03l1.69-7.24H41.6
				c-0.32,0-0.63-0.14-0.84-0.39c-0.21-0.25-0.3-0.57-0.24-0.89l2-11.62c0.12-0.71,0.69-1.16,1.39-1.12l8.84,0
				c0.04,0,0.08,0,0.12,0.01c0.47,0.05,0.74,0.3,0.87,0.5c0.18,0.26,0.25,0.66,0.17,0.96c-0.03,0.12-0.08,0.23-0.14,0.33
				c-0.22,0.4-2.13,4.21-3.22,6.41h2.86c0.38,0,0.74,0.2,0.94,0.53c0.2,0.33,0.21,0.74,0.03,1.08c-0.06,0.12-9.59,12.55-10.43,12.76
				C43.87,64.79,43.78,64.8,43.69,64.8z M42.9,54.03h2.8c0.33,0,0.65,0.15,0.86,0.41s0.28,0.6,0.21,0.93l-0.92,3.94
				c1.78-2.23,3.96-4.98,5.34-6.73h-2.37c-0.35,0-0.68-0.17-0.89-0.45c-0.21-0.28-0.26-0.65-0.15-0.98
				c0.01-0.05,2.07-4.28,3.35-6.77l-6.56,0L42.9,54.03z M53.63,44.19C53.63,44.19,53.63,44.19,53.63,44.19
				C53.63,44.19,53.63,44.19,53.63,44.19z M53.63,44.19C53.63,44.19,53.63,44.19,53.63,44.19C53.63,44.19,53.63,44.19,53.63,44.19z
				 M53.63,44.18C53.63,44.19,53.63,44.19,53.63,44.18C53.63,44.19,53.63,44.19,53.63,44.18z"/>
		</g>
	</g>
	<g>
		<g>
			<path class="st0" d="M35.61,54.81c-0.92-0.79-1.69-0.66-2.53,0.07c-0.3,0.26-0.68,0.44-1.04,0.64c-1.36,0.77-1.34,0.75-2.34-0.41
				c-0.44-0.51-0.53-0.93-0.08-1.44c0.02-0.03,0.03-0.07,0.06-0.09c2.07-1.79,1.86-3.84,0.64-5.96c-0.2-0.35-0.62-0.7-1-0.82
				c-0.85-0.25-1.74-0.36-2.61-0.49c-0.74-0.11-0.88-0.63-0.81-1.21c0.08-0.61-0.38-1.47,0.72-1.69c0.87-0.17,1.75-0.35,2.57-0.67
				c0.4-0.15,0.8-0.56,1-0.95c0.29-0.59,0.29-1.33,0.61-1.89c0.64-1.12,0.34-1.91-0.56-2.69c-0.41-0.36-0.67-0.88-1.04-1.29
				c-0.48-0.54-0.37-0.96-0.01-1.56c0.63-1.04,1.37-1.28,2.3-0.54c1.63,1.29,3.01,1.11,4.66-0.17c0.96-0.74,1.6-1.26,1.33-2.52
				c-0.1-0.46,0-0.96-0.02-1.44c-0.04-0.91,0.33-1.36,1.28-1.55c0.89-0.18,1.49-0.04,1.66,0.86c0.37,1.97,1.44,2.9,3.12,3.2
				l0.33-1.31c-0.89-0.17-1.47-0.72-1.94-1.75c-0.06-0.13-0.12-0.27-0.19-0.4c-1.11-2.42-1.11-2.42-3.73-1.77
				c-1.7,0.42-1.82,0.58-1.83,2.33c0,0.26-0.04,0.52,0.01,0.77c0.28,1.49-0.37,2.46-1.73,2.96c-0.41,0.15-0.96,0.21-1.36,0.07
				c-0.87-0.3-1.66-0.83-2.53-1.1c-0.38-0.12-1.04,0.02-1.32,0.3c-2.43,2.38-2.43,2.82-0.29,5.46c0.02,0.03,0.04,0.06,0.07,0.08
				c0.65,0.55,0.57,1.14,0.4,1.96c-0.29,1.4-1.05,1.96-2.36,2.1c-0.4,0.04-0.77,0.27-1.17,0.34c-1.1,0.19-1.37,0.88-1.38,1.9
				c-0.03,2.93,0.06,3.16,2.95,3.65c1.14,0.19,1.77,0.57,2.17,1.73c0.32,0.93,0.31,1.56-0.35,2.27c-0.39,0.43-0.61,1.02-0.99,1.46
				c-0.74,0.88-0.58,1.61,0.15,2.42c2.38,2.63,1.73,2.33,4.46,0.82c1.1-0.61,1.87-0.74,2.95-0.04c0.07,0.04,0.12,0.09,0.18,0.13
				l0.44-1.29C36.17,55.16,35.86,55.02,35.61,54.81z"/>
			<path class="st0" d="M30.62,57.97c-0.53,0-0.95-0.45-1.85-1.46l-0.55-0.62c-0.57-0.63-1.2-1.6-0.16-2.84
				c0.16-0.19,0.29-0.42,0.43-0.65c0.16-0.28,0.33-0.57,0.56-0.82c0.52-0.57,0.59-1.04,0.28-1.96c-0.33-0.97-0.78-1.32-1.92-1.52
				c-3.12-0.53-3.24-0.94-3.21-3.96c0.01-0.9,0.2-1.97,1.64-2.21c0.16-0.03,0.32-0.09,0.49-0.15c0.22-0.08,0.45-0.17,0.7-0.19
				c1.25-0.13,1.83-0.65,2.08-1.85c0.17-0.83,0.2-1.23-0.3-1.65c-0.02-0.01-0.08-0.09-0.1-0.11c-2.28-2.8-2.25-3.41,0.3-5.9
				c0.36-0.35,1.14-0.53,1.64-0.38c0.48,0.15,0.94,0.37,1.38,0.59c0.4,0.19,0.77,0.38,1.16,0.51c0.3,0.1,0.76,0.08,1.15-0.07
				c1.26-0.47,1.76-1.32,1.53-2.6c-0.04-0.21-0.03-0.42-0.02-0.62c0-0.07,0.01-0.15,0.01-0.22c0.01-1.91,0.23-2.18,2.07-2.64
				c2.77-0.69,2.92-0.62,4.1,1.95l0.19,0.4c0.43,0.95,0.94,1.42,1.71,1.57c0.09,0.02,0.16,0.07,0.21,0.14
				c0.05,0.07,0.06,0.16,0.04,0.25l-0.33,1.31c-0.04,0.16-0.2,0.26-0.37,0.24c-1.9-0.34-3.01-1.47-3.38-3.45
				c-0.05-0.28-0.15-0.46-0.29-0.56c-0.19-0.13-0.51-0.14-0.99-0.05c-0.8,0.16-1.06,0.47-1.02,1.22c0.01,0.19,0,0.39-0.01,0.58
				c-0.01,0.29-0.03,0.56,0.03,0.8c0.32,1.47-0.5,2.1-1.45,2.84c-1.87,1.44-3.38,1.49-5.05,0.17c-0.35-0.28-0.67-0.4-0.94-0.35
				c-0.3,0.05-0.6,0.32-0.9,0.8c-0.35,0.57-0.35,0.81-0.03,1.18c0.16,0.18,0.3,0.38,0.44,0.58c0.18,0.26,0.36,0.5,0.57,0.69
				c0.69,0.6,1.5,1.57,0.62,3.09c-0.15,0.25-0.22,0.57-0.29,0.9c-0.07,0.32-0.15,0.66-0.31,0.97c-0.24,0.49-0.71,0.93-1.17,1.11
				c-0.83,0.32-1.71,0.5-2.62,0.68c-0.51,0.1-0.52,0.3-0.47,0.85c0.02,0.19,0.03,0.38,0.01,0.57c-0.08,0.63,0.15,0.8,0.54,0.85
				l0.34,0.05c0.76,0.11,1.55,0.23,2.31,0.44c0.45,0.13,0.94,0.53,1.19,0.96c1.49,2.59,1.25,4.67-0.71,6.36
				c0.04-0.03,0.01,0.02-0.03,0.06c-0.28,0.31-0.33,0.54,0.08,1.02l0.07,0.08c0.77,0.89,0.77,0.89,1.87,0.26l0.25-0.14
				c0.27-0.15,0.53-0.29,0.73-0.46c1.03-0.89,1.96-0.91,2.95-0.07l0,0c0.21,0.18,0.47,0.3,0.79,0.44c0.15,0.07,0.23,0.24,0.17,0.4
				l-0.44,1.29c-0.03,0.1-0.11,0.17-0.2,0.2c-0.1,0.03-0.2,0.01-0.28-0.04l-0.08-0.06c-0.03-0.02-0.05-0.04-0.08-0.06
				c-0.9-0.58-1.51-0.56-2.62,0.05c-0.39,0.22-0.72,0.41-0.99,0.57C31.41,57.76,30.99,57.97,30.62,57.97z M30.24,32.29
				c-0.28,0-0.63,0.1-0.78,0.25c-2.29,2.24-2.3,2.52-0.27,5.03c0.87,0.75,0.69,1.58,0.54,2.31c-0.31,1.47-1.12,2.19-2.64,2.36
				c-0.17,0.02-0.35,0.09-0.54,0.16c-0.19,0.07-0.39,0.15-0.6,0.18c-0.81,0.14-1.1,0.55-1.11,1.59c-0.02,2.81-0.02,2.87,2.68,3.33
				c1.15,0.2,1.96,0.59,2.42,1.94c0.32,0.94,0.37,1.74-0.42,2.59c-0.18,0.2-0.33,0.45-0.48,0.71c-0.15,0.25-0.3,0.51-0.49,0.74
				c-0.58,0.69-0.54,1.24,0.15,2l0.56,0.62c1.29,1.44,1.29,1.44,2.51,0.71c0.28-0.17,0.61-0.36,1.01-0.58
				c1.08-0.6,1.95-0.81,3.11-0.13l0.21-0.62c-0.23-0.11-0.48-0.24-0.68-0.42c-0.74-0.63-1.33-0.61-2.11,0.07
				c-0.26,0.23-0.56,0.39-0.85,0.54l-0.24,0.13c-1.46,0.83-1.63,0.8-2.67-0.4l-0.07-0.08c-0.37-0.42-0.78-1.08-0.08-1.86
				c-0.01,0,0.02-0.07,0.09-0.12c1.72-1.48,1.9-3.24,0.57-5.56c-0.17-0.3-0.52-0.58-0.81-0.67c-0.72-0.21-1.48-0.32-2.23-0.43
				l-0.35-0.05c-0.47-0.07-1.23-0.36-1.07-1.57c0.02-0.12,0-0.27-0.01-0.44c-0.04-0.49-0.11-1.31,0.99-1.53
				c0.88-0.17,1.73-0.35,2.52-0.65c0.31-0.12,0.65-0.45,0.82-0.79c0.12-0.24,0.19-0.53,0.26-0.83c0.08-0.36,0.17-0.74,0.36-1.07
				c0.51-0.9,0.38-1.54-0.49-2.29c-0.27-0.23-0.47-0.52-0.67-0.8c-0.13-0.18-0.25-0.36-0.4-0.52c-0.67-0.75-0.38-1.39-0.04-1.94
				c0.4-0.65,0.83-1.01,1.33-1.1c0.45-0.08,0.94,0.08,1.45,0.48c1.44,1.14,2.64,1.09,4.27-0.17c0.98-0.76,1.44-1.16,1.21-2.2
				c-0.07-0.33-0.05-0.65-0.04-0.97c0.01-0.18,0.02-0.35,0.01-0.52c-0.05-1.07,0.42-1.65,1.53-1.87c0.41-0.08,1.02-0.16,1.47,0.15
				c0.29,0.2,0.48,0.52,0.56,0.97c0.31,1.63,1.11,2.53,2.58,2.88l0.18-0.71c-0.8-0.25-1.38-0.84-1.84-1.85l-0.19-0.4
				c-1-2.18-1-2.18-3.36-1.59c-1.56,0.39-1.58,0.41-1.59,2.03c0,0.08,0,0.16-0.01,0.25c-0.01,0.17-0.02,0.33,0.01,0.47
				c0.29,1.59-0.37,2.74-1.93,3.31c-0.41,0.15-1.04,0.25-1.57,0.07c-0.43-0.15-0.84-0.35-1.24-0.54c-0.44-0.22-0.85-0.42-1.29-0.55
				C30.4,32.3,30.32,32.29,30.24,32.29z"/>
		</g>
	</g>
	<path class="st0" d="M30.95,36.62"/>
	<g>
		<path class="st1" d="M32.36,64.14c3.28,0,5.95,2.66,5.95,5.95c0,3.28-2.66,5.94-5.95,5.94c-3.28,0-5.94-2.66-5.94-5.94
			C26.41,66.8,29.07,64.14,32.36,64.14L32.36,64.14z M32.36,64.14"/>
		<path class="st2" d="M32.36,67.27c1.56,0,2.82,1.26,2.82,2.82c0,1.55-1.26,2.82-2.82,2.82c-1.55,0-2.82-1.26-2.82-2.82
			C29.54,68.53,30.8,67.27,32.36,67.27L32.36,67.27z M32.36,67.27"/>
	</g>
</g>
</svg>
