<?xml version="1.0" encoding="utf-8"?>
<!-- Generator: Adobe Illustrator 27.0.0, SVG Export Plug-In . SVG Version: 6.00 Build 0)  -->
<svg version="1.1" id="Layer_1" xmlns="http://www.w3.org/2000/svg" xmlns:xlink="http://www.w3.org/1999/xlink" x="0px" y="0px"
	 viewBox="0 0 85.95 94.25" style="enable-background:new 0 0 85.95 94.25;" xml:space="preserve">
<style type="text/css">
	.st0{fill:#FFFFFF;}
	.st1{fill-rule:evenodd;clip-rule:evenodd;fill:#CECED0;}
	.st2{fill-rule:evenodd;clip-rule:evenodd;fill:#3D4553;}
</style>
<g>
	<g>
		<g>
			<path class="st0" d="M9.41,50.51c1.04-0.98,2.04-2,3.04-3.02c0.5-0.51,1.07-0.74,1.79-0.74c2.66-0.01,5.33-0.04,7.99-0.09
				c0.21,0,0.49-0.05,0.63-0.18c1.13-1.09,2.23-2.21,3.49-3.47c-0.8,0-1.43,0.02-2.06-0.01c-0.61-0.02-0.97-0.4-0.93-0.95
				c0.03-0.51,0.32-0.85,0.83-0.86c1.49-0.03,2.98-0.03,4.47-0.01c0.57,0.01,0.88,0.39,0.89,0.95c0.02,1.43,0.02,2.85,0,4.28
				c-0.01,0.58-0.44,0.97-0.96,0.96c-0.49-0.02-0.88-0.4-0.9-0.95c-0.02-0.64-0.01-1.28-0.01-2.11c-0.58,0.59-1.03,1.04-1.48,1.5
				c-0.5,0.51-1.05,0.97-1.51,1.52c-0.77,0.94-1.71,1.26-2.92,1.24c-2.43-0.05-4.87,0.02-7.3,0.08c-0.3,0.01-0.64,0.16-0.87,0.36
				c-0.64,0.57-1.23,1.19-1.94,1.9"/>
			<path class="st0" d="M11.8,51.04l-0.28-0.29c0.21-0.21,0.41-0.41,0.6-0.6c0.46-0.47,0.9-0.9,1.35-1.31
				c0.27-0.24,0.67-0.4,0.99-0.41l0.87-0.02c2.11-0.05,4.29-0.1,6.44-0.06c1.22,0.02,2.08-0.33,2.76-1.16
				c0.31-0.38,0.67-0.72,1.02-1.05c0.17-0.16,0.34-0.32,0.5-0.48c0.28-0.28,0.55-0.55,0.85-0.86l0.98-0.99v0.49
				c0,0.27,0,0.52,0,0.75c0,0.49-0.01,0.92,0.01,1.36c0.01,0.43,0.3,0.74,0.7,0.76c0.01,0,0.02,0,0.03,0c0.18,0,0.36-0.07,0.49-0.19
				c0.15-0.14,0.23-0.34,0.23-0.56c0.02-1.31,0.02-2.71,0-4.28c0-0.28-0.1-0.74-0.69-0.75c-1.4-0.03-2.86-0.03-4.46,0.01
				c-0.49,0.01-0.61,0.37-0.63,0.67c-0.01,0.21,0.04,0.38,0.15,0.51c0.13,0.14,0.33,0.22,0.58,0.23c0.43,0.02,0.85,0.01,1.33,0.01
				c0.23,0,0.47,0,0.72,0h0.48L25.64,44c-0.92,0.93-1.77,1.78-2.64,2.63c-0.21,0.2-0.57,0.23-0.77,0.24c-2.62,0.04-5.33,0.08-8,0.08
				c-0.67,0-1.2,0.22-1.65,0.68c-1.07,1.09-2.03,2.07-3.04,3.02l-0.28-0.29c1-0.95,1.97-1.92,3.03-3.01c0.53-0.55,1.15-0.8,1.94-0.8
				c2.66-0.01,5.37-0.05,7.99-0.08c0.22,0,0.42-0.05,0.49-0.12c0.87-0.84,1.72-1.7,2.63-2.62l0.5-0.51c-0.08,0-0.16,0-0.24,0
				c-0.48,0.01-0.92,0.01-1.35-0.01c-0.36-0.01-0.66-0.14-0.87-0.37c-0.19-0.21-0.28-0.49-0.26-0.8c0.04-0.63,0.43-1.03,1.03-1.04
				c1.61-0.03,3.07-0.03,4.47-0.01c0.66,0.01,1.07,0.45,1.08,1.15c0.02,1.57,0.02,2.97,0,4.29c-0.01,0.33-0.13,0.63-0.36,0.85
				c-0.22,0.2-0.51,0.31-0.81,0.3c-0.61-0.02-1.07-0.5-1.09-1.15c-0.02-0.44-0.01-0.88-0.01-1.38c0-0.08,0-0.17,0-0.26l-0.28,0.29
				c-0.3,0.31-0.58,0.58-0.85,0.86c-0.17,0.17-0.34,0.33-0.51,0.49c-0.34,0.32-0.69,0.66-0.99,1.01c-0.74,0.9-1.66,1.31-2.95,1.31
				c-0.04,0-0.09,0-0.13,0c-2.14-0.05-4.32,0.01-6.42,0.06l-0.87,0.02c-0.24,0.01-0.54,0.13-0.74,0.31
				c-0.45,0.4-0.88,0.83-1.33,1.29C12.21,50.63,12.01,50.83,11.8,51.04z"/>
		</g>
		<g>
			<path class="st0" d="M43.78,37.19c1.4-0.42,2.88-0.59,4.32-0.86c1.18-0.22,1.85,0.23,2.08,1.41c0.31,1.58,0.6,3.17,0.91,4.81
				c1.06-0.21,2.05-0.4,3.03-0.59c2.56-0.49,2.15-0.58,4.35,0.91c1.23,0.84,2.47,1.67,3.7,2.5c0.03,0.02,0.08,0.02,0.21,0.06
				c-0.12-0.65-0.24-1.25-0.34-1.85c-0.12-0.69,0.14-1.15,0.7-1.26c0.58-0.11,0.98,0.2,1.12,0.9c0.26,1.3,0.51,2.6,0.75,3.9
				c0.14,0.79-0.1,1.16-0.87,1.32c-1.32,0.27-2.64,0.52-3.96,0.76c-0.7,0.13-1.14-0.16-1.23-0.75c-0.08-0.54,0.24-0.94,0.89-1.08
				c0.53-0.12,1.07-0.22,1.6-0.33c0.01,0,0.02-0.03,0.08-0.11c-0.74-0.5-1.47-1-2.21-1.5c-0.82-0.55-1.62-1.13-2.46-1.65
				c-0.25-0.15-0.62-0.23-0.92-0.18c-1.37,0.22-2.72,0.51-4.08,0.76c-1.24,0.23-1.93-0.22-2.17-1.45c-0.3-1.56-0.59-3.12-0.88-4.64
				c-1.62,0.31-3.18,0.62-4.79,0.93"/>
			<path class="st0" d="M59.47,49.43c-0.27,0-0.51-0.07-0.69-0.2c-0.23-0.16-0.38-0.42-0.43-0.75c-0.1-0.64,0.3-1.14,1.05-1.3
				c0.35-0.08,0.69-0.15,1.04-0.22l0.28-0.06l-1.92-1.3c-0.23-0.15-0.45-0.31-0.68-0.46c-0.58-0.4-1.17-0.81-1.77-1.18
				c-0.21-0.13-0.53-0.2-0.78-0.15c-0.91,0.15-1.82,0.33-2.71,0.5c-0.46,0.09-0.91,0.18-1.37,0.26c-1.35,0.25-2.14-0.27-2.4-1.61
				c-0.21-1.08-0.41-2.17-0.61-3.23l-0.23-1.21l-4.6,0.89l-0.08-0.39l4.99-0.97l0.3,1.6c0.2,1.07,0.4,2.15,0.61,3.23
				c0.22,1.12,0.79,1.51,1.93,1.3c0.45-0.08,0.91-0.17,1.36-0.26c0.89-0.17,1.81-0.35,2.73-0.5c0.34-0.05,0.76,0.03,1.05,0.21
				c0.61,0.37,1.21,0.79,1.79,1.19c0.22,0.15,0.45,0.31,0.67,0.46l2.38,1.61l-0.21,0.31l-0.11,0.05l-0.56,0.12
				c-0.35,0.07-0.69,0.14-1.03,0.22c-0.31,0.07-0.83,0.27-0.74,0.85c0.03,0.22,0.12,0.38,0.26,0.48c0.17,0.12,0.43,0.16,0.73,0.1
				c1.3-0.23,2.63-0.49,3.95-0.76c0.66-0.13,0.84-0.41,0.71-1.09c-0.24-1.3-0.49-2.6-0.75-3.89c-0.12-0.59-0.42-0.83-0.89-0.74
				c-0.6,0.12-0.59,0.7-0.54,1.03c0.07,0.42,0.15,0.85,0.23,1.28l0.17,0.89l-0.42-0.12c-0.06-0.01-0.11-0.03-0.16-0.06
				c-1.23-0.83-2.47-1.66-3.7-2.5l-0.46-0.31c-1.47-1.01-1.47-1.01-3.16-0.68l-0.58,0.11c-0.76,0.15-1.53,0.3-2.32,0.45l-0.91,0.18
				l-0.31-1.65c-0.21-1.14-0.42-2.25-0.64-3.36c-0.21-1.07-0.78-1.45-1.85-1.25c-0.42,0.08-0.84,0.15-1.26,0.22
				c-1.01,0.17-2.05,0.34-3.04,0.63L43.72,37c1.01-0.3,2.06-0.48,3.09-0.65c0.42-0.07,0.84-0.14,1.25-0.22
				c1.29-0.24,2.06,0.29,2.31,1.57c0.22,1.11,0.43,2.23,0.64,3.37l0.23,1.25l0.51-0.1c0.8-0.16,1.56-0.31,2.32-0.45l0.58-0.11
				c1.82-0.36,1.88-0.35,3.46,0.74l0.46,0.31c1.18,0.8,2.35,1.59,3.53,2.39l-0.03-0.19c-0.08-0.44-0.16-0.86-0.23-1.29
				c-0.14-0.79,0.19-1.37,0.86-1.49c0.71-0.12,1.2,0.25,1.36,1.06c0.26,1.3,0.51,2.6,0.75,3.9c0.16,0.9-0.15,1.38-1.03,1.55
				c-1.33,0.27-2.66,0.52-3.96,0.76C59.69,49.42,59.58,49.43,59.47,49.43z"/>
		</g>
		<g>
			<g>
				<path class="st0" d="M33.74,61.59c-0.19-0.02-0.38-0.01-0.57-0.01c-3.67,0-7.34-0.01-11.01,0.01c-0.42,0-0.65-0.1-0.88-0.5
					c-1.06-1.85-3.62-2.1-4.94-0.43c-0.51,0.64-0.92,1.07-1.79,0.95c-0.43-0.06-0.72,0.3-0.78,0.75c-0.06,0.47,0.12,0.83,0.58,0.99
					c0.21,0.07,0.45,0.11,0.68,0.09c0.42-0.03,0.65,0.09,0.85,0.52c0.53,1.15,1.5,1.76,2.75,1.76c1.28,0,2.26-0.62,2.79-1.8
					c0.19-0.41,0.41-0.48,0.8-0.48c1.85,0.02,3.69,0.01,5.54,0.01c1.66,0,3.31,0,4.97,0c0.4,0,0.8,0.01,1.19-0.07
					c0.5-0.11,0.72-0.49,0.65-1C34.51,61.89,34.22,61.63,33.74,61.59z M18.66,63.86c-0.67,0.01-1.24-0.55-1.23-1.23
					c0.01-0.68,0.56-1.2,1.26-1.19c0.67,0.02,1.17,0.53,1.16,1.21C19.84,63.32,19.31,63.85,18.66,63.86z"/>
				<path class="st0" d="M18.64,65.92c0,0-0.01,0-0.01,0c-1.33-0.01-2.38-0.67-2.93-1.88c-0.15-0.34-0.3-0.43-0.65-0.4
					c-0.26,0.02-0.52-0.02-0.76-0.1c-0.53-0.18-0.79-0.62-0.71-1.2c0.04-0.32,0.19-0.6,0.4-0.76c0.17-0.13,0.38-0.19,0.61-0.16
					c0.76,0.09,1.12-0.27,1.6-0.88c0.65-0.83,1.64-1.25,2.69-1.18c1.07,0.08,2.04,0.69,2.58,1.64c0.18,0.31,0.33,0.39,0.7,0.39
					c0,0,0.01,0,0.01,0c2.85-0.01,5.71-0.01,8.57-0.01h2.58c0.15,0,0.3,0,0.45,0.01l0,0c0.59,0.05,0.95,0.39,1.02,0.96
					c0.08,0.63-0.22,1.09-0.81,1.22c-0.36,0.08-0.75,0.07-1.09,0.08h-0.13c-1.21,0-2.41,0-3.62,0l-2.85,0c-1.35,0-2.7,0-4.05-0.01
					c-0.01,0-0.02,0-0.02,0c-0.33,0-0.46,0.05-0.59,0.36C21.04,65.24,19.99,65.92,18.64,65.92z M15.15,63.23
					c0.44,0,0.71,0.19,0.91,0.64c0.49,1.07,1.38,1.64,2.57,1.65c0,0,0.01,0,0.01,0c1.2,0,2.1-0.58,2.6-1.68
					c0.22-0.5,0.52-0.6,0.97-0.6c0.01,0,0.01,0,0.02,0c1.35,0.01,2.69,0.01,4.05,0.01l1.49,0l1.36,0c1.21,0,2.41,0,3.62,0h0.14
					c0.32,0.01,0.69,0,1.01-0.07c0.48-0.11,0.54-0.48,0.5-0.77c-0.05-0.38-0.26-0.57-0.65-0.61c-0.14-0.01-0.27-0.01-0.41-0.01
					l-0.14,0l-2.45,0c-2.86,0-5.71,0-8.57,0.01c0,0-0.01,0-0.01,0c-0.51,0-0.8-0.16-1.05-0.6c-0.48-0.83-1.32-1.37-2.26-1.44
					c-0.92-0.07-1.77,0.31-2.34,1.03c-0.53,0.66-1.01,1.16-1.97,1.03c-0.12-0.02-0.22,0.01-0.31,0.08c-0.13,0.1-0.22,0.28-0.25,0.5
					c-0.05,0.4,0.09,0.65,0.45,0.77c0.19,0.07,0.4,0.1,0.6,0.08C15.06,63.23,15.1,63.23,15.15,63.23z M18.64,64.06
					c-0.37,0-0.72-0.15-0.99-0.41c-0.27-0.27-0.43-0.64-0.43-1.02c0-0.38,0.15-0.73,0.42-0.99c0.26-0.26,0.62-0.4,1-0.4
					c0.01,0,0.03,0,0.04,0c0.78,0.02,1.36,0.63,1.36,1.41c-0.01,0.77-0.61,1.39-1.38,1.4l0,0C18.65,64.06,18.64,64.06,18.64,64.06z
					 M18.65,61.64c-0.28,0-0.53,0.1-0.72,0.28c-0.19,0.18-0.3,0.43-0.3,0.7c0,0.28,0.11,0.54,0.31,0.73
					c0.19,0.19,0.44,0.29,0.7,0.29c0.01,0,0.01,0,0.02,0h0c0.55-0.01,0.98-0.45,0.98-1c0.01-0.57-0.4-0.99-0.96-1.01
					C18.67,61.64,18.66,61.64,18.65,61.64z"/>
			</g>
			<g>
				<path class="st0" d="M33.5,56.48c-1.17-0.02-2.35-0.02-3.52,0c-0.47,0.01-0.74-0.1-0.97-0.55c-0.55-1.05-1.49-1.59-2.66-1.6
					c-1.2-0.01-2.15,0.56-2.71,1.63c-0.21,0.41-0.44,0.52-0.86,0.51c-2.62-0.02-5.24-0.01-7.86,0c-0.77,0-1.16,0.34-1.16,0.93
					c0,0.61,0.38,0.91,1.16,0.92c1.3,0.01,2.6,0,3.9,0c1.34,0,2.68,0.01,4.02-0.01c0.38-0.01,0.58,0.11,0.76,0.47
					c0.56,1.09,1.48,1.69,2.73,1.69c1.25,0,2.18-0.59,2.73-1.68c0.2-0.4,0.43-0.48,0.82-0.47c1.24,0.02,2.47,0.02,3.71,0
					c0.65-0.01,1.02-0.39,0.99-0.96C34.56,56.82,34.18,56.49,33.5,56.48z M26.3,58.62c-0.67-0.02-1.23-0.61-1.18-1.27
					c0.04-0.64,0.63-1.18,1.25-1.16c0.68,0.02,1.19,0.58,1.16,1.29C27.5,58.15,26.97,58.64,26.3,58.62z"/>
				<path class="st0" d="M26.33,60.68c-1.3,0-2.3-0.62-2.91-1.8c-0.14-0.28-0.26-0.36-0.55-0.36c-0.01,0-0.02,0-0.03,0
					c-0.97,0.01-1.94,0.01-2.91,0.01l-2.32,0c-0.9,0-1.8,0-2.7,0c-1.13-0.01-1.36-0.61-1.36-1.12c0-0.72,0.5-1.13,1.36-1.14
					c2.17,0,5.02-0.01,7.86,0.01c0,0,0.01,0,0.01,0c0.36,0,0.5-0.09,0.67-0.41c0.59-1.12,1.6-1.74,2.87-1.74c0.01,0,0.01,0,0.02,0
					c1.26,0.01,2.27,0.61,2.84,1.7c0.17,0.34,0.34,0.45,0.73,0.45c0.02,0,0.04,0,0.06,0c1.12-0.03,2.22-0.02,3.53,0
					c0.77,0.01,1.25,0.41,1.28,1.08c0.01,0.33-0.08,0.61-0.28,0.82c-0.21,0.23-0.53,0.35-0.91,0.35c-1.23,0.02-2.48,0.02-3.71,0
					c-0.33,0-0.48,0.05-0.64,0.36C28.65,60.06,27.65,60.68,26.33,60.68z M22.87,58.13c0.44,0,0.7,0.16,0.91,0.58
					c0.54,1.05,1.4,1.58,2.55,1.58c1.17,0,2.03-0.53,2.55-1.57c0.24-0.48,0.55-0.58,0.96-0.58c0.01,0,0.03,0,0.04,0
					c1.23,0.02,2.47,0.02,3.7,0c0.27,0,0.49-0.08,0.62-0.23c0.12-0.13,0.18-0.31,0.17-0.52c-0.03-0.56-0.5-0.69-0.89-0.69
					c-1.3-0.02-2.4-0.03-3.51,0c-0.02,0-0.05,0-0.07,0c-0.45,0-0.81-0.12-1.08-0.66c-0.5-0.97-1.36-1.48-2.49-1.49
					c-0.01,0-0.01,0-0.02,0c-1.12,0-1.99,0.53-2.51,1.52c-0.24,0.45-0.52,0.62-1.03,0.62c-0.01,0-0.01,0-0.01,0
					c-2.84-0.02-5.69-0.01-7.86-0.01c-0.96,0-0.96,0.55-0.96,0.73c0,0.33,0.11,0.71,0.96,0.72c0.9,0,1.8,0,2.7,0l1.2,0l1.12,0
					c0.97,0,1.94,0.01,2.9-0.01C22.85,58.13,22.86,58.13,22.87,58.13z M26.33,58.82c-0.01,0-0.03,0-0.04,0
					c-0.38-0.01-0.75-0.18-1.01-0.47c-0.26-0.28-0.39-0.65-0.37-1.02c0.05-0.73,0.7-1.34,1.42-1.34c0.01,0,0.03,0,0.04,0
					c0.38,0.01,0.72,0.17,0.98,0.44c0.26,0.28,0.39,0.66,0.38,1.06C27.7,58.26,27.1,58.82,26.33,58.82z M26.3,58.42
					c0.01,0,0.02,0,0.03,0c0.55,0,0.98-0.4,1-0.95c0.01-0.29-0.08-0.57-0.27-0.77c-0.18-0.19-0.42-0.3-0.69-0.31
					c-0.53-0.04-1.01,0.43-1.05,0.97c-0.02,0.26,0.08,0.52,0.26,0.72C25.77,58.29,26.03,58.41,26.3,58.42L26.3,58.42z"/>
			</g>
		</g>
		<g>
			<g>
				<path class="st0" d="M35.57,72.51H13.63c-2.33,0-4.22-1.89-4.22-4.22V25.93c0-2.33,1.89-4.22,4.22-4.22h21.94
					c2.33,0,4.22,1.89,4.22,4.22v42.36C39.79,70.61,37.9,72.51,35.57,72.51z M13.63,23.4c-1.4,0-2.53,1.14-2.53,2.53v42.36
					c0,1.4,1.14,2.53,2.53,2.53h21.94c1.4,0,2.53-1.14,2.53-2.53V25.93c0-1.4-1.14-2.53-2.53-2.53H13.63z"/>
				<path class="st0" d="M35.57,72.71H13.63c-2.44,0-4.42-1.98-4.42-4.42V25.93c0-2.44,1.98-4.42,4.42-4.42h21.94
					c2.44,0,4.42,1.98,4.42,4.42v42.36C39.99,70.72,38.01,72.71,35.57,72.71z M13.63,21.91c-2.22,0-4.02,1.8-4.02,4.02v42.36
					c0,2.22,1.8,4.02,4.02,4.02h21.94c2.22,0,4.02-1.8,4.02-4.02V25.93c0-2.22-1.8-4.02-4.02-4.02H13.63z M35.57,71.02H13.63
					c-1.51,0-2.73-1.23-2.73-2.73V25.93c0-1.51,1.23-2.73,2.73-2.73h21.94c1.51,0,2.73,1.23,2.73,2.73v42.36
					C38.3,69.79,37.08,71.02,35.57,71.02z M13.63,23.6c-1.29,0-2.33,1.05-2.33,2.33v42.36c0,1.29,1.05,2.33,2.33,2.33h21.94
					c1.29,0,2.33-1.04,2.33-2.33V25.93c0-1.29-1.05-2.33-2.33-2.33H13.63z"/>
			</g>
			<g>
				<path class="st0" d="M30.84,27.95H18.36c-1.21,0-2.19-0.98-2.19-2.19v-3.21c0-0.47,0.38-0.84,0.84-0.84H32.2
					c0.47,0,0.84,0.38,0.84,0.84v3.21C33.04,26.97,32.05,27.95,30.84,27.95z M17.85,23.4v2.36c0,0.28,0.23,0.51,0.51,0.51h12.49
					c0.28,0,0.51-0.23,0.51-0.51V23.4H17.85z"/>
				<path class="st0" d="M30.84,28.15H18.36c-1.32,0-2.4-1.07-2.4-2.4v-3.21c0-0.58,0.47-1.05,1.05-1.05H32.2
					c0.57,0,1.04,0.47,1.04,1.05v3.21C33.24,27.08,32.17,28.15,30.84,28.15z M17.01,21.91c-0.36,0-0.64,0.29-0.64,0.64v3.21
					c0,1.1,0.89,1.99,1.99,1.99h12.49c1.1,0,1.99-0.89,1.99-1.99v-3.21c0-0.36-0.29-0.64-0.64-0.64H17.01z M30.84,26.47H18.36
					c-0.39,0-0.71-0.32-0.71-0.71v-2.56h13.9v2.56C31.55,26.15,31.24,26.47,30.84,26.47z M18.05,23.6v2.16c0,0.17,0.14,0.3,0.3,0.3
					h12.49c0.17,0,0.31-0.14,0.31-0.3V23.6H18.05z"/>
			</g>
		</g>
		<g>
			<g>
				<path class="st0" d="M68.3,72.54H46.36c-2.33,0-4.22-1.89-4.22-4.22V25.96c0-2.33,1.89-4.22,4.22-4.22H68.3
					c2.33,0,4.22,1.89,4.22,4.22v42.36C72.52,70.65,70.62,72.54,68.3,72.54z M46.36,23.43c-1.4,0-2.53,1.14-2.53,2.53v42.36
					c0,1.4,1.14,2.53,2.53,2.53H68.3c1.4,0,2.53-1.14,2.53-2.53V25.96c0-1.4-1.14-2.53-2.53-2.53H46.36z"/>
				<path class="st0" d="M68.3,72.74H46.36c-2.44,0-4.42-1.98-4.42-4.42V25.96c0-2.44,1.98-4.42,4.42-4.42H68.3
					c2.44,0,4.42,1.98,4.42,4.42v42.36C72.72,70.76,70.73,72.74,68.3,72.74z M46.36,21.95c-2.22,0-4.02,1.8-4.02,4.02v42.36
					c0,2.22,1.8,4.02,4.02,4.02H68.3c2.22,0,4.02-1.8,4.02-4.02V25.96c0-2.22-1.8-4.02-4.02-4.02H46.36z M68.3,71.06H46.36
					c-1.51,0-2.73-1.23-2.73-2.73V25.96c0-1.51,1.23-2.73,2.73-2.73H68.3c1.51,0,2.73,1.23,2.73,2.73v42.36
					C71.03,69.83,69.8,71.06,68.3,71.06z M46.36,23.63c-1.29,0-2.33,1.05-2.33,2.33v42.36c0,1.29,1.05,2.33,2.33,2.33H68.3
					c1.29,0,2.33-1.04,2.33-2.33V25.96c0-1.29-1.05-2.33-2.33-2.33H46.36z"/>
			</g>
			<g>
				<path class="st0" d="M63.57,27.99H51.08c-1.21,0-2.19-0.98-2.19-2.19v-3.21c0-0.47,0.38-0.84,0.84-0.84h15.19
					c0.47,0,0.84,0.38,0.84,0.84v3.21C65.77,27,64.78,27.99,63.57,27.99z M50.58,23.43v2.36c0,0.28,0.23,0.51,0.51,0.51h12.49
					c0.28,0,0.51-0.23,0.51-0.51v-2.36H50.58z"/>
				<path class="st0" d="M63.57,28.19H51.08c-1.32,0-2.4-1.07-2.4-2.4v-3.21c0-0.58,0.47-1.05,1.05-1.05h15.19
					c0.58,0,1.05,0.47,1.05,1.05v3.21C65.97,27.12,64.89,28.19,63.57,28.19z M49.73,21.95c-0.36,0-0.64,0.29-0.64,0.64v3.21
					c0,1.1,0.89,1.99,1.99,1.99h12.49c1.1,0,1.99-0.89,1.99-1.99v-3.21c0-0.36-0.29-0.64-0.64-0.64H49.73z M63.57,26.5H51.08
					c-0.39,0-0.71-0.32-0.71-0.71v-2.56h13.9v2.56C64.28,26.18,63.96,26.5,63.57,26.5z M50.78,23.63v2.16c0,0.17,0.14,0.3,0.3,0.3
					h12.49c0.17,0,0.3-0.14,0.3-0.3v-2.16H50.78z"/>
			</g>
		</g>
		<g>
			<path class="st0" d="M67.89,56.53c-0.24-0.05-0.5-0.05-0.75-0.05c-4.63,0-9.27-0.01-13.9,0.01c-0.46,0-0.73-0.09-0.97-0.54
				c-0.59-1.11-1.59-1.67-2.85-1.6c-1.52,0.09-2.74,1.26-2.89,2.68c-0.16,1.55,0.72,2.89,2.18,3.34c1.44,0.44,2.93-0.2,3.63-1.61
				c0.17-0.35,0.38-0.42,0.73-0.42c2.39,0.01,4.78,0.01,7.17,0.01c2.16,0,4.32,0,6.48,0c0.36,0,0.71,0.01,1.07-0.02
				c0.49-0.04,0.76-0.34,0.8-0.82C68.63,57,68.39,56.64,67.89,56.53z M49.61,58.62c-0.67,0.01-1.2-0.49-1.22-1.16
				c-0.02-0.7,0.5-1.26,1.18-1.27c0.63-0.01,1.21,0.54,1.23,1.17C50.83,58.04,50.28,58.61,49.61,58.62z"/>
			<path class="st0" d="M49.61,60.7c-0.32,0-0.64-0.05-0.96-0.15c-1.55-0.48-2.49-1.91-2.32-3.55c0.15-1.54,1.48-2.77,3.07-2.86
				c0.08-0.01,0.15-0.01,0.22-0.01c1.23,0,2.22,0.6,2.82,1.71c0.2,0.38,0.4,0.44,0.8,0.44c4.3-0.01,8.6-0.01,12.91-0.01h0.99
				c0.26,0,0.53,0,0.79,0.06h0c0.59,0.13,0.91,0.56,0.86,1.18c-0.05,0.59-0.41,0.95-0.98,1c-0.29,0.03-0.58,0.03-0.87,0.02h-8.49
				c-1.79,0-3.59,0-5.38-0.01c0,0-0.01,0-0.01,0c-0.28,0-0.41,0.05-0.54,0.31C51.93,60.02,50.81,60.7,49.61,60.7z M49.63,54.54
				c-0.07,0-0.13,0-0.2,0.01c-1.4,0.08-2.56,1.15-2.7,2.5c-0.15,1.45,0.67,2.71,2.04,3.13c1.34,0.42,2.74-0.21,3.4-1.51
				c0.22-0.44,0.52-0.53,0.9-0.53c0,0,0.01,0,0.01,0c1.79,0.01,3.58,0.01,5.38,0.01l1.79,0l2.16,0l4.32,0l0.22,0
				c0.27,0,0.56,0,0.83-0.02c0.38-0.03,0.59-0.25,0.62-0.63c0.03-0.41-0.15-0.67-0.54-0.75l0,0c-0.22-0.05-0.47-0.05-0.71-0.05
				l-0.99,0c-4.3,0-8.6-0.01-12.91,0.01c-0.51,0-0.86-0.11-1.15-0.65C51.56,55.06,50.72,54.54,49.63,54.54z M49.59,58.83
				c-0.78,0-1.38-0.58-1.4-1.35c-0.01-0.4,0.13-0.77,0.39-1.05c0.26-0.27,0.61-0.42,0.98-0.43c0.01,0,0.02,0,0.02,0
				c0.72,0,1.38,0.63,1.42,1.36c0.02,0.38-0.12,0.74-0.38,1.02c-0.26,0.28-0.63,0.44-1.01,0.45l0,0
				C49.6,58.83,49.59,58.83,49.59,58.83z M49.59,56.39c-0.01,0-0.01,0-0.02,0c-0.27,0.01-0.52,0.11-0.7,0.3
				c-0.19,0.2-0.29,0.47-0.28,0.76c0.02,0.56,0.47,0.97,1.01,0.96l0,0c0.27,0,0.54-0.12,0.72-0.32c0.19-0.2,0.29-0.46,0.28-0.73
				C50.58,56.85,50.11,56.39,49.59,56.39z"/>
		</g>
		<g>
			<path class="st0" d="M67.91,61.61c-0.17-0.18-0.45-0.27-0.57-0.47c-1.25-2.11-4.16-2.12-5.37,0.01c-0.2,0.35-0.41,0.44-0.78,0.44
				c-2.04-0.02-4.07-0.01-6.11-0.01c0,0,0,0,0,0c-2.12,0-4.24-0.01-6.36,0c-0.59,0-0.93,0.34-0.96,0.86
				c-0.02,0.52,0.29,0.9,0.86,0.98c0.21,0.03,0.42,0.02,0.63,0.02c3.92,0,7.85,0.01,11.77-0.01c0.41,0,0.66,0.07,0.86,0.5
				c0.54,1.18,1.52,1.79,2.8,1.77c1.26-0.02,2.17-0.66,2.76-1.78c0.13-0.24,0.44-0.38,0.62-0.61c0.21-0.28,0.52-0.62,0.49-0.91
				C68.52,62.13,68.15,61.86,67.91,61.61z M64.66,63.86c-0.66,0.01-1.25-0.57-1.24-1.23c0.01-0.66,0.53-1.18,1.2-1.18
				c0.7-0.01,1.24,0.52,1.23,1.21C65.85,63.3,65.3,63.85,64.66,63.86z"/>
			<path class="st0" d="M64.64,65.92c-1.34,0-2.38-0.67-2.94-1.89c-0.15-0.33-0.3-0.38-0.67-0.38c0,0-0.01,0-0.01,0
				c-3,0.01-6,0.01-9,0.01h-2.91c-0.17,0.01-0.35,0.01-0.52-0.02c-0.66-0.1-1.06-0.55-1.03-1.19c0.03-0.65,0.47-1.05,1.16-1.05
				c1.53-0.01,3.06-0.01,4.59,0l3.29,0c1.52-0.01,3.05,0,4.58,0.01c0.01,0,0.01,0,0.02,0c0.29,0,0.43-0.05,0.59-0.34
				c0.6-1.05,1.65-1.69,2.82-1.7c0.01,0,0.02,0,0.03,0c1.17,0,2.25,0.63,2.87,1.68c0.05,0.07,0.15,0.14,0.25,0.21
				c0.1,0.06,0.2,0.13,0.29,0.22c0.05,0.06,0.12,0.11,0.18,0.17c0.24,0.23,0.5,0.46,0.52,0.76c0.03,0.32-0.22,0.64-0.43,0.92
				l-0.1,0.13c-0.09,0.12-0.21,0.22-0.32,0.31c-0.12,0.09-0.22,0.18-0.28,0.28c-0.65,1.23-1.64,1.87-2.93,1.88
				C64.67,65.92,64.66,65.92,64.64,65.92z M61.03,63.24c0.47,0,0.8,0.1,1.03,0.62c0.5,1.08,1.39,1.66,2.57,1.66
				c0.02,0,0.03,0,0.05,0c1.14-0.01,2.01-0.57,2.58-1.67c0.09-0.17,0.24-0.29,0.38-0.4c0.1-0.08,0.19-0.15,0.25-0.23l0.1-0.13
				c0.16-0.21,0.37-0.47,0.35-0.64c-0.01-0.15-0.22-0.34-0.4-0.5c-0.07-0.06-0.13-0.12-0.19-0.19l0,0
				c-0.06-0.06-0.14-0.11-0.22-0.16c-0.13-0.09-0.28-0.19-0.38-0.34c-0.56-0.94-1.5-1.5-2.55-1.48c-1.02,0.01-1.94,0.57-2.47,1.49
				c-0.26,0.45-0.58,0.53-0.96,0.54c-1.52-0.01-3.05-0.01-4.58-0.01l-1.53,0l-1.77,0c-1.53,0-3.06,0-4.59,0.01
				c-0.47,0-0.74,0.24-0.76,0.67c-0.02,0.42,0.23,0.71,0.68,0.77c0.14,0.02,0.3,0.02,0.46,0.02l0.14,0l2.77,0c3,0,6,0,9-0.01
				C61.02,63.24,61.03,63.24,61.03,63.24z M64.64,64.06c-0.36,0-0.73-0.15-1-0.43c-0.27-0.27-0.43-0.64-0.42-1.01
				c0.01-0.77,0.63-1.37,1.4-1.38c0.01,0,0.01,0,0.02,0c0.39,0,0.75,0.15,1.02,0.41c0.26,0.26,0.4,0.62,0.4,1
				c-0.01,0.75-0.65,1.39-1.4,1.4l0,0C64.66,64.06,64.65,64.06,64.64,64.06z M64.64,61.64c-0.01,0-0.01,0-0.01,0
				c-0.57,0.01-1,0.43-1,0.98c0,0.26,0.11,0.52,0.3,0.72c0.2,0.2,0.46,0.31,0.71,0.31c0.01,0,0.01,0,0.01,0l0,0
				c0.54-0.01,0.99-0.47,1-1.01c0.01-0.28-0.1-0.53-0.28-0.71C65.19,61.75,64.93,61.64,64.64,61.64z"/>
		</g>
	</g>
	<g>
		<path class="st1" d="M71.69,32.97c2.79,0,5.05,2.26,5.05,5.05c0,2.78-2.26,5.04-5.05,5.04c-2.79,0-5.04-2.26-5.04-5.04
			C66.65,35.23,68.9,32.97,71.69,32.97L71.69,32.97z M71.69,32.97"/>
		<path class="st2" d="M71.69,35.62c1.32,0,2.39,1.07,2.39,2.39c0,1.32-1.07,2.39-2.39,2.39c-1.32,0-2.39-1.07-2.39-2.39
			C69.3,36.69,70.37,35.62,71.69,35.62L71.69,35.62z M71.69,35.62"/>
	</g>
</g>
</svg>
