<?xml version="1.0" encoding="utf-8"?>
<!-- Generator: Adobe Illustrator 27.0.0, SVG Export Plug-In . SVG Version: 6.00 Build 0)  -->
<svg version="1.1" id="Layer_1" xmlns="http://www.w3.org/2000/svg" xmlns:xlink="http://www.w3.org/1999/xlink" x="0px" y="0px"
	 viewBox="0 0 50.64 57.28" style="enable-background:new 0 0 50.64 57.28;" xml:space="preserve">
<style type="text/css">
	.st0{fill:#606060;}
	.st1{fill-rule:evenodd;clip-rule:evenodd;fill:#CDCDCF;}
	.st2{fill-rule:evenodd;clip-rule:evenodd;fill:#3D4452;}
</style>
<g>
	<g>
		<path class="st0" d="M44.31,20.75c-0.07-1.39-0.52-2.73-1.31-3.88c-0.12-0.17-0.32-0.27-0.53-0.27c-0.21,0.01-0.4,0.13-0.51,0.31
			l-2.52,4.4c-0.21,0.37-0.68,0.5-1.05,0.29L35.6,20c-0.37-0.21-0.5-0.68-0.29-1.05l2.52-4.4c0.1-0.18,0.11-0.41,0.01-0.59
			c-0.1-0.19-0.29-0.31-0.5-0.32c-1.39-0.1-2.77,0.19-4.01,0.84c-1.27,0.66-2.32,1.67-3.03,2.92c-0.77,1.34-1.1,2.86-0.96,4.39
			c0.12,1.35,0.6,2.63,1.39,3.73l-11.1,19.42c-0.85,1.48-0.33,3.38,1.15,4.23c1.48,0.85,3.38,0.33,4.23-1.15l11.1-19.42
			c1.34,0.13,2.69-0.11,3.92-0.69c1.39-0.66,2.53-1.71,3.3-3.05C44.04,23.59,44.38,22.18,44.31,20.75z M39.5,26.79
			c-1.14,0.54-2.39,0.72-3.63,0.54c-0.25-0.04-0.5,0.08-0.62,0.3L23.94,47.4c-0.51,0.9-1.66,1.21-2.56,0.7
			c-0.9-0.51-1.21-1.66-0.7-2.56l11.31-19.77c0.13-0.22,0.1-0.49-0.06-0.69c-0.79-0.97-1.27-2.15-1.38-3.4
			c-0.12-1.28,0.16-2.55,0.8-3.67c1.02-1.78,2.86-2.94,4.87-3.13l-1.99,3.47c-0.55,0.95-0.21,2.18,0.74,2.72l2.79,1.6
			c0.95,0.55,2.18,0.21,2.72-0.74l1.99-3.47c0.85,1.83,0.79,4.01-0.23,5.79C41.62,25.35,40.67,26.24,39.5,26.79z"/>
		<path class="st0" d="M19.82,26.57c0.71,0.4,1.61,0.16,2.02-0.55c0.41-0.71,0.16-1.61-0.55-2.02l-0.86-0.49l5.58-9.77l1.06-0.59
			c0.3-0.17,0.54-0.44,0.66-0.77c0-0.01,0-0.01,0.01-0.02l0.94-2.75c0.25-0.68-0.02-1.44-0.65-1.8l-0.75-0.43
			c-0.63-0.36-1.42-0.22-1.88,0.35l-1.9,2.2c0,0.01-0.01,0.01-0.01,0.02c-0.22,0.27-0.33,0.61-0.33,0.96l0.03,1.21l-5.58,9.77
			l-0.86-0.49c-0.71-0.4-1.61-0.16-2.02,0.55c-0.4,0.71-0.16,1.61,0.55,2.02l0.35,0.2l-0.53,0.93c0,0-0.24,0.38-0.56,0.43
			c-1.29,0.2-2.38,0.94-3,2.02c0,0.01-0.01,0.01-0.01,0.02c0,0,0,0,0,0l-5.15,9c-1.12,1.96-0.44,4.46,1.52,5.57l0.04,0.02
			c1.96,1.12,4.46,0.44,5.57-1.52l5.15-9c0,0,0-0.01,0.01-0.01c0,0,0-0.01,0.01-0.01c0.62-1.08,0.7-2.4,0.22-3.61
			c-0.12-0.31,0.08-0.7,0.08-0.7l0.54-0.94L19.82,26.57z M24.4,12.26l-0.03-1.38c0-0.06,0.02-0.11,0.05-0.16l1.89-2.2
			c0-0.01,0.01-0.01,0.01-0.02c0.08-0.1,0.22-0.12,0.33-0.06l0.75,0.43c0.11,0.06,0.16,0.19,0.11,0.31c0,0.01,0,0.01-0.01,0.02
			l-0.93,2.75c-0.02,0.05-0.06,0.1-0.11,0.13l-1.2,0.67c-0.1,0.05-0.18,0.13-0.23,0.23l-5.67,9.91l-0.71-0.41l5.67-9.91
			C24.37,12.48,24.4,12.37,24.4,12.26z M15.77,22.55c0.07-0.12,0.22-0.16,0.35-0.09l4.56,2.61c0.12,0.07,0.16,0.22,0.09,0.35
			c-0.07,0.12-0.22,0.16-0.35,0.09l-4.56-2.61C15.74,22.83,15.7,22.67,15.77,22.55z M17.71,28.46c0.34,0.86,0.29,1.78-0.13,2.53
			c-0.01,0.02-0.03,0.05-0.04,0.07l-5.13,8.96c-0.78,1.37-2.53,1.85-3.9,1.06l-0.04-0.02c-1.37-0.78-1.85-2.53-1.06-3.9l5.13-8.97
			c0.01-0.01,0.01-0.02,0.02-0.03c0.01-0.01,0.01-0.02,0.02-0.03c0.43-0.75,1.2-1.26,2.12-1.4c0.91-0.14,1.39-0.94,1.44-1.03
			l0.54-0.94l1.74,1l-0.54,0.94C17.82,26.79,17.37,27.61,17.71,28.46z"/>
	</g>
	<g>
		<path class="st1" d="M26.25,41.13c1.66,0,3.01,1.35,3.01,3.01c0,1.66-1.35,3.01-3.01,3.01c-1.66,0-3.01-1.35-3.01-3.01
			C23.24,42.48,24.59,41.13,26.25,41.13L26.25,41.13z M26.25,41.13"/>
		<path class="st2" d="M26.25,42.71c0.79,0,1.43,0.64,1.43,1.43c0,0.79-0.64,1.43-1.43,1.43c-0.79,0-1.43-0.64-1.43-1.43
			C24.82,43.35,25.46,42.71,26.25,42.71L26.25,42.71z M26.25,42.71"/>
	</g>
</g>
</svg>
