<?xml version="1.0" encoding="utf-8"?>
<!-- Generator: Adobe Illustrator 27.0.0, SVG Export Plug-In . SVG Version: 6.00 Build 0)  -->
<svg version="1.1" id="Layer_1" xmlns="http://www.w3.org/2000/svg" xmlns:xlink="http://www.w3.org/1999/xlink" x="0px" y="0px"
	 viewBox="0 0 85.95 94.25" style="enable-background:new 0 0 85.95 94.25;" xml:space="preserve">
<style type="text/css">
	.st0{fill:#FFFFFF;}
	.st1{fill-rule:evenodd;clip-rule:evenodd;fill:#CECED0;}
	.st2{fill-rule:evenodd;clip-rule:evenodd;fill:#3D4553;}
</style>
<g>
	<g>
		<path class="st0" d="M13.08,46.65c0-3.48,1.13-6.54,3.2-9.32c1.16-1.56,2.13-1.83,3.56-0.25c2.2,2.41,4.46,4.79,6.92,6.92
			c1.07,0.93,2.7,1.55,4.12,1.66c3.08,0.25,6.19,0.17,9.28,0.04c2.1-0.09,2.85,0.59,2.57,2.76c-1.02,7.89-7.78,13.62-15.7,13.19
			C19.2,61.21,13.06,54.61,13.08,46.65z M19.14,56.31c4.87,3.69,9.4,4.34,14.13,2.18c4.42-2.02,6.86-5.6,7.48-10.8
			c-4.1,0-7.93-0.02-11.75,0.03c-0.45,0.01-0.97,0.31-1.32,0.62C24.92,50.89,22.19,53.46,19.14,56.31z M17.87,38.7
			c-3.9,4.69-3.83,11.85,0.1,15.94c2.75-2.63,5.51-5.27,8.33-7.97C23.52,44.03,20.75,41.42,17.87,38.7z"/>
		<path class="st0" d="M40.8,44.07c-1.92,0-3.85-0.05-5.77,0.02c-1.43,0.05-2.2-0.39-2.18-1.97c0.05-4.01,0.04-8.03,0-12.04
			c-0.02-1.6,0.76-1.96,2.2-1.9c6.94,0.26,13.66,7.12,13.7,13.99c0.01,1.41-0.55,1.96-1.93,1.93c-2.01-0.05-4.01-0.01-6.02-0.01
			C40.8,44.08,40.8,44.08,40.8,44.07z M46.51,42.12c-0.2-6.4-5.71-11.87-11.65-11.65c0,3.46-0.05,6.94,0.07,10.42
			c0.01,0.43,0.92,1.16,1.43,1.18C39.68,42.17,43,42.12,46.51,42.12z"/>
		<path class="st0" d="M64.14,55.63c0-2.67,0.04-5.34-0.01-8.01c-0.03-1.37,0.5-2,1.9-1.97c7.61,0.12,6.17-0.99,6.29,5.83
			c0.07,3.92-0.05,7.84,0.02,11.77c0.03,1.59-0.5,2.27-2.15,2.23c-7.33-0.18-5.88,0.94-6.04-5.83
			C64.11,58.3,64.13,56.96,64.14,55.63z M66.22,63.29c1.47,0,2.68,0,3.9,0c0-5.3,0-10.42,0-15.44c-1.45,0-2.65,0-3.9,0
			C66.22,53.06,66.22,58.06,66.22,63.29z"/>
		<path class="st0" d="M61.34,57.73c0,0.67,0.01,1.34,0,2c-0.16,6.78,1.24,5.61-6.43,5.63c-0.59,0-1.67-1.12-1.7-1.75
			c-0.16-4-0.08-8.01-0.07-12.02c0-0.25,0.07-0.53,0.07-0.74c0-1.66,4.32-0.7,6.48-1c0.45-0.06,1.48,1.16,1.56,1.87
			C61.48,53.71,61.33,55.73,61.34,57.73C61.34,57.73,61.34,57.73,61.34,57.73z M55.3,51.86c0,4.01,0,7.71,0,11.43
			c1.41,0,2.61,0,3.93,0c0-3.88,0-7.59,0-11.43C57.87,51.86,56.66,51.86,55.3,51.86z"/>
		<path class="st0" d="M31.01,36.09c0,2.09,0.04,4.19-0.03,6.28c-0.02,0.51-0.27,1.28-0.64,1.45c-0.35,0.16-1.12-0.19-1.48-0.54
			c-2.98-2.94-5.95-5.9-8.8-8.97c-0.38-0.41-0.35-1.81,0.04-2.21c2.45-2.47,5.5-3.73,8.99-3.94c1.44-0.09,1.97,0.53,1.95,1.9
			c-0.04,2.01-0.01,4.02-0.01,6.03C31.02,36.09,31.02,36.09,31.01,36.09z M21.93,32.65c2.59,2.61,4.82,4.85,7.03,7.07
			c0-2.96,0-6.09,0-9.96C26.33,30.84,24.06,31.77,21.93,32.65z"/>
		<path class="st0" d="M51.09,59.8c-0.11,6.49,1.03,5.5-5.76,5.65c-1.8,0.04-2.62-0.51-2.53-2.41c0.11-2.34,0.06-4.68,0.02-7.02
			c-0.02-1.35,0.51-1.89,1.9-2.02C51.09,53.4,51.09,53.37,51.09,59.8z M48.99,56.18c-1.34,0-2.68,0-3.97,0c0,2.52,0,4.81,0,7.11
			c1.43,0,2.64,0,3.97,0C48.99,60.96,48.99,58.81,48.99,56.18z"/>
		<g>
			<line class="st0" x1="49.05" y1="26.8" x2="71.8" y2="26.8"/>
			<path class="st0" d="M71.8,27.8H49.05c-0.45,0-0.82-0.45-0.82-1.01c0-0.56,0.37-1.01,0.82-1.01H71.8c0.45,0,0.82,0.45,0.82,1.01
				C72.62,27.35,72.25,27.8,71.8,27.8z"/>
		</g>
		<g>
			<line class="st0" x1="56.48" y1="31.66" x2="72.06" y2="31.66"/>
			<path class="st0" d="M72.06,32.66H56.48c-0.45,0-0.82-0.45-0.82-1.01c0-0.56,0.37-1.01,0.82-1.01h15.58
				c0.45,0,0.82,0.45,0.82,1.01C72.87,32.21,72.51,32.66,72.06,32.66z"/>
		</g>
	</g>
	<g>
		<path class="st1" d="M43.25,59.74c2.41,0,4.36,1.95,4.36,4.36c0,2.41-1.95,4.36-4.36,4.36c-2.41,0-4.36-1.95-4.36-4.36
			C38.89,61.69,40.84,59.74,43.25,59.74L43.25,59.74z M43.25,59.74"/>
		<path class="st2" d="M43.25,62.03c1.14,0,2.07,0.93,2.07,2.07c0,1.14-0.93,2.07-2.07,2.07c-1.14,0-2.07-0.93-2.07-2.07
			C41.19,62.96,42.11,62.03,43.25,62.03L43.25,62.03z M43.25,62.03"/>
	</g>
</g>
</svg>
