<?xml version="1.0" encoding="utf-8"?>
<!-- Generator: Adobe Illustrator 27.0.0, SVG Export Plug-In . SVG Version: 6.00 Build 0)  -->
<svg version="1.1" id="Layer_1" xmlns="http://www.w3.org/2000/svg" xmlns:xlink="http://www.w3.org/1999/xlink" x="0px" y="0px"
	 viewBox="0 0 95.45 114.28" style="enable-background:new 0 0 95.45 114.28;" xml:space="preserve">
<style type="text/css">
	.st0{fill:#16AFE6;}
	.st1{fill-rule:evenodd;clip-rule:evenodd;fill:#CCCCCE;}
	.st2{fill-rule:evenodd;clip-rule:evenodd;fill:#3D4453;}
</style>
<g>
	<g>
		<g>
			<path class="st0" d="M43.31,46.4l5.72-4.84h4.94v16.4h-4.21v-12.2l-3.93,3.42L43.31,46.4z"/>
			<path class="st0" d="M56.21,57.95v-3.9c0-1.17,0.22-2.12,0.67-2.83c0.45-0.71,1.13-1.2,2.04-1.45l4.87-1.44
				c0.52-0.15,0.86-0.33,1.03-0.52c0.17-0.19,0.26-0.49,0.26-0.88v-0.66c0-0.6-0.14-1.02-0.43-1.25s-0.79-0.35-1.5-0.35h-0.74
				c-0.71,0-1.21,0.12-1.49,0.36c-0.28,0.24-0.42,0.65-0.42,1.24v0.92h-4.14v-1.46c0-1.41,0.45-2.49,1.35-3.24s2.19-1.13,3.87-1.13
				h2.44c1.65,0,2.95,0.38,3.9,1.14s1.42,1.8,1.42,3.12v1.35c0,1.2-0.25,2.17-0.76,2.91c-0.51,0.73-1.28,1.24-2.3,1.51l-4.74,1.24
				c-0.38,0.1-0.63,0.23-0.76,0.37c-0.13,0.14-0.2,0.37-0.2,0.67v0.65h8.64v3.63H56.21z"/>
		</g>
	</g>
	<g>
		<path class="st0" d="M73.78,48.26c-0.82,0-1.39-0.16-1.71-0.48c-0.32-0.32-0.48-0.89-0.48-1.71v-2.14c0-0.81,0.16-1.38,0.49-1.7
			c0.32-0.32,0.89-0.48,1.7-0.48h0.62c0.82,0,1.39,0.16,1.71,0.47c0.33,0.32,0.49,0.88,0.49,1.7v2.14c0,0.83-0.16,1.4-0.48,1.71
			s-0.9,0.48-1.72,0.48H73.78z M73.99,46.8h0.21c0.24,0,0.4-0.06,0.48-0.19c0.08-0.12,0.12-0.45,0.12-0.97v-1.29
			c0-0.5-0.04-0.81-0.12-0.94s-0.24-0.19-0.48-0.19h-0.21c-0.24,0-0.4,0.06-0.48,0.19c-0.08,0.13-0.12,0.44-0.12,0.94v1.29
			c0,0.51,0.04,0.84,0.12,0.97C73.59,46.73,73.75,46.8,73.99,46.8z M74.99,51.58l5.64-9.82h1.09l-5.62,9.82H74.99z M82.3,51.58
			c-0.81,0-1.38-0.16-1.7-0.47c-0.32-0.32-0.48-0.88-0.48-1.69v-2.15c0-0.82,0.16-1.39,0.48-1.71c0.32-0.32,0.89-0.48,1.7-0.48h0.63
			c0.82,0,1.39,0.16,1.71,0.48c0.32,0.32,0.48,0.89,0.48,1.72v2.15c0,0.81-0.16,1.38-0.48,1.69c-0.32,0.31-0.89,0.47-1.72,0.47H82.3
			z M82.51,50.11h0.22c0.24,0,0.4-0.06,0.48-0.18s0.12-0.44,0.12-0.94v-1.31c0-0.51-0.04-0.82-0.12-0.96
			c-0.08-0.13-0.24-0.2-0.48-0.2h-0.22c-0.24,0-0.4,0.07-0.48,0.2c-0.08,0.13-0.12,0.45-0.12,0.96v1.31c0,0.5,0.04,0.81,0.12,0.94
			S82.27,50.11,82.51,50.11z"/>
	</g>
	<g>
		<g>
			<g>
				<path class="st0" d="M72.48,106.06h-9.45c-5.89,0-10.69-4.8-10.69-10.69v-4.9c0-5.89,4.8-10.69,10.69-10.69h9.45
					c0.34,0,0.61,0.27,0.61,0.61v25.06C73.09,105.78,72.82,106.06,72.48,106.06z M63.03,81c-5.22,0-9.46,4.25-9.46,9.47v4.9
					c0,5.22,4.25,9.47,9.46,9.47h8.84V81H63.03z"/>
				<path class="st0" d="M72.48,106.43h-9.45c-6.1,0-11.06-4.96-11.06-11.07v-4.9c0-6.1,4.96-11.07,11.06-11.07h9.45
					c0.54,0,0.99,0.44,0.99,0.99v25.06C73.47,105.99,73.02,106.43,72.48,106.43z M63.03,80.15c-5.69,0-10.31,4.63-10.31,10.32v4.9
					c0,5.69,4.63,10.32,10.31,10.32h9.45c0.13,0,0.24-0.11,0.24-0.24V80.39c0-0.13-0.11-0.24-0.24-0.24H63.03z M72.24,105.21h-9.21
					c-5.43,0-9.84-4.41-9.84-9.84v-4.9c0-5.43,4.41-9.84,9.84-9.84h9.21V105.21z M63.03,81.37c-5.01,0-9.09,4.08-9.09,9.09v4.9
					c0,5.01,4.08,9.09,9.09,9.09h8.46V81.37H63.03z"/>
			</g>
		</g>
		<g>
			<g>
				<path class="st0" d="M86.36,102.04H72.48c-0.34,0-0.61-0.27-0.61-0.61v-3.89c0-0.34,0.27-0.61,0.61-0.61h13.88
					c1.41,0,2.56,1.15,2.56,2.56C88.92,100.89,87.77,102.04,86.36,102.04z M73.09,100.81h13.27c0.73,0,1.33-0.6,1.33-1.33
					c0-0.73-0.6-1.33-1.33-1.33H73.09V100.81z"/>
				<path class="st0" d="M86.36,102.41H72.48c-0.54,0-0.99-0.44-0.99-0.99v-3.89c0-0.54,0.44-0.99,0.99-0.99h13.88
					c1.62,0,2.93,1.31,2.93,2.93C89.29,101.1,87.98,102.41,86.36,102.41z M72.48,97.3c-0.13,0-0.24,0.11-0.24,0.24v3.89
					c0,0.13,0.11,0.24,0.24,0.24h13.88c1.2,0,2.18-0.98,2.18-2.18c0-1.2-0.98-2.18-2.18-2.18H72.48z M86.36,101.19H72.72v-3.41
					h13.65c0.94,0,1.71,0.77,1.71,1.71S87.3,101.19,86.36,101.19z M73.47,100.44h12.9c0.53,0,0.96-0.43,0.96-0.96
					s-0.43-0.96-0.96-0.96h-12.9V100.44z"/>
			</g>
		</g>
		<g>
			<g>
				<path class="st0" d="M86.36,88.9H72.48c-0.34,0-0.61-0.27-0.61-0.61V84.4c0-0.34,0.27-0.61,0.61-0.61h13.88
					c1.41,0,2.56,1.15,2.56,2.56C88.92,87.76,87.77,88.9,86.36,88.9z M73.09,87.68h13.27c0.73,0,1.33-0.6,1.33-1.33
					c0-0.73-0.6-1.33-1.33-1.33H73.09V87.68z"/>
				<path class="st0" d="M86.36,89.28H72.48c-0.54,0-0.99-0.44-0.99-0.99V84.4c0-0.54,0.44-0.99,0.99-0.99h13.88
					c1.62,0,2.93,1.31,2.93,2.93C89.29,87.96,87.98,89.28,86.36,89.28z M72.48,84.17c-0.13,0-0.24,0.11-0.24,0.24v3.89
					c0,0.13,0.11,0.24,0.24,0.24h13.88c1.2,0,2.18-0.98,2.18-2.18c0-1.2-0.98-2.18-2.18-2.18H72.48z M86.36,88.05H72.72v-3.41h13.65
					c0.94,0,1.71,0.77,1.71,1.71S87.3,88.05,86.36,88.05z M73.47,87.3h12.9c0.53,0,0.96-0.43,0.96-0.96s-0.43-0.96-0.96-0.96h-12.9
					V87.3z"/>
			</g>
		</g>
		<g>
			<g>
				<path class="st0" d="M52.95,96.71h-5.88c-0.34,0-0.61-0.27-0.61-0.61v-6.37c0-0.34,0.27-0.61,0.61-0.61h5.88
					c0.34,0,0.61,0.27,0.61,0.61v6.37C53.56,96.44,53.29,96.71,52.95,96.71z M47.69,95.49h4.65v-5.15h-4.65V95.49z"/>
				<path class="st0" d="M52.95,97.09h-5.88c-0.54,0-0.99-0.44-0.99-0.99v-6.37c0-0.54,0.44-0.99,0.99-0.99h5.88
					c0.54,0,0.99,0.44,0.99,0.99v6.37C53.94,96.64,53.5,97.09,52.95,97.09z M47.07,89.49c-0.13,0-0.24,0.11-0.24,0.24v6.37
					c0,0.13,0.11,0.24,0.24,0.24h5.88c0.13,0,0.24-0.11,0.24-0.24v-6.37c0-0.13-0.11-0.24-0.24-0.24H47.07z M52.71,95.86h-5.4v-5.9
					h5.4V95.86z M48.06,95.11h3.9v-4.4h-3.9V95.11z"/>
			</g>
		</g>
	</g>
	<g>
		<g>
			<g>
				<g>
					<path class="st0" d="M65.86,72.03L65.86,72.03c-6.97,0-24.65-1.53-30.73-2.68c-0.28-0.05-0.49-0.3-0.5-0.58
						C33.64,36.72,57.89,14.66,85.85,8.24c0.19-0.04,0.38,0,0.53,0.12c0.15,0.12,0.23,0.3,0.22,0.49
						c-0.24,7.69,1.13,14.56,2.58,21.83c0.84,4.23,1.71,8.61,2.23,13.15c1.47,12.84-6.4,24.16-19.14,27.54
						C70.63,71.81,68.48,72.03,65.86,72.03z M35.84,68.24c6.02,1.13,23.33,2.56,30.02,2.56h0c2.51,0,4.56-0.21,6.09-0.61
						c12.33-3.27,19.66-13.81,18.24-26.22c-0.51-4.49-1.38-8.84-2.22-13.05c-1.35-6.78-2.74-13.78-2.62-21.31
						C58.64,16.08,35.05,37.39,35.84,68.24z"/>
					<path class="st0" d="M65.86,72.41c-7.13,0-24.7-1.53-30.8-2.68c-0.46-0.09-0.79-0.47-0.8-0.94c-0.47-15.12,4.67-29,14.85-40.15
						c9.21-10.08,22.23-17.45,36.66-20.77c0.3-0.07,0.62,0.01,0.85,0.2c0.24,0.19,0.37,0.49,0.36,0.8
						c-0.24,7.65,1.13,14.49,2.57,21.74c0.85,4.26,1.72,8.63,2.24,13.18c1.49,13.03-6.49,24.52-19.42,27.95
						C70.7,72.18,68.51,72.41,65.86,72.41z M85.99,8.6c-0.02,0-0.04,0-0.05,0.01c-26.09,5.99-51.96,26.91-50.93,60.16
						c0,0.11,0.08,0.21,0.19,0.23c5.95,1.12,23.71,2.67,30.66,2.67h0c2.58,0,4.71-0.22,6.31-0.64
						c12.55-3.33,20.31-14.49,18.86-27.14c-0.52-4.52-1.38-8.88-2.22-13.1c-1.46-7.32-2.83-14.2-2.59-21.94
						c0-0.07-0.03-0.14-0.09-0.19C86.1,8.62,86.05,8.6,85.99,8.6z M65.86,71.18c-7.04,0-24.19-1.46-30.09-2.57l-0.3-0.06l-0.01-0.3
						c-0.83-32.23,24.42-52.86,49.8-59l0.47-0.11l-0.01,0.48c-0.12,7.49,1.26,14.47,2.61,21.22c0.84,4.21,1.7,8.56,2.22,13.09
						c1.44,12.6-6,23.3-18.51,26.62C70.49,70.97,68.41,71.18,65.86,71.18z M36.21,67.93c6.02,1.07,22.91,2.5,29.65,2.5
						c2.48,0,4.5-0.2,6-0.6C84,66.61,91.22,56.24,89.82,44.02c-0.52-4.5-1.38-8.83-2.21-13.02c-1.32-6.65-2.69-13.52-2.63-20.9
						C60.12,16.29,35.56,36.49,36.21,67.93z"/>
				</g>
			</g>
		</g>
		<g>
			<g>
				<path class="st0" d="M20.89,70.79c-1.73,0-3.16-0.15-4.24-0.43C8.22,68.11,3.01,60.62,3.98,52.11c0.34-2.98,0.91-5.85,1.46-8.62
					c0.94-4.74,1.83-9.22,1.68-14.22c-0.01-0.19,0.08-0.37,0.22-0.49c0.15-0.12,0.34-0.17,0.53-0.12
					c18.39,4.22,28.57,18.72,27.91,39.79c-0.01,0.29-0.22,0.53-0.5,0.58C31.3,69.78,25.47,70.79,20.89,70.79z M8.36,30.04
					c0.05,4.84-0.85,9.34-1.72,13.7c-0.55,2.75-1.11,5.59-1.45,8.52c-0.92,8.01,3.81,14.8,11.77,16.91
					c0.99,0.26,2.31,0.39,3.93,0.39c4.29,0,9.77-0.91,13.68-1.64C35.03,48.05,25.51,34.3,8.36,30.04z"/>
				<path class="st0" d="M20.89,71.16c-1.76,0-3.22-0.15-4.34-0.45C7.94,68.43,2.62,60.76,3.61,52.07c0.34-2.98,0.91-5.83,1.46-8.6
					c0.95-4.77,1.84-9.23,1.68-14.19c-0.01-0.31,0.12-0.6,0.36-0.79c0.24-0.19,0.55-0.27,0.85-0.2
					c18.58,4.26,28.86,18.9,28.21,40.17c-0.02,0.47-0.35,0.85-0.8,0.94C31.35,70.16,25.5,71.16,20.89,71.16z M7.74,29.02
					c-0.06,0-0.11,0.02-0.15,0.05c-0.06,0.05-0.09,0.12-0.09,0.19c0.16,5.05-0.74,9.54-1.68,14.3c-0.56,2.8-1.12,5.64-1.46,8.59
					C3.4,60.47,8.5,67.8,16.75,69.99c1.06,0.28,2.45,0.42,4.15,0.42c4.54,0,10.35-1,14.32-1.75c0.11-0.02,0.19-0.11,0.19-0.23
					c0.64-20.87-9.42-35.24-27.62-39.41C7.77,29.02,7.75,29.02,7.74,29.02z M20.89,69.94c-1.65,0-3.01-0.14-4.03-0.41
					C8.73,67.37,3.89,60.41,4.83,52.21c0.34-2.94,0.9-5.78,1.45-8.52c0.87-4.36,1.76-8.84,1.72-13.65l0-0.48l0.47,0.12
					c17.29,4.3,26.95,18.25,26.5,38.25l-0.01,0.3l-0.3,0.06C30.85,69,25.3,69.94,20.89,69.94z M8.74,30.52
					c-0.02,4.7-0.88,9.06-1.73,13.29c-0.55,2.76-1.11,5.59-1.44,8.49c-0.9,7.81,3.72,14.45,11.49,16.51
					c0.96,0.25,2.25,0.38,3.83,0.38c4.23,0,9.56-0.88,13.31-1.58C34.55,48.32,25.28,34.84,8.74,30.52z"/>
			</g>
		</g>
		<g>
			<g>
				<path class="st0" d="M35.17,69.04c-0.04,0-0.09,0-0.13-0.02c-0.21-0.05-21.06-4.94-22.85-24.45c-0.03-0.34,0.22-0.63,0.55-0.67
					c0.33-0.03,0.64,0.22,0.67,0.55c1.7,18.63,21.69,23.32,21.89,23.36c0.33,0.07,0.54,0.4,0.46,0.73
					C35.71,68.85,35.46,69.04,35.17,69.04z"/>
				<path class="st0" d="M35.17,69.42c-0.07,0-0.14-0.01-0.22-0.02c-0.21-0.05-21.33-5.04-23.14-24.78
					c-0.05-0.54,0.35-1.02,0.89-1.07c0.25-0.03,0.51,0.05,0.72,0.22c0.21,0.17,0.33,0.41,0.36,0.67c1.67,18.3,21.4,22.99,21.6,23.03
					c0.26,0.06,0.48,0.21,0.62,0.43c0.14,0.22,0.19,0.49,0.13,0.74C36.04,69.1,35.64,69.42,35.17,69.42z M12.81,44.28
					c-0.01,0-0.01,0-0.02,0c-0.13,0.01-0.23,0.13-0.22,0.26c1.76,19.21,22.35,24.07,22.56,24.12l0.05,0.01
					c0.11,0,0.21-0.08,0.23-0.19c0.01-0.06,0-0.12-0.03-0.18c-0.03-0.05-0.09-0.09-0.15-0.1c-0.21-0.05-20.46-4.86-22.19-23.7
					c-0.01-0.06-0.04-0.12-0.09-0.16C12.93,44.32,12.88,44.28,12.81,44.28z"/>
			</g>
		</g>
		<g>
			<g>
				<path class="st0" d="M47.07,93.53H36.13c-3.8-0.16-6.81-1.73-8.49-4.41c-1.98-3.14-2.01-7.52-0.08-12.01
					c1.68-3.68,4.49-6.37,7.24-8.81c0.25-0.23,0.64-0.2,0.86,0.05c0.23,0.25,0.2,0.64-0.05,0.86c-2.64,2.35-5.35,4.94-6.93,8.39
					c-1.76,4.11-1.76,8.07,0,10.86c1.48,2.36,4.07,3.69,7.48,3.83l10.91,0c0.34,0,0.61,0.27,0.61,0.61S47.41,93.53,47.07,93.53z"/>
				<path class="st0" d="M47.07,93.9H36.13c-3.94-0.17-7.06-1.8-8.81-4.58c-2.04-3.24-2.08-7.75-0.11-12.36
					c1.71-3.76,4.56-6.48,7.33-8.95c0.19-0.17,0.45-0.27,0.71-0.25c0.26,0.01,0.51,0.13,0.68,0.33c0.18,0.2,0.26,0.45,0.25,0.71
					c-0.02,0.26-0.13,0.51-0.33,0.68c-2.61,2.33-5.29,4.88-6.83,8.27c-1.71,3.99-1.72,7.82-0.03,10.51c1.42,2.25,3.9,3.52,7.18,3.66
					l10.9,0c0.54,0,0.99,0.44,0.99,0.99S47.62,93.9,47.07,93.9z M35.2,68.52c-0.06,0-0.11,0.02-0.15,0.06
					c-2.71,2.41-5.5,5.07-7.15,8.69c-1.87,4.37-1.85,8.62,0.06,11.66c1.62,2.57,4.53,4.07,8.19,4.23l10.92,0
					c0.13,0,0.24-0.11,0.24-0.24s-0.11-0.24-0.24-0.24l-10.91,0c-3.56-0.15-6.25-1.54-7.8-4.01c-1.83-2.9-1.83-6.99-0.03-11.21
					c1.61-3.52,4.35-6.14,7.02-8.52c0.05-0.04,0.08-0.1,0.08-0.16c0-0.06-0.02-0.12-0.06-0.17c-0.04-0.05-0.1-0.08-0.17-0.08
					C35.21,68.52,35.2,68.52,35.2,68.52z"/>
			</g>
		</g>
	</g>
	<path class="st1" d="M49.62,86.35c3.17,0,5.75,2.57,5.75,5.75c0,3.17-2.57,5.74-5.75,5.74c-3.17,0-5.74-2.57-5.74-5.74
		C43.87,88.92,46.44,86.35,49.62,86.35L49.62,86.35z M49.62,86.35"/>
	<path class="st2" d="M49.62,89.37c1.5,0,2.72,1.22,2.72,2.72c0,1.5-1.22,2.72-2.72,2.72c-1.5,0-2.72-1.22-2.72-2.72
		C46.89,90.59,48.11,89.37,49.62,89.37L49.62,89.37z M49.62,89.37"/>
</g>
</svg>
