<?xml version="1.0" encoding="utf-8"?>
<!-- Generator: Adobe Illustrator 27.0.0, SVG Export Plug-In . SVG Version: 6.00 Build 0)  -->
<svg version="1.1" id="Layer_1" xmlns="http://www.w3.org/2000/svg" xmlns:xlink="http://www.w3.org/1999/xlink" x="0px" y="0px"
	 viewBox="0 0 85.95 94.25" style="enable-background:new 0 0 85.95 94.25;" xml:space="preserve">
<style type="text/css">
	.st0{fill:#29B0E4;}
	.st1{fill-rule:evenodd;clip-rule:evenodd;fill:#CDCDCF;}
	.st2{fill-rule:evenodd;clip-rule:evenodd;fill:#3D4452;}
</style>
<g>
	<path class="st0" d="M65.47,34.33h-7.19h-0.25v-0.25v-7.19c0-2.24-1.82-4.07-4.07-4.07H24.99c-2.24,0-4.07,1.82-4.07,4.07v40.48
		c0,2.24,1.82,4.07,4.07,4.07h40.48c2.24,0,4.07-1.82,4.07-4.07V38.4C69.53,36.16,67.71,34.33,65.47,34.33z M23.3,28.33v-1.44
		c0-0.93,0.76-1.69,1.69-1.69h28.97c0.93,0,1.69,0.76,1.69,1.69v1.44v0.25H55.4H23.55H23.3V28.33z M44.13,69.05H24.99
		c-0.93,0-1.69-0.76-1.69-1.69v-4.32V62.8h0.25h20.33h0.25v0.25v4.32c0,0.46,0.08,0.92,0.23,1.35l0.12,0.33H44.13z M44.14,38.4
		v21.77v0.25h-0.25H23.55H23.3v-0.25V31.2v-0.25h0.25H55.4h0.25v0.25v2.88v0.25H55.4H48.2C45.96,34.33,44.14,36.16,44.14,38.4z
		 M67.15,65.92v1.44c0,0.93-0.76,1.69-1.69,1.69H48.2c-0.93,0-1.69-0.76-1.69-1.69v-1.44v-0.25h0.25H66.9h0.25V65.92z M67.15,42.71
		v20.33v0.25H66.9H46.76h-0.25v-0.25V42.71v-0.25h0.25H66.9h0.25V42.71z M67.15,39.84v0.25H66.9H46.76h-0.25v-0.25V38.4
		c0-0.93,0.76-1.69,1.69-1.69h17.27c0.93,0,1.69,0.76,1.69,1.69V39.84z"/>
	<path class="st0" d="M51.08,48.22h11.51c0.66,0,1.19-0.53,1.19-1.19c0-0.66-0.53-1.19-1.19-1.19H51.08c-0.66,0-1.19,0.53-1.19,1.19
		C49.89,47.68,50.42,48.22,51.08,48.22z"/>
	<path class="st0" d="M51.08,53.97h5.75c0.66,0,1.19-0.53,1.19-1.19c0-0.66-0.53-1.19-1.19-1.19h-5.75c-0.66,0-1.19,0.53-1.19,1.19
		C49.89,53.44,50.42,53.97,51.08,53.97z"/>
	<g>
		<path class="st1" d="M22.36,35.68c3.28,0,5.95,2.66,5.95,5.95c0,3.28-2.66,5.94-5.95,5.94c-3.28,0-5.94-2.66-5.94-5.94
			C16.42,38.34,19.08,35.68,22.36,35.68L22.36,35.68z M22.36,35.68"/>
		<path class="st2" d="M22.36,38.81c1.56,0,2.82,1.26,2.82,2.82c0,1.55-1.26,2.82-2.82,2.82c-1.55,0-2.82-1.26-2.82-2.82
			C19.54,40.07,20.81,38.81,22.36,38.81L22.36,38.81z M22.36,38.81"/>
	</g>
</g>
</svg>
