<?xml version="1.0" encoding="utf-8"?>
<!-- Generator: Adobe Illustrator 27.0.0, SVG Export Plug-In . SVG Version: 6.00 Build 0)  -->
<svg version="1.1" id="Layer_1" xmlns="http://www.w3.org/2000/svg" xmlns:xlink="http://www.w3.org/1999/xlink" x="0px" y="0px"
	 viewBox="0 0 22.2 26.75" style="enable-background:new 0 0 22.2 26.75;" xml:space="preserve">
<style type="text/css">
	.st0{fill:#29B0E4;}
	.st1{fill-rule:evenodd;clip-rule:evenodd;fill:#CBCDCE;}
	.st2{fill-rule:evenodd;clip-rule:evenodd;fill:#3D4452;}
</style>
<g>
	<g>
		<g>
			<path class="st0" d="M11.1,5c-3.59,0-6.51,2.92-6.51,6.51c0,3.46,5.84,9.79,6.09,10.05c0.11,0.12,0.26,0.19,0.43,0.19
				s0.32-0.07,0.43-0.19c0.25-0.27,6.09-6.59,6.09-10.05C17.61,7.92,14.69,5,11.1,5z M11.1,20.3c-1.81-2.04-5.35-6.49-5.35-8.79
				c0-2.95,2.4-5.35,5.35-5.35c2.95,0,5.35,2.4,5.35,5.35C16.45,13.81,12.91,18.26,11.1,20.3z"/>
			<path class="st0" d="M11.1,21.9c-0.2,0-0.39-0.08-0.53-0.23c-0.63-0.68-6.13-6.73-6.13-10.16c0-3.68,2.99-6.66,6.66-6.66
				s6.66,2.99,6.66,6.66c0,3.52-5.88,9.89-6.13,10.16C11.49,21.82,11.3,21.9,11.1,21.9z M11.1,5.15c-3.51,0-6.36,2.86-6.36,6.37
				c0,3.37,5.8,9.69,6.05,9.95c0.17,0.17,0.47,0.17,0.64,0c0.24-0.27,6.05-6.55,6.05-9.95C17.46,8,14.61,5.15,11.1,5.15z
				 M11.1,20.53l-0.11-0.13c-0.55-0.62-5.38-6.13-5.38-8.89c0-3.03,2.47-5.5,5.5-5.5s5.5,2.47,5.5,5.5c0,2.75-4.83,8.27-5.38,8.89
				L11.1,20.53z M11.1,6.31c-2.87,0-5.2,2.33-5.2,5.2c0,1.98,2.78,5.82,5.2,8.57c2.42-2.75,5.2-6.59,5.2-8.57
				C16.3,8.64,13.96,6.31,11.1,6.31z"/>
		</g>
	</g>
	<g>
		<path class="st1" d="M11.1,9.21c1.29,0,2.34,1.05,2.34,2.34c0,1.29-1.05,2.33-2.34,2.33c-1.29,0-2.33-1.05-2.33-2.33
			C8.76,10.25,9.81,9.21,11.1,9.21L11.1,9.21z M11.1,9.21"/>
		<path class="st2" d="M11.1,10.44c0.61,0,1.11,0.5,1.11,1.11c0,0.61-0.5,1.11-1.11,1.11c-0.61,0-1.11-0.5-1.11-1.11
			C9.99,10.93,10.49,10.44,11.1,10.44L11.1,10.44z M11.1,10.44"/>
	</g>
</g>
</svg>
