<?xml version="1.0" encoding="utf-8"?>
<!-- Generator: Adobe Illustrator 27.0.0, SVG Export Plug-In . SVG Version: 6.00 Build 0)  -->
<svg version="1.1" id="Layer_1" xmlns="http://www.w3.org/2000/svg" xmlns:xlink="http://www.w3.org/1999/xlink" x="0px" y="0px"
	 viewBox="0 0 22.2 17.55" style="enable-background:new 0 0 22.2 17.55;" xml:space="preserve">
<style type="text/css">
	.st0{fill:#29B0E4;}
	.st1{fill-rule:evenodd;clip-rule:evenodd;fill:#CDCDCF;}
	.st2{fill-rule:evenodd;clip-rule:evenodd;fill:#3D4452;}
</style>
<g>
	<path class="st0" d="M16.79,2.84H5.4c-1.36,0-2.46,1.02-2.46,2.28v7.32c0,1.26,1.1,2.28,2.46,2.28h11.39
		c1.36,0,2.46-1.02,2.46-2.28V5.12C19.26,3.86,18.15,2.84,16.79,2.84z M12.16,8.95c-0.27,0.28-0.65,0.44-1.06,0.44
		c-0.41,0-0.79-0.16-1.06-0.44l-4.59-4.8h11.3L12.16,8.95z M16.79,13.4H5.4c-0.58,0-1.06-0.43-1.06-0.96V5.12
		c0-0.04,0-0.09,0.01-0.13L9,9.83c0.53,0.56,1.3,0.87,2.1,0.87s1.57-0.32,2.1-0.87l4.64-4.85c0.01,0.04,0.01,0.09,0.01,0.13v7.32
		C17.85,12.97,17.38,13.4,16.79,13.4z"/>
	<path class="st1" d="M11.1,7.43c1.3,0,2.35,1.05,2.35,2.35c0,1.29-1.05,2.35-2.35,2.35c-1.3,0-2.35-1.05-2.35-2.35
		C8.75,8.48,9.8,7.43,11.1,7.43L11.1,7.43z M11.1,7.43"/>
	<path class="st2" d="M11.1,8.66c0.61,0,1.11,0.5,1.11,1.11c0,0.61-0.5,1.11-1.11,1.11c-0.61,0-1.11-0.5-1.11-1.11
		C9.99,9.16,10.48,8.66,11.1,8.66L11.1,8.66z M11.1,8.66"/>
</g>
</svg>
