<?xml version="1.0" encoding="utf-8"?>
<!-- Generator: Adobe Illustrator 27.0.0, SVG Export Plug-In . SVG Version: 6.00 Build 0)  -->
<svg version="1.1" id="Layer_1" xmlns="http://www.w3.org/2000/svg" xmlns:xlink="http://www.w3.org/1999/xlink" x="0px" y="0px"
	 viewBox="0 0 52.33 26.75" style="enable-background:new 0 0 52.33 26.75;" xml:space="preserve">
<style type="text/css">
	.st0{fill:#29B0E4;}
	.st1{fill:#3D4553;}
</style>
<g>
	<path class="st0" d="M47.93,24.07l-43.54,0c-0.58,0-1.06-0.47-1.06-1.06l0-3.46c0-0.58,0.47-1.06,1.06-1.06l43.54,0
		c0.58,0,1.06,0.47,1.06,1.06v3.46C48.99,23.59,48.52,24.07,47.93,24.07z"/>
	<path class="st0" d="M42.54,2.74c1.24,0.11,2.35,0.53,3.35,1.23c1.28,0.9,2.22,2.03,2.72,3.48c0.2,0.58,0.3,1.18,0.34,1.8
		c0.05,0.88-0.05,1.75-0.33,2.59c-0.33,0.98-0.88,1.82-1.62,2.57c-0.83,0.84-1.8,1.48-2.95,1.85c-0.49,0.16-1,0.26-1.52,0.32
		c-0.47,0.05-0.93,0.06-1.4,0.03c-1.68-0.09-3.15-0.68-4.39-1.75c-0.95-0.82-1.68-1.78-2.08-2.95c-0.34-0.97-0.44-1.97-0.33-2.99
		c0.14-1.36,0.65-2.56,1.57-3.62c0.86-0.99,1.9-1.75,3.18-2.2c0.52-0.18,1.34-0.35,2.1-0.38C41.92,2.67,42.5,2.73,42.54,2.74z
		 M41.61,15.05c3.03,0.07,5.68-2.38,5.72-5.33c0.04-3.06-2.67-5.44-5.58-5.49c-3.2-0.06-5.77,2.48-5.83,5.29
		C35.85,12.54,38.53,15.11,41.61,15.05z"/>
	<path class="st0" d="M26.1,2.73c2.71,0.37,4.59,1.8,5.78,4.1c0.37,0.72,0.52,1.49,0.59,2.29c0.02,0.2,0.02,0.4,0.02,0.61
		c0,2.24,0,4.48,0,6.72c0,0.13-0.03,0.17-0.18,0.17c-0.44-0.01-0.88-0.01-1.32,0c-0.12,0-0.15-0.03-0.15-0.15
		c0-2.26,0.02-4.52,0-6.78c-0.02-2.25-1.16-3.87-3.22-4.92c-0.68-0.35-1.43-0.52-2.21-0.52c-1.48-0.01-2.95,0-4.43-0.01
		c-0.17,0-0.15,0.09-0.15,0.19c0,2.53,0,5.07,0,7.6c0,1.47,0,2.95,0,4.42c0,0.13-0.03,0.16-0.17,0.16c-0.44-0.01-0.87-0.01-1.31,0
		c-0.14,0-0.18-0.04-0.18-0.17c0-4.51,0-9.03,0-13.54c0-0.07,0-0.14,0-0.22c2.18,0,4.36,0,6.54,0C25.86,2.71,25.98,2.75,26.1,2.73z"
		/>
	<path class="st1" d="M18.86,21.37c0-0.42,0-0.85,0-1.27c0-0.1,0.03-0.13,0.14-0.13c0.78,0.01,1.56,0.01,2.34,0.01
		c0.1,0,0.2,0.01,0.3,0.03c0.29,0.06,0.47,0.23,0.51,0.51c0.04,0.27,0.06,0.54-0.21,0.74c-0.05,0.04-0.02,0.06,0.02,0.08
		c0.22,0.09,0.29,0.27,0.31,0.47c0.02,0.16,0.01,0.33-0.02,0.49c-0.05,0.24-0.21,0.38-0.46,0.43c-0.18,0.04-0.37,0.06-0.56,0.06
		c-0.75,0-1.49,0-2.24,0.01c-0.12,0-0.14-0.04-0.14-0.14C18.86,22.22,18.86,21.79,18.86,21.37z M19.42,21.53
		c-0.09,0-0.14,0.02-0.14,0.12c0.01,0.22,0.01,0.43,0,0.65c0,0.09,0.03,0.13,0.13,0.13c0.65-0.01,1.31,0.01,1.96-0.02
		c0.38-0.02,0.48-0.12,0.47-0.49c-0.01-0.27-0.12-0.38-0.4-0.38C21.11,21.53,19.76,21.53,19.42,21.53z M19.43,20.33
		c-0.11,0-0.15,0.03-0.15,0.14c0.01,0.19,0.01,0.38,0,0.56c0,0.1,0.03,0.13,0.14,0.13c0.61,0,1.21,0,1.82-0.01
		c0.07,0,0.14-0.01,0.21-0.02c0.23-0.05,0.3-0.19,0.27-0.5c-0.02-0.19-0.12-0.28-0.35-0.28C21.05,20.34,19.76,20.33,19.43,20.33z"/>
	<path class="st1" d="M25.46,22.8c-0.36-0.03-0.76,0.01-1.15-0.05c-0.36-0.05-0.56-0.24-0.62-0.58c-0.08-0.53-0.08-1.07,0.01-1.6
		c0.05-0.33,0.24-0.51,0.59-0.55c0.79-0.08,1.58-0.09,2.37-0.01c0.41,0.04,0.6,0.24,0.65,0.63c0.06,0.48,0.06,0.97,0,1.46
		c-0.05,0.42-0.21,0.59-0.65,0.65C26.28,22.81,25.89,22.79,25.46,22.8z M25.44,22.43c0.4,0,0.73,0,1.06-0.04
		c0.29-0.04,0.37-0.13,0.4-0.4c0.04-0.38,0.04-0.76,0.01-1.14c-0.03-0.38-0.12-0.47-0.52-0.49c-0.34-0.01-0.69-0.02-1.03-0.02
		c-0.29,0-0.58,0-0.86,0.04c-0.27,0.04-0.34,0.12-0.37,0.38c-0.05,0.43-0.04,0.85,0,1.28c0.02,0.23,0.1,0.31,0.33,0.34
		C24.8,22.43,25.15,22.41,25.44,22.43z"/>
	<path class="st1" d="M15.52,22.8c-0.36-0.03-0.75,0.01-1.14-0.05c-0.37-0.05-0.59-0.24-0.63-0.59c-0.07-0.55-0.08-1.1,0.02-1.64
		c0.05-0.28,0.24-0.45,0.54-0.5c0.09-0.02,0.19-0.03,0.29-0.03c0.7-0.03,1.41-0.06,2.11,0.02c0.43,0.05,0.6,0.23,0.66,0.63
		c0.07,0.5,0.07,1,0,1.5c-0.06,0.4-0.23,0.55-0.65,0.61C16.33,22.8,15.94,22.79,15.52,22.8z M15.58,20.32c-0.34,0-0.69,0-1.04,0.06
		c-0.25,0.04-0.32,0.11-0.36,0.35c-0.06,0.45-0.06,0.89,0,1.34c0.03,0.22,0.1,0.29,0.33,0.31c0.69,0.07,1.38,0.08,2.08,0
		c0.25-0.03,0.33-0.11,0.36-0.35c0.06-0.41,0.04-0.82,0.02-1.22c-0.02-0.33-0.13-0.43-0.48-0.45
		C16.18,20.34,15.88,20.32,15.58,20.32z"/>
	<path class="st1" d="M11.94,21.56c0.27,0.11,0.34,0.28,0.34,0.49c0,0.2,0,0.4,0.01,0.59c0,0.1-0.02,0.14-0.14,0.13
		c-0.36-0.01-0.29,0.03-0.3-0.27c0-0.16,0-0.32-0.02-0.48c-0.02-0.18-0.12-0.27-0.31-0.3c-0.1-0.01-0.2-0.02-0.3-0.02
		c-0.57,0-1.14,0-1.7-0.01c-0.12,0-0.16,0.03-0.16,0.15c0.01,0.27,0,0.54,0,0.81c0,0.09-0.03,0.12-0.12,0.12
		c-0.37-0.01-0.3,0.04-0.31-0.27c0-0.79,0-1.59,0-2.38c0-0.12,0.03-0.16,0.16-0.16c0.73,0.01,1.45,0,2.18,0.01
		c0.16,0,0.32,0.01,0.49,0.03c0.3,0.04,0.48,0.19,0.55,0.47c0.06,0.24,0.06,0.49,0.01,0.73C12.27,21.38,12.14,21.48,11.94,21.56z
		 M9.5,20.33c-0.1,0-0.15,0.03-0.14,0.13c0.01,0.26,0,0.52,0,0.78c0,0.08,0.03,0.12,0.12,0.12c0.62,0,1.24,0.01,1.85-0.01
		c0.49-0.01,0.57-0.11,0.56-0.58c-0.01-0.3-0.11-0.41-0.43-0.42C11.14,20.34,9.83,20.33,9.5,20.33z"/>
	<path class="st1" d="M36.9,22.8c-0.37-0.02-0.74,0-1.11-0.05c-0.38-0.05-0.57-0.19-0.63-0.55c-0.09-0.57-0.09-1.14,0.02-1.71
		c0.05-0.27,0.25-0.41,0.52-0.46c0.43-0.07,0.87-0.06,1.3-0.06c0.28,0,0.57,0,0.85,0.04c0.51,0.07,0.75,0.36,0.67,0.85
		c-0.01,0.04-0.02,0.07-0.07,0.07c-0.03,0-0.06,0-0.09,0c-0.22,0-0.22,0-0.24-0.2c-0.02-0.24-0.08-0.32-0.33-0.34
		c-0.62-0.07-1.24-0.07-1.87,0c-0.26,0.03-0.32,0.1-0.35,0.34c-0.07,0.46-0.04,0.91,0.01,1.37c0.02,0.2,0.1,0.26,0.31,0.29
		c0.3,0.04,0.61,0.03,0.91,0.04c0.3,0.01,0.6-0.01,0.9-0.02c0.34-0.02,0.41-0.09,0.43-0.41c0-0.06-0.03-0.16,0.06-0.18
		c0.11-0.02,0.22-0.02,0.33,0c0.04,0.01,0.03,0.06,0.03,0.09c-0.01,0.12-0.01,0.23-0.03,0.35c-0.05,0.31-0.2,0.45-0.53,0.5
		C37.63,22.8,37.26,22.78,36.9,22.8z"/>
	<path class="st1" d="M43.31,22.78c-0.14,0-0.14-0.04-0.21-0.19c-0.04-0.09-0.08-0.15-0.11-0.21c-0.07-0.13-0.19-0.18-0.33-0.18
		c-0.36,0-1.43,0-1.99-0.01c-0.11,0-0.17,0.03-0.23,0.13c-0.07,0.11-0.12,0.2-0.18,0.3c-0.06,0.12-0.14,0.17-0.28,0.16
		c-0.3-0.01-0.3,0-0.15-0.25c0.48-0.8,0.92-1.54,1.4-2.35c0.07-0.11,0.15-0.27,0.46-0.27c0.36,0,0.39,0.13,0.56,0.42
		c0.42,0.77,0.89,1.51,1.34,2.27c0.1,0.17,0.1,0.17-0.1,0.17C43.47,22.78,43.35,22.78,43.31,22.78z M41.68,21.83
		c0.27,0,0.55,0,0.82,0c0.11,0,0.15-0.01,0.09-0.13c-0.26-0.43-0.51-0.85-0.76-1.28c-0.08-0.14-0.17-0.14-0.25,0
		c-0.26,0.43-0.52,0.86-0.78,1.29c-0.07,0.11-0.02,0.12,0.08,0.12C41.14,21.83,41.41,21.83,41.68,21.83z"/>
	<path class="st1" d="M30.27,19.97c0.51,0,1.01,0.01,1.52,0c0.21,0,0.14,0.12,0.15,0.22c0.01,0.11-0.02,0.15-0.15,0.15
		c-0.39-0.01-0.78,0-1.17-0.01c-0.12,0-0.15,0.04-0.14,0.15c0,0.71,0,1.42,0,2.14c0,0.13-0.03,0.18-0.17,0.17
		c-0.29-0.01-0.26,0.03-0.26-0.25c0-0.67,0-1.35,0-2.02c0-0.19,0-0.19-0.21-0.19c-0.37,0-0.74,0-1.11,0.01
		c-0.18,0.01-0.16-0.09-0.17-0.2c-0.01-0.12,0.02-0.17,0.16-0.17C29.25,19.97,29.76,19.97,30.27,19.97z"/>
	<path class="st1" d="M33.65,21.38c0,0.42,0,0.85,0,1.27c0,0.11-0.04,0.14-0.15,0.14c-0.32-0.01-0.28,0.03-0.28-0.26
		c0-0.8,0-1.6,0-2.4c0-0.13,0.04-0.17,0.17-0.16c0.29,0.01,0.25-0.03,0.25,0.24C33.65,20.59,33.65,20.98,33.65,21.38z"/>
	<path class="st1" d="M26.1,19.37c-0.01,0.05-0.04,0.07-0.07,0.08c-0.18,0.1-0.37,0.2-0.55,0.31c-0.14,0.08-0.16-0.04-0.22-0.1
		c-0.06-0.06-0.07-0.1,0.01-0.17c0.17-0.13,0.33-0.26,0.48-0.39c0.08-0.07,0.12-0.06,0.18,0.02C25.98,19.22,26.04,19.3,26.1,19.37z"
		/>
	<path class="st0" d="M16.7,9.83c0,2.21,0,4.42,0,6.63c0,0.12-0.04,0.15-0.16,0.15c-2.02,0-4.04,0.02-6.06-0.01
		c-1.86-0.03-3.46-0.69-4.8-1.91c-0.88-0.8-1.54-1.73-1.92-2.84c-0.24-0.69-0.35-1.41-0.35-2.13c0-2.18,0-4.36,0-6.53
		c0-0.11,0.03-0.15,0.16-0.15c0.45,0.01,0.89,0.01,1.34,0c0.13,0,0.15,0.04,0.15,0.15c0,2.13-0.01,4.26,0,6.39
		c0.01,2.22,1.11,3.82,3.11,4.89c0.56,0.3,1.17,0.45,1.8,0.53c0.3,0.04,0.6,0.04,0.9,0.04c1.34,0,2.69,0,4.03,0.01
		c0.14,0,0.15-0.07,0.15-0.17c0-3.13,0-6.25,0-9.38c0-0.77,0-1.53,0-2.3c0-0.12,0.03-0.17,0.17-0.17c0.44,0.01,0.87,0.01,1.31,0
		c0.13,0,0.17,0.03,0.17,0.16C16.7,5.41,16.7,7.62,16.7,9.83z"/>
	<path class="st0" d="M48.24,2.68c0.41,0,0.72,0.3,0.72,0.67c0,0.38-0.31,0.68-0.72,0.68c-0.41,0-0.73-0.3-0.73-0.68
		C47.51,2.98,47.83,2.68,48.24,2.68L48.24,2.68z M48.23,2.82c-0.31,0-0.54,0.24-0.54,0.54c0,0.3,0.23,0.54,0.55,0.54
		c0.31,0,0.54-0.24,0.54-0.54C48.78,3.06,48.55,2.82,48.23,2.82L48.23,2.82z M48.12,3.7h-0.16V3.04c0.06-0.01,0.16-0.02,0.27-0.02
		c0.13,0,0.19,0.02,0.25,0.05c0.04,0.03,0.07,0.08,0.07,0.14c0,0.08-0.06,0.14-0.15,0.16v0.01c0.07,0.02,0.11,0.07,0.13,0.16
		c0.02,0.1,0.03,0.14,0.05,0.16H48.4c-0.02-0.02-0.03-0.08-0.06-0.16c-0.01-0.07-0.06-0.11-0.15-0.11h-0.08V3.7z M48.13,3.33l0.08,0
		c0.09,0,0.16-0.03,0.16-0.1c0-0.06-0.05-0.1-0.15-0.1c-0.04,0-0.07,0-0.09,0.01V3.33z"/>
</g>
</svg>
