<?xml version="1.0" encoding="utf-8"?>
<!-- Generator: Adobe Illustrator 27.0.0, SVG Export Plug-In . SVG Version: 6.00 Build 0)  -->
<svg version="1.1" id="Layer_1" xmlns="http://www.w3.org/2000/svg" xmlns:xlink="http://www.w3.org/1999/xlink" x="0px" y="0px"
	 viewBox="0 0 22.2 26.75" style="enable-background:new 0 0 22.2 26.75;" xml:space="preserve">
<style type="text/css">
	.st0{fill:#29B0E4;}
	.st1{fill-rule:evenodd;clip-rule:evenodd;fill:#CBCDCE;}
	.st2{fill-rule:evenodd;clip-rule:evenodd;fill:#3D4452;}
</style>
<g>
	<path class="st0" d="M14.26,4.64H7.94c-1.36,0-2.47,1.21-2.47,2.7v12.08c0,1.49,1.11,2.7,2.47,2.7h6.32c1.36,0,2.47-1.21,2.47-2.7
		V7.34C16.73,5.85,15.62,4.64,14.26,4.64z M6.85,7.34c0-0.67,0.49-1.21,1.09-1.21h6.32c0.6,0,1.09,0.54,1.09,1.21v9.52h-8.5V7.34z
		 M15.35,18.34v1.07c0,0.67-0.49,1.21-1.09,1.21H7.94c-0.6,0-1.09-0.54-1.09-1.21v-1.07H15.35z"/>
	<path class="st1" d="M11.1,15.08c1.36,0,2.47,1.1,2.47,2.47c0,1.36-1.1,2.46-2.47,2.46c-1.36,0-2.46-1.1-2.46-2.46
		C8.63,16.18,9.74,15.08,11.1,15.08L11.1,15.08z M11.1,15.08"/>
	<path class="st2" d="M11.1,16.38c0.64,0,1.17,0.52,1.17,1.17c0,0.64-0.52,1.17-1.17,1.17c-0.64,0-1.17-0.52-1.17-1.17
		C9.93,16.9,10.45,16.38,11.1,16.38L11.1,16.38z M11.1,16.38"/>
</g>
</svg>
