<?xml version="1.0" encoding="utf-8"?>
<!-- Generator: Adobe Illustrator 27.0.0, SVG Export Plug-In . SVG Version: 6.00 Build 0)  -->
<svg version="1.1" id="Layer_1" xmlns="http://www.w3.org/2000/svg" xmlns:xlink="http://www.w3.org/1999/xlink" x="0px" y="0px"
	 viewBox="0 0 61 57.28" style="enable-background:new 0 0 61 57.28;" xml:space="preserve">
<style type="text/css">
	.st0{fill:#29B0E4;}
	.st1{fill-rule:evenodd;clip-rule:evenodd;fill:#CDCDCF;}
	.st2{fill-rule:evenodd;clip-rule:evenodd;fill:#3D4452;}
</style>
<g>
	<g>
		<path class="st0" d="M49.45,37.18H30.22V14.82h10.74l0.03,0.09c0.27,0.8,0.9,1.44,1.7,1.7l0.09,0.03v8.22l-0.04,0.04l-2.18,2.18
			c-0.07,0.07-0.12,0.15-0.16,0.23c-0.01,0.03-0.02,0.07-0.03,0.12l-0.01,0.05c0,0.02-0.01,0.04-0.01,0.06
			c-0.01,0.02-0.01,0.04-0.01,0.06c0,0.1,0.02,0.2,0.05,0.29l1.22,2.99c0.15,0.38,0.6,0.57,0.98,0.41c0.19-0.08,0.33-0.22,0.41-0.4
			s0.08-0.39,0-0.58l-1.03-2.53l1.55-1.55l1.55,1.55l-1.03,2.53c-0.08,0.19-0.07,0.39,0,0.58s0.22,0.33,0.41,0.4
			c0.38,0.15,0.83-0.04,0.98-0.41l1.22-2.99c0.04-0.09,0.06-0.19,0.06-0.29c0-0.01-0.01-0.03-0.01-0.06
			c-0.01-0.02-0.01-0.04-0.01-0.06l-0.01-0.05c-0.01-0.04-0.01-0.08-0.02-0.12c-0.04-0.09-0.09-0.17-0.16-0.24l-0.02-0.02l-2.2-2.2
			v-8.22l0.09-0.03c1.11-0.37,1.85-1.39,1.85-2.54c0-1.48-1.21-2.69-2.69-2.69c-1.15,0-2.17,0.74-2.54,1.85l-0.03,0.09H30.22v-0.43
			c0-2.37-1.92-4.29-4.29-4.29H10.09c-2.37,0-4.29,1.92-4.29,4.29v35.05c0,0.41,0.34,0.75,0.75,0.75h42.9
			c3.17,0,5.75-2.58,5.75-5.75S52.62,37.18,49.45,37.18z M43.53,12.88c0.65,0,1.19,0.53,1.19,1.18s-0.53,1.19-1.19,1.19
			c-0.65,0-1.18-0.53-1.18-1.19S42.88,12.88,43.53,12.88z M28.72,47.18H7.3v-1.56h21.42V47.18z M28.72,44.12H7.3V12.88
			c0-1.54,1.25-2.79,2.79-2.79h15.84c1.54,0,2.79,1.25,2.79,2.79V44.12z M49.45,47.18H30.22v-3.5h0.22c0.41,0,0.75-0.34,0.75-0.75
			c0-0.41-0.34-0.75-0.75-0.75h-0.22v-3.5h19.23c2.34,0,4.25,1.91,4.25,4.25S51.79,47.18,49.45,47.18z"/>
		<path class="st0" d="M49.26,40.25c-1.48,0-2.69,1.21-2.69,2.69c0,1.48,1.21,2.69,2.69,2.69c1.48,0,2.69-1.21,2.69-2.69
			C51.94,41.45,50.74,40.25,49.26,40.25z M49.26,44.12c-0.65,0-1.19-0.53-1.19-1.19s0.53-1.18,1.19-1.18c0.65,0,1.18,0.53,1.18,1.18
			S49.91,44.12,49.26,44.12z"/>
		<path class="st0" d="M40.73,42.18h-2.06c-0.42,0-0.75,0.34-0.75,0.75c0,0.42,0.34,0.75,0.75,0.75h2.06c0.42,0,0.75-0.34,0.75-0.75
			C41.48,42.52,41.15,42.18,40.73,42.18z"/>
		<path class="st0" d="M35.59,42.18h-2.06c-0.41,0-0.75,0.34-0.75,0.75c0,0.42,0.34,0.75,0.75,0.75h2.06c0.42,0,0.75-0.34,0.75-0.75
			C36.34,42.52,36,42.18,35.59,42.18z"/>
		<path class="st0" d="M44.79,42.18h-0.97c-0.42,0-0.75,0.34-0.75,0.75c0,0.42,0.34,0.75,0.75,0.75h0.97c0.41,0,0.75-0.34,0.75-0.75
			C45.54,42.52,45.21,42.18,44.79,42.18z"/>
		<path class="st0" d="M26.08,14.98H9.93c-0.41,0-0.75,0.34-0.75,0.75v15.41c0,0.41,0.34,0.75,0.75,0.75h16.15
			c0.41,0,0.75-0.34,0.75-0.75V15.73C26.84,15.31,26.5,14.98,26.08,14.98z M25.33,30.39H10.69V16.48h14.65V30.39z"/>
		<path class="st0" d="M19.25,25.96h-2.48c-0.41,0-0.75,0.34-0.75,0.75v2.08c0,0.42,0.34,0.75,0.75,0.75h2.48
			c0.41,0,0.75-0.34,0.75-0.75v-2.08C20,26.3,19.66,25.96,19.25,25.96z M18.5,28.03h-0.97v-0.57h0.97V28.03z"/>
		<path class="st0" d="M12.04,29.54h2.48c0.42,0,0.75-0.34,0.75-0.75v-2.08c0-0.41-0.34-0.75-0.75-0.75h-2.48
			c-0.41,0-0.75,0.34-0.75,0.75v2.08C11.29,29.2,11.62,29.54,12.04,29.54z M12.79,27.46h0.97v0.57h-0.97V27.46z"/>
		<path class="st0" d="M20.75,26.71v2.08c0,0.42,0.34,0.75,0.75,0.75h2.48c0.41,0,0.75-0.34,0.75-0.75v-2.08
			c0-0.41-0.34-0.75-0.75-0.75H21.5C21.09,25.96,20.75,26.3,20.75,26.71z M22.25,27.46h0.97v0.57h-0.97V27.46z"/>
		<path class="st0" d="M13.19,22.09H12.7c-0.42,0-0.75,0.34-0.75,0.75c0,0.41,0.34,0.75,0.75,0.75h0.49c0.41,0,0.75-0.34,0.75-0.75
			C13.94,22.43,13.6,22.09,13.19,22.09z"/>
		<path class="st0" d="M17.71,23.6h0.91c0.41,0,0.75-0.34,0.75-0.75c0-0.42-0.34-0.75-0.75-0.75h-0.91c-0.41,0-0.75,0.34-0.75,0.75
			C16.96,23.26,17.3,23.6,17.71,23.6z"/>
		<path class="st0" d="M20.43,23.6h0.91c0.41,0,0.75-0.34,0.75-0.75c0-0.42-0.34-0.75-0.75-0.75h-0.91c-0.41,0-0.75,0.34-0.75,0.75
			C19.68,23.26,20.01,23.6,20.43,23.6z"/>
		<path class="st0" d="M15,23.6h0.91c0.42,0,0.75-0.34,0.75-0.75c0-0.42-0.34-0.75-0.75-0.75H15c-0.41,0-0.75,0.34-0.75,0.75
			C14.24,23.26,14.58,23.6,15,23.6z"/>
		<path class="st0" d="M23.15,23.6h0.49c0.42,0,0.75-0.34,0.75-0.75c0-0.42-0.34-0.75-0.75-0.75h-0.49c-0.42,0-0.75,0.34-0.75,0.75
			C22.39,23.26,22.73,23.6,23.15,23.6z"/>
	</g>
	<g>
		<path class="st1" d="M43.53,10.41c2.02,0,3.66,1.64,3.66,3.66c0,2.02-1.64,3.66-3.66,3.66c-2.02,0-3.66-1.64-3.66-3.66
			C39.88,12.05,41.51,10.41,43.53,10.41L43.53,10.41z M43.53,10.41"/>
		<path class="st2" d="M43.53,12.34c0.96,0,1.73,0.78,1.73,1.73c0,0.96-0.78,1.73-1.73,1.73c-0.96,0-1.73-0.78-1.73-1.73
			C41.8,13.11,42.58,12.34,43.53,12.34L43.53,12.34z M43.53,12.34"/>
	</g>
</g>
</svg>
