<?xml version="1.0" encoding="utf-8"?>
<!-- Generator: Adobe Illustrator 27.0.0, SVG Export Plug-In . SVG Version: 6.00 Build 0)  -->
<svg version="1.1" id="Layer_1" xmlns="http://www.w3.org/2000/svg" xmlns:xlink="http://www.w3.org/1999/xlink" x="0px" y="0px"
	 viewBox="0 0 50.64 57.28" style="enable-background:new 0 0 50.64 57.28;" xml:space="preserve">
<style type="text/css">
	.st0{fill:#606060;}
	.st1{fill-rule:evenodd;clip-rule:evenodd;fill:#CDCDCF;}
	.st2{fill-rule:evenodd;clip-rule:evenodd;fill:#3D4452;}
</style>
<g>
	<g>
		<path class="st0" d="M41.22,11.96c-0.17-0.13-0.4-0.16-0.6-0.09c-6.19,2.03-13.25,0.03-14.69-3.04c-0.11-0.24-0.35-0.39-0.61-0.39
			s-0.5,0.15-0.61,0.39c-1.43,3.07-8.49,5.07-14.69,3.04c-0.2-0.07-0.43-0.03-0.6,0.09c-0.17,0.13-0.28,0.33-0.28,0.54v19.63
			c0,0.27,0.08,6.68,7.31,10.49c7.03,3.71,8.25,5.85,8.26,5.86c0.11,0.23,0.34,0.37,0.59,0.37c0,0,0.01,0,0.01,0
			c0.25,0,0.48-0.14,0.59-0.36c0.01-0.02,1.23-2.17,8.26-5.87c7.23-3.81,7.31-10.22,7.31-10.49V12.5
			C41.49,12.29,41.39,12.08,41.22,11.96z M40.15,32.12c0,0.24-0.11,5.88-6.6,9.3c-5.12,2.7-7.32,4.62-8.24,5.64
			c-0.91-1.02-3.12-2.95-8.24-5.64c-6.49-3.42-6.6-9.06-6.6-9.3V13.4c6.19,1.69,12.48-0.1,14.83-3.05
			c2.35,2.95,8.64,4.73,14.83,3.05V32.12z"/>
		<path class="st0" d="M16.08,27.6c0,5.09,4.14,9.24,9.24,9.24s9.24-4.14,9.24-9.24s-4.14-9.24-9.24-9.24S16.08,22.5,16.08,27.6z
			 M33.16,27.6c0,4.32-3.52,7.84-7.84,7.84c-4.32,0-7.84-3.52-7.84-7.84c0-4.32,3.52-7.84,7.84-7.84
			C29.64,19.76,33.16,23.28,33.16,27.6z"/>
		<g>
			<path class="st0" d="M24.88,23.33c0-0.25,0-0.49,0-0.72c0-0.25,0.14-0.41,0.36-0.51c0.22-0.1,0.43-0.05,0.62,0.09
				c0.13,0.1,0.17,0.24,0.18,0.39c0.01,0.19,0.03,0.38,0.03,0.57c0,0.12,0.04,0.17,0.15,0.2c0.34,0.11,0.69,0.21,1.01,0.38
				c0.69,0.36,1.16,0.91,1.32,1.7c0.01,0.07,0.02,0.15,0.01,0.23c-0.01,0.37-0.2,0.58-0.54,0.6c-0.32,0.02-0.62-0.22-0.65-0.55
				c-0.02-0.25-0.14-0.43-0.3-0.58c-0.39-0.35-0.82-0.6-1.37-0.57c-0.15,0.01-0.3,0.01-0.45,0c-0.49-0.04-0.89,0.17-1.26,0.45
				c-0.33,0.25-0.46,0.58-0.39,0.99c0.05,0.26,0.22,0.44,0.43,0.57c0.42,0.25,0.88,0.36,1.35,0.47c0.69,0.16,1.38,0.31,2.01,0.65
				c0.4,0.22,0.73,0.51,0.95,0.91c0.38,0.68,0.3,1.72-0.35,2.42c-0.48,0.51-1.07,0.83-1.74,0.98c-0.14,0.03-0.19,0.09-0.19,0.23
				c0,0.2-0.01,0.39-0.02,0.59c-0.02,0.29-0.27,0.51-0.56,0.52c-0.3,0.01-0.56-0.21-0.59-0.49c-0.02-0.17-0.01-0.34-0.02-0.51
				c0-0.29,0-0.29-0.28-0.36c-0.61-0.16-1.17-0.42-1.62-0.88c-0.36-0.36-0.57-0.8-0.63-1.31c-0.03-0.27,0.19-0.62,0.43-0.68
				c0.29-0.08,0.6,0.09,0.72,0.39c0.01,0.02,0.01,0.04,0.02,0.06c0.17,0.74,0.69,1.09,1.39,1.23c0.58,0.12,1.15,0.08,1.68-0.2
				c0.19-0.1,0.37-0.26,0.53-0.41c0.34-0.33,0.34-0.93-0.1-1.27c-0.35-0.27-0.76-0.4-1.18-0.5c-0.56-0.15-1.12-0.27-1.66-0.44
				c-0.6-0.19-1.14-0.52-1.5-1.05c-0.12-0.19-0.22-0.41-0.26-0.63c-0.22-1.07,0.25-1.83,1.1-2.41c0.37-0.25,0.77-0.41,1.2-0.5
				C24.76,23.36,24.81,23.35,24.88,23.33z"/>
			<path class="st0" d="M25.47,33.56c-0.41,0-0.76-0.3-0.8-0.69c-0.01-0.14-0.02-0.28-0.02-0.42l0-0.11c0-0.04,0-0.09,0-0.12
				c-0.03-0.01-0.07-0.02-0.1-0.03c-0.73-0.18-1.29-0.49-1.73-0.94c-0.4-0.41-0.63-0.89-0.69-1.44c-0.04-0.38,0.25-0.83,0.6-0.93
				c0.4-0.1,0.82,0.12,0.98,0.53c0.01,0.03,0.02,0.06,0.03,0.09c0.14,0.59,0.52,0.92,1.21,1.06c0.57,0.12,1.08,0.05,1.53-0.18
				c0.18-0.1,0.34-0.24,0.48-0.38c0.12-0.12,0.19-0.28,0.18-0.46c-0.01-0.19-0.1-0.35-0.26-0.47c-0.33-0.25-0.72-0.37-1.1-0.47
				c-0.19-0.05-0.37-0.09-0.56-0.14c-0.37-0.09-0.75-0.18-1.12-0.3c-0.71-0.23-1.26-0.61-1.61-1.14c-0.14-0.2-0.24-0.46-0.29-0.71
				c-0.22-1.06,0.18-1.95,1.2-2.64c0.38-0.26,0.81-0.44,1.27-0.53l0-0.04c0-0.17,0-0.34,0-0.51c0-0.22,0.09-0.53,0.49-0.71
				c0.2-0.09,0.51-0.14,0.85,0.12c0.21,0.16,0.25,0.39,0.27,0.55l0.01,0.08c0.01,0.17,0.03,0.34,0.03,0.51l0.2,0.06
				c0.28,0.09,0.57,0.18,0.84,0.32c0.79,0.41,1.27,1.03,1.44,1.86c0.02,0.1,0.02,0.2,0.02,0.28c-0.01,0.49-0.29,0.79-0.75,0.82
				c-0.45,0.02-0.85-0.32-0.89-0.76c-0.01-0.17-0.09-0.3-0.23-0.44c-0.41-0.38-0.78-0.54-1.2-0.51c-0.16,0.01-0.32,0.01-0.48,0
				c-0.37-0.03-0.69,0.09-1.11,0.4c-0.26,0.2-0.36,0.45-0.31,0.77c0.03,0.17,0.13,0.3,0.33,0.42c0.37,0.22,0.8,0.33,1.28,0.44
				c0.73,0.17,1.43,0.33,2.07,0.67c0.47,0.26,0.81,0.58,1.04,1c0.39,0.71,0.38,1.86-0.38,2.68c-0.49,0.53-1.12,0.88-1.86,1.04
				c-0.02,0.21-0.02,0.41-0.04,0.6c-0.02,0.4-0.37,0.72-0.78,0.73C25.48,33.56,25.47,33.56,25.47,33.56z M22.92,29.31
				c-0.03,0-0.05,0-0.08,0.01c-0.12,0.03-0.29,0.27-0.27,0.44c0.05,0.45,0.23,0.84,0.56,1.17c0.38,0.39,0.88,0.65,1.51,0.82
				c0.37,0.1,0.44,0.19,0.45,0.57l0,0.11c0,0.13,0,0.25,0.01,0.38c0.02,0.16,0.16,0.31,0.36,0.29c0.18,0,0.34-0.14,0.35-0.31
				c0.01-0.19,0.02-0.38,0.02-0.57c0-0.17,0.06-0.38,0.37-0.44c0.66-0.15,1.19-0.45,1.63-0.91c0.62-0.66,0.62-1.6,0.32-2.15
				c-0.19-0.34-0.47-0.61-0.87-0.82c-0.59-0.32-1.23-0.46-1.91-0.62c-0.57-0.13-1.03-0.25-1.46-0.51c-0.31-0.18-0.49-0.42-0.54-0.72
				c-0.09-0.49,0.08-0.91,0.48-1.21c0.34-0.25,0.81-0.54,1.42-0.49c0.14,0.01,0.28,0.01,0.41,0c0.71-0.04,1.22,0.34,1.53,0.63
				c0.23,0.21,0.35,0.45,0.38,0.73c0.02,0.2,0.2,0.37,0.41,0.35c0.15-0.01,0.32-0.06,0.33-0.39c0-0.06,0-0.12-0.01-0.18
				c-0.13-0.68-0.54-1.2-1.2-1.55c-0.24-0.12-0.5-0.21-0.77-0.3l-0.2-0.07c-0.2-0.07-0.3-0.2-0.31-0.41c0-0.16-0.01-0.32-0.03-0.48
				l-0.01-0.08c-0.01-0.14-0.04-0.2-0.09-0.23c-0.14-0.11-0.26-0.13-0.39-0.07c-0.2,0.09-0.23,0.21-0.23,0.31c0,0.17,0,0.33,0,0.5
				l0,0.4l-0.24,0.06c-0.04,0.01-0.08,0.02-0.11,0.03c-0.41,0.08-0.78,0.23-1.12,0.46c-0.88,0.59-1.2,1.28-1.01,2.17
				c0.04,0.2,0.12,0.39,0.23,0.55c0.3,0.45,0.75,0.77,1.38,0.96c0.36,0.11,0.72,0.2,1.09,0.29c0.19,0.05,0.38,0.09,0.56,0.14
				c0.42,0.11,0.87,0.24,1.26,0.54c0.26,0.2,0.41,0.49,0.43,0.8c0.02,0.31-0.1,0.6-0.31,0.81c-0.16,0.15-0.35,0.33-0.58,0.45
				c-0.54,0.29-1.15,0.37-1.83,0.23c-0.86-0.18-1.38-0.65-1.56-1.4C23.23,29.42,23.08,29.31,22.92,29.31z"/>
		</g>
	</g>
	<g>
		<path class="st1" d="M33.04,20.88c1.66,0,3.01,1.35,3.01,3.01c0,1.66-1.35,3.01-3.01,3.01c-1.66,0-3.01-1.35-3.01-3.01
			C30.03,22.23,31.37,20.88,33.04,20.88L33.04,20.88z M33.04,20.88"/>
		<path class="st2" d="M33.04,22.47c0.79,0,1.43,0.64,1.43,1.43c0,0.79-0.64,1.43-1.43,1.43c-0.79,0-1.43-0.64-1.43-1.43
			C31.61,23.11,32.25,22.47,33.04,22.47L33.04,22.47z M33.04,22.47"/>
	</g>
</g>
</svg>
