<?xml version="1.0" encoding="utf-8"?>
<!-- Generator: Adobe Illustrator 27.0.0, SVG Export Plug-In . SVG Version: 6.00 Build 0)  -->
<svg version="1.1" id="Layer_1" xmlns="http://www.w3.org/2000/svg" xmlns:xlink="http://www.w3.org/1999/xlink" x="0px" y="0px"
	 viewBox="0 0 81 114.28" style="enable-background:new 0 0 81 114.28;" xml:space="preserve">
<style type="text/css">
	.st0{fill:#16AFE6;}
	.st1{fill-rule:evenodd;clip-rule:evenodd;fill:#CCCCCE;}
	.st2{fill-rule:evenodd;clip-rule:evenodd;fill:#3D4453;}
</style>
<g>
	<path class="st0" d="M40.72,103.73c-0.02,0-0.03,0-0.05,0l-1.43-0.08c-0.99-0.05-1.87-0.1-2.74-0.17
		c-0.91-0.08-1.87-0.17-2.83-0.39c-1.33-0.3-2.65-0.66-3.93-1l-0.72-0.19c-2.47-0.66-4.9-1.73-7.65-3.36
		c-0.91-0.54-1.76-1.16-2.59-1.75c-0.35-0.26-0.71-0.51-1.07-0.76c-1.54-1.07-2.8-2.39-3.87-3.54c-1.75-1.89-3.09-3.77-4.13-5.76
		c-0.63-1.22-1.22-2.48-1.75-3.74c-0.33-0.79-0.52-1.61-0.68-2.34c-0.25-1.11-0.45-2.19-0.61-3.11c-0.07-0.41-0.11-0.83-0.15-1.24
		l-0.04-0.44c-0.02-0.15-0.04-0.3-0.06-0.46c-0.06-0.42-0.12-0.85-0.09-1.32c0.05-0.88,0.15-1.76,0.25-2.61l0.07-0.62
		c0.06-0.51,0.13-1.06,0.24-1.61c0.13-0.64,0.29-1.28,0.45-1.92l0.18-0.71c0.11-0.46,0.22-0.92,0.37-1.37
		c0.33-1.03,0.66-2.1,1.05-3.16c0.26-0.71,0.56-1.41,0.86-2.11l0.55-1.31c0.34-0.81,0.67-1.61,1.04-2.41
		c0.64-1.4,1.31-2.79,1.99-4.17c0.71-1.43,1.44-2.91,2.22-4.34c0.88-1.61,1.81-3.22,2.71-4.78l0.63-1.1
		c0.87-1.5,1.76-3.05,2.68-4.55c1.04-1.7,2.18-3.5,3.7-5.85c1.43-2.21,2.71-4.15,3.91-5.93c1.46-2.16,2.91-4.27,4.32-6.27
		c0.95-1.34,1.92-2.67,2.89-3.99l1.93-2.64c0.34-0.46,0.68-0.92,1.02-1.39c0.12-0.17,0.49-0.67,1.11-0.67c0,0,0,0,0,0
		c0.41,0,0.76,0.21,1.06,0.62l1.07,1.45c0.88,1.19,1.76,2.38,2.62,3.59c0.88,1.23,1.73,2.48,2.59,3.72l0.67,0.97
		c1.55,2.26,3.1,4.51,4.64,6.78c0.93,1.37,1.89,2.78,2.8,4.21c1.31,2.07,2.67,4.25,4.02,6.48c1.06,1.75,2.46,4.05,3.82,6.43
		c0.82,1.42,1.55,2.82,2.42,4.49c0.82,1.58,1.69,3.27,2.49,4.94c0.56,1.17,1.07,2.38,1.56,3.55l0.42,1
		c0.53,1.25,1.08,2.55,1.58,3.85c0.25,0.67,0.45,1.35,0.65,2l0.38,1.27c0.2,0.63,0.4,1.29,0.56,1.95c0.22,0.92,0.36,1.82,0.45,2.51
		c0.13,0.92,0.24,1.92,0.34,3.04c0.03,0.29-0.01,0.55-0.04,0.78c-0.01,0.09-0.02,0.18-0.03,0.28c-0.01,0.19-0.02,0.39-0.02,0.59
		c-0.01,0.4-0.02,0.8-0.07,1.2c-0.07,0.59-0.16,1.17-0.26,1.76l-0.13,0.81c-0.05,0.35-0.11,0.7-0.2,1.04
		c-0.24,0.88-0.49,1.76-0.76,2.64c-0.52,1.72-1.32,3.43-2.51,5.4c-0.76,1.25-1.6,2.41-2.5,3.45c-1.33,1.54-2.51,2.74-3.7,3.78
		c-2.09,1.83-4.49,3.4-7.13,4.69c-1.11,0.54-2.41,1.15-3.74,1.62c-0.89,0.31-1.8,0.54-2.69,0.77c-0.49,0.13-0.99,0.25-1.48,0.39
		c-1.35,0.38-2.78,0.64-4.26,0.75c-1.11,0.08-2.22,0.19-3.21,0.28l-1.13,0.1C40.78,103.73,40.75,103.73,40.72,103.73z M40.52,12.75
		c-0.24,0.32-0.46,0.62-0.68,0.93l-1.93,2.63c-0.96,1.32-1.93,2.64-2.87,3.97c-1.4,1.99-2.85,4.09-4.3,6.24
		c-1.2,1.77-2.47,3.7-3.89,5.9c-1.51,2.34-2.65,4.14-3.68,5.82c-0.91,1.49-1.8,3.02-2.66,4.51l-0.63,1.1
		c-0.9,1.55-1.82,3.15-2.69,4.74c-0.77,1.4-1.49,2.87-2.19,4.28c-0.68,1.37-1.33,2.74-1.97,4.13c-0.36,0.78-0.69,1.57-1.02,2.35
		l-0.56,1.32c-0.29,0.67-0.57,1.34-0.82,2.02c-0.38,1.02-0.71,2.07-1.02,3.08c-0.13,0.41-0.23,0.83-0.33,1.25l-0.18,0.72
		c-0.15,0.62-0.31,1.23-0.44,1.86c-0.1,0.48-0.16,0.98-0.22,1.44l-0.07,0.62c-0.1,0.82-0.19,1.67-0.24,2.5
		c-0.02,0.29,0.03,0.62,0.08,0.97c0.02,0.17,0.05,0.35,0.07,0.52l0.04,0.46c0.03,0.37,0.07,0.74,0.13,1.1
		c0.15,0.89,0.35,1.95,0.59,3.02c0.16,0.69,0.32,1.4,0.59,2.04c0.51,1.22,1.08,2.44,1.69,3.61c0.96,1.84,2.21,3.6,3.85,5.37
		c1,1.08,2.18,2.32,3.58,3.29c0.37,0.26,0.73,0.52,1.09,0.78c0.83,0.6,1.61,1.16,2.45,1.66c2.61,1.54,4.9,2.55,7.2,3.17l0.72,0.19
		c1.26,0.34,2.57,0.7,3.86,0.99c0.85,0.19,1.74,0.28,2.58,0.35c0.86,0.07,1.72,0.12,2.69,0.17l1.37,0.07l1.06-0.1
		c1-0.09,2.12-0.19,3.24-0.28c1.38-0.11,2.66-0.33,3.91-0.69c0.5-0.14,1.01-0.27,1.52-0.41c0.89-0.23,1.73-0.44,2.54-0.73
		c1.25-0.43,2.48-1.02,3.55-1.54c2.5-1.21,4.76-2.7,6.73-4.42c1.13-0.99,2.25-2.13,3.53-3.6c0.84-0.97,1.62-2.04,2.32-3.2
		c1.11-1.83,1.85-3.42,2.33-4.99c0.26-0.86,0.51-1.71,0.74-2.58c0.07-0.28,0.12-0.57,0.16-0.85l0.14-0.83
		c0.09-0.55,0.19-1.11,0.25-1.67c0.04-0.35,0.05-0.7,0.06-1.05c0.01-0.21,0.01-0.42,0.02-0.64c0.01-0.14,0.02-0.27,0.04-0.41
		c0.02-0.15,0.04-0.29,0.03-0.38c-0.1-1.09-0.21-2.06-0.33-2.95c-0.13-0.96-0.26-1.69-0.42-2.34c-0.14-0.61-0.33-1.21-0.53-1.84
		l-0.39-1.3c-0.19-0.65-0.37-1.27-0.6-1.87c-0.48-1.27-1.03-2.55-1.55-3.79l-0.43-1.01c-0.48-1.15-0.99-2.34-1.53-3.47
		c-0.78-1.65-1.61-3.25-2.46-4.89c-0.86-1.66-1.58-3.03-2.38-4.42c-1.36-2.36-2.75-4.66-3.8-6.4c-1.35-2.22-2.7-4.39-4-6.45
		c-0.9-1.41-1.85-2.81-2.77-4.17c-1.54-2.26-3.08-4.51-4.63-6.77l-0.67-0.97c-0.85-1.24-1.69-2.47-2.57-3.69
		c-0.86-1.2-1.73-2.38-2.61-3.57L40.52,12.75z"/>
	<path class="st1" d="M60.42,36.77c3.17,0,5.75,2.57,5.75,5.75c0,3.17-2.57,5.74-5.75,5.74c-3.17,0-5.74-2.57-5.74-5.74
		C54.68,39.35,57.25,36.77,60.42,36.77L60.42,36.77z M60.42,36.77"/>
	<path class="st2" d="M60.42,39.8c1.5,0,2.72,1.22,2.72,2.72c0,1.5-1.22,2.72-2.72,2.72c-1.5,0-2.72-1.22-2.72-2.72
		C57.7,41.01,58.92,39.8,60.42,39.8L60.42,39.8z M60.42,39.8"/>
	<g>
		<g>
			<path class="st0" d="M19.19,75.66h4.23v0.79c0,0.57,0.15,0.98,0.46,1.23c0.3,0.25,0.81,0.37,1.52,0.37h0.77
				c0.67,0,1.16-0.12,1.48-0.36s0.48-0.62,0.48-1.12v-0.61c0-0.53-0.15-0.91-0.46-1.15c-0.31-0.24-0.8-0.36-1.49-0.36h-1.38v-3.29
				h1.33c0.61,0,1.06-0.12,1.35-0.36c0.3-0.24,0.44-0.6,0.44-1.08v-0.43c0-0.48-0.14-0.83-0.43-1.06s-0.74-0.34-1.34-0.34h-0.71
				c-0.64,0-1.1,0.12-1.38,0.37c-0.28,0.25-0.42,0.66-0.42,1.22v0.56h-4.19v-1.1c0-1.4,0.47-2.48,1.41-3.23s2.3-1.12,4.06-1.12h1.82
				c1.79,0,3.15,0.35,4.08,1.05c0.93,0.7,1.39,1.72,1.39,3.07v1.07c0,0.79-0.21,1.42-0.63,1.91s-1.04,0.82-1.87,1
				c0.96,0.26,1.66,0.65,2.09,1.18c0.44,0.53,0.66,1.25,0.66,2.15v1.22c0,1.31-0.47,2.32-1.42,3.05c-0.95,0.73-2.27,1.09-3.98,1.09
				h-2.53c-1.67,0-2.98-0.38-3.93-1.13c-0.95-0.75-1.43-1.79-1.43-3.11V75.66z"/>
			<path class="st0" d="M34.36,76.36h4.16v0.29c0,0.54,0.13,0.9,0.39,1.09c0.26,0.19,0.79,0.29,1.61,0.29h0.62
				c0.84,0,1.38-0.11,1.63-0.32c0.25-0.21,0.38-0.67,0.38-1.37v-1.63c0-0.71-0.11-1.17-0.34-1.38s-0.78-0.31-1.67-0.31h-0.62
				c-0.73,0-1.23,0.06-1.48,0.19c-0.25,0.12-0.4,0.35-0.43,0.66h-3.97v-9.08h11.98v3.25h-7.98v2.89c0.31-0.38,0.69-0.67,1.16-0.86
				s1.02-0.29,1.64-0.29h0.96c1.75,0,3.02,0.37,3.81,1.1c0.79,0.73,1.18,1.92,1.18,3.55v2.35c0,1.7-0.43,2.9-1.3,3.58
				c-0.86,0.69-2.38,1.03-4.56,1.03h-1.56c-1.79,0-3.17-0.36-4.15-1.08s-1.46-1.74-1.46-3.06V76.36z"/>
		</g>
	</g>
	<g>
		<path class="st0" d="M52.53,71.36c-0.82,0-1.39-0.16-1.71-0.48c-0.32-0.32-0.48-0.89-0.48-1.71v-2.14c0-0.81,0.16-1.38,0.49-1.7
			c0.32-0.32,0.89-0.48,1.7-0.48h0.62c0.82,0,1.39,0.16,1.71,0.47c0.33,0.32,0.49,0.88,0.49,1.7v2.14c0,0.83-0.16,1.4-0.48,1.71
			s-0.9,0.48-1.72,0.48H52.53z M52.75,69.9h0.21c0.24,0,0.4-0.06,0.48-0.19c0.08-0.12,0.12-0.45,0.12-0.97v-1.29
			c0-0.5-0.04-0.81-0.12-0.94s-0.24-0.19-0.48-0.19h-0.21c-0.24,0-0.4,0.06-0.48,0.19c-0.08,0.13-0.12,0.44-0.12,0.94v1.29
			c0,0.51,0.04,0.84,0.12,0.97C52.34,69.83,52.51,69.9,52.75,69.9z M53.75,74.68l5.64-9.82h1.09l-5.62,9.82H53.75z M61.05,74.68
			c-0.81,0-1.38-0.16-1.7-0.47c-0.32-0.32-0.48-0.88-0.48-1.69v-2.15c0-0.82,0.16-1.39,0.48-1.71c0.32-0.32,0.89-0.48,1.7-0.48h0.63
			c0.82,0,1.39,0.16,1.71,0.48c0.32,0.32,0.48,0.89,0.48,1.72v2.15c0,0.81-0.16,1.38-0.48,1.69c-0.32,0.31-0.89,0.47-1.72,0.47
			H61.05z M61.27,73.21h0.22c0.24,0,0.4-0.06,0.48-0.18s0.12-0.44,0.12-0.94v-1.31c0-0.51-0.04-0.82-0.12-0.96
			c-0.08-0.13-0.24-0.2-0.48-0.2h-0.22c-0.24,0-0.4,0.07-0.48,0.2c-0.08,0.13-0.12,0.45-0.12,0.96v1.31c0,0.5,0.04,0.81,0.12,0.94
			S61.02,73.21,61.27,73.21z"/>
	</g>
</g>
</svg>
