<?xml version="1.0" encoding="utf-8"?>
<!-- Generator: Adobe Illustrator 27.0.0, SVG Export Plug-In . SVG Version: 6.00 Build 0)  -->
<svg version="1.1" id="Layer_1" xmlns="http://www.w3.org/2000/svg" xmlns:xlink="http://www.w3.org/1999/xlink" x="0px" y="0px"
	 viewBox="0 0 85.95 94.25" style="enable-background:new 0 0 85.95 94.25;" xml:space="preserve">
<style type="text/css">
	.st0{fill:#FFFFFF;}
	.st1{fill-rule:evenodd;clip-rule:evenodd;fill:#CECED0;}
	.st2{fill-rule:evenodd;clip-rule:evenodd;fill:#3D4553;}
</style>
<g>
	<g>
		<path class="st0" d="M65.36,51.3c0,9.9,0,15.29,0,25.19c0,1.7-0.16,1.86-1.84,1.86c-13.69,0-27.38,0-41.07,0
			c-1.72,0-1.86-0.15-1.86-1.98c0-19.71,0-34.91,0-54.63c0-1.84,0.14-1.99,1.85-1.99c13.65,0,27.29,0,40.94,0
			c1.89,0,1.98,0.09,1.98,2.11C65.36,31.67,65.36,41.49,65.36,51.3z M63.27,21.95c-13.6,0-27.08,0-40.54,0c0,19.65,0,34.69,0,54.22
			c13.57,0,27.02,0,40.54,0C63.27,56.57,63.27,41.57,63.27,21.95z"/>
		<path class="st0" d="M42.97,39.59c5.47,0,10.93,0,16.4,0c1.76,0,1.92,0.17,1.92,1.92c0,8.28,0,16.55,0,24.83
			c0,1.75-0.19,1.93-1.92,1.93c-10.85,0-21.69,0-32.54,0c-2.08,0-2.18-0.1-2.18-2.19c0-8.19,0-16.38,0-24.57
			c0-1.73,0.19-1.93,1.92-1.93C32.04,39.59,37.51,39.59,42.97,39.59z M46.97,66.1c0-6.37,0-12.62,0-18.91c-6.79,0-13.5,0-20.21,0
			c0,6.35,0,12.59,0,18.91C33.51,66.1,40.19,66.1,46.97,66.1z M49.13,66.06c3.41,0,6.7,0,10.04,0c0-6.33,0-12.6,0-18.85
			c-3.41,0-6.72,0-10.04,0C49.13,53.52,49.13,59.72,49.13,66.06z M46.99,41.8c-6.83,0-13.52,0-20.22,0c0,1.09,0,2.08,0,3.12
			c6.77,0,13.47,0,20.22,0C46.99,43.85,46.99,42.87,46.99,41.8z M59.22,41.8c-3.44,0-6.76,0-10.06,0c0,1.09,0,2.08,0,3.09
			c3.4,0,6.71,0,10.06,0C59.22,43.83,59.22,42.87,59.22,41.8z"/>
		<path class="st0" d="M24.96,31.48c0-0.68,0-1.25,0-1.92c4.88,0,9.72,0,14.63,0c0,0.62,0,1.22,0,1.92
			C34.76,31.48,29.92,31.48,24.96,31.48z"/>
		<path class="st0" d="M60.19,73.32c-2.66,0-5.3,0-8,0c0-0.66,0-1.25,0-1.95c2.64,0,5.28,0,8,0C60.19,72,60.19,72.63,60.19,73.32z"
			/>
		<path class="st0" d="M32.69,25.35c0,0.69,0,1.25,0,1.9c-2.6,0-5.15,0-7.79,0c0-0.61,0-1.2,0-1.9
			C27.45,25.35,30.03,25.35,32.69,25.35z"/>
		<path class="st0" d="M45.14,35.46c-1.14,0-2.18,0-3.29,0c0-0.66,0-1.25,0-1.94c1.08,0,2.15,0,3.29,0
			C45.14,34.15,45.14,34.74,45.14,35.46z"/>
		<path class="st0" d="M36.19,33.48c1.1,0,2.13,0,3.24,0c0,0.68,0,1.3,0,1.98c-1.1,0-2.14,0-3.24,0
			C36.19,34.82,36.19,34.23,36.19,33.48z"/>
		<path class="st0" d="M33.79,33.49c0,0.7,0,1.29,0,1.96c-1.09,0-2.12,0-3.24,0c0-0.64,0-1.26,0-1.96
			C31.61,33.49,32.64,33.49,33.79,33.49z"/>
		<path class="st0" d="M28.15,33.49c0,0.69,0,1.28,0,1.95c-1.08,0-2.11,0-3.24,0c0-0.63,0-1.25,0-1.95
			C25.94,33.49,26.97,33.49,28.15,33.49z"/>
		<path class="st0" d="M44.94,53.47c0,0.72,0,1.31,0,1.98c-3.47,0-6.87,0-10.37,0c0-0.66,0-1.28,0-1.98
			C38.03,53.47,41.44,53.47,44.94,53.47z"/>
		<path class="st0" d="M44.94,61.88c0,0.72,0,1.32,0,1.98c-3.47,0-6.88,0-10.37,0c0-0.66,0-1.29,0-1.98
			C38.03,61.88,41.44,61.88,44.94,61.88z"/>
		<path class="st0" d="M36.36,57.69c0,0.7,0,1.26,0,1.93c-2.5,0-4.97,0-7.54,0c0-0.6,0-1.22,0-1.93
			C31.3,57.69,33.77,57.69,36.36,57.69z"/>
		<path class="st0" d="M28.79,51.22c0-0.7,0-1.29,0-1.95c2.54,0,5.01,0,7.54,0c0,0.67,0,1.27,0,1.95
			C33.83,51.22,31.36,51.22,28.79,51.22z"/>
		<path class="st0" d="M44.95,49.26c0,0.72,0,1.31,0,1.98c-2.19,0-4.32,0-6.54,0c0-0.66,0-1.28,0-1.98
			C40.58,49.26,42.71,49.26,44.95,49.26z"/>
		<path class="st0" d="M44.95,57.7c0,0.65,0,1.25,0,1.94c-2.18,0-4.34,0-6.57,0c0-0.65,0-1.25,0-1.94
			C40.56,57.7,42.73,57.7,44.95,57.7z"/>
		<path class="st0" d="M28.75,55.43c0-0.68,0-1.25,0-1.92c1.21,0,2.41,0,3.7,0c0,0.59,0,1.21,0,1.92
			C31.27,55.43,30.07,55.43,28.75,55.43z"/>
		<path class="st0" d="M32.5,61.9c0,0.67,0,1.26,0,1.95c-1.22,0-2.42,0-3.69,0c0-0.64,0-1.27,0-1.95
			C30.05,61.9,31.25,61.9,32.5,61.9z"/>
		<path class="st0" d="M51.16,51.2c0-0.66,0-1.25,0-1.93c2.01,0,3.96,0,5.99,0c0,0.64,0,1.23,0,1.93
			C55.22,51.2,53.26,51.2,51.16,51.2z"/>
		<path class="st0" d="M51.18,55.42c0-0.69,0-1.28,0-1.95c2.02,0,3.97,0,5.98,0c0,0.67,0,1.26,0,1.95
			C55.19,55.42,53.24,55.42,51.18,55.42z"/>
		<path class="st0" d="M57.17,57.72c0,0.65,0,1.24,0,1.92c-2,0-3.96,0-5.99,0c0-0.63,0-1.22,0-1.92
			C53.11,57.72,55.07,57.72,57.17,57.72z"/>
		<path class="st0" d="M51.17,61.87c2.04,0,3.96,0,5.96,0c0,0.67,0,1.3,0,1.99c-2,0-3.95,0-5.96,0
			C51.17,63.19,51.17,62.6,51.17,61.87z"/>
	</g>
	<g>
		<path class="st1" d="M53.13,15.9c2.79,0,5.05,2.26,5.05,5.05c0,2.78-2.26,5.04-5.05,5.04c-2.79,0-5.04-2.26-5.04-5.04
			C48.08,18.16,50.34,15.9,53.13,15.9L53.13,15.9z M53.13,15.9"/>
		<path class="st2" d="M53.13,18.56c1.32,0,2.39,1.07,2.39,2.39c0,1.32-1.07,2.39-2.39,2.39c-1.32,0-2.39-1.07-2.39-2.39
			C50.74,19.63,51.81,18.56,53.13,18.56L53.13,18.56z M53.13,18.56"/>
	</g>
</g>
</svg>
