<?xml version="1.0" encoding="utf-8"?>
<!-- Generator: Adobe Illustrator 27.0.0, SVG Export Plug-In . SVG Version: 6.00 Build 0)  -->
<svg version="1.1" id="Layer_1" xmlns="http://www.w3.org/2000/svg" xmlns:xlink="http://www.w3.org/1999/xlink" x="0px" y="0px"
	 viewBox="0 0 85.95 94.25" style="enable-background:new 0 0 85.95 94.25;" xml:space="preserve">
<style type="text/css">
	.st0{fill:#FFFFFF;}
	.st1{fill-rule:evenodd;clip-rule:evenodd;fill:#CECED0;}
	.st2{fill-rule:evenodd;clip-rule:evenodd;fill:#3D4553;}
</style>
<g>
	<g>
		<path class="st0" d="M28.74,49c0,6.54,0,13.08,0,19.62c0,0.98-0.33,1.29-1.37,1.29c-2.84,0-5.68,0-8.53-0.01
			c-1.09,0-1.43-0.31-1.43-1.31c0-13.08,0-26.16,0-39.23c0-1.04,0.37-1.36,1.52-1.37c2.76,0,5.52,0,8.28,0
			c1.21,0,1.54,0.3,1.54,1.39C28.74,35.92,28.74,42.46,28.74,49C28.74,49,28.74,49,28.74,49z M19.67,30.07
			c-0.01,0.2-0.03,0.33-0.03,0.46c0,12.28,0,24.56-0.01,36.83c0,0.42,0.14,0.55,0.59,0.54c1.88-0.02,3.76-0.03,5.64,0
			c0.6,0.01,0.7-0.19,0.7-0.67c-0.01-12.17-0.01-24.33-0.01-36.5c0-0.22,0-0.43,0-0.66C24.2,30.07,21.96,30.07,19.67,30.07z"/>
		<path class="st0" d="M42.32,54.3c0,4.74,0,9.49,0,14.23c0,1.07-0.32,1.37-1.48,1.37c-2.82,0-5.64,0-8.46,0
			c-1.05,0-1.39-0.31-1.39-1.27c0-9.55,0-19.09,0-28.64c0-0.93,0.35-1.26,1.35-1.26c2.88,0,5.77,0,8.65,0
			c0.96,0,1.34,0.34,1.34,1.22C42.33,44.73,42.32,49.51,42.32,54.3z M40.06,40.74c-2.05,0-4.04,0-6.02,0c-0.87,0-0.88,0-0.88,0.79
			c0,8.4,0,16.81,0,25.21c0,0.22,0.01,0.45,0,0.67c-0.03,0.36,0.14,0.49,0.54,0.48c0.98-0.02,1.96-0.01,2.94-0.01
			c1.12,0,2.24,0,3.42,0C40.06,58.83,40.06,49.82,40.06,40.74z"/>
		<path class="st0" d="M70.01,47.68c0-0.36,0-0.56,0-0.75c0-1.91,0-3.81,0-5.72c0-0.73,0.46-1.21,1.13-1.21
			c0.64,0.01,1.08,0.46,1.08,1.18c0.01,2.93,0.01,5.87,0,8.8c0,0.88-0.38,1.19-1.37,1.19c-3.17,0-6.34,0-9.51,0
			c-0.88,0-1.38-0.39-1.35-1.04c0.02-0.61,0.52-0.97,1.38-0.97c2.07,0,4.13,0,6.2,0c0.22,0,0.43,0,0.65,0
			c0.02-0.04,0.04-0.09,0.07-0.13c-0.63-0.59-1.26-1.18-1.9-1.77c-7.34-6.7-14.67-13.41-22.01-20.11c-0.36-0.33-0.73-0.65-1.08-0.99
			c-0.54-0.52-0.58-1.12-0.12-1.54c0.47-0.43,1.2-0.37,1.74,0.13c2.47,2.26,4.93,4.53,7.4,6.79C58.02,36.77,63.74,42,69.47,47.23
			C69.6,47.34,69.73,47.45,70.01,47.68z"/>
		<path class="st0" d="M44.55,59.68c0-2.95,0-5.9,0-8.85c0-1.07,0.31-1.36,1.48-1.36c2.78,0,5.56,0,8.34,0c1.2,0,1.5,0.26,1.5,1.33
			c0,5.94,0,11.88,0,17.82c0,0.98-0.32,1.28-1.38,1.28c-2.86,0-5.72,0-8.58,0c-1.01,0-1.35-0.31-1.35-1.25
			C44.55,65.66,44.55,62.67,44.55,59.68C44.55,59.68,44.55,59.68,44.55,59.68z M46.8,51.47c-0.02,0.19-0.04,0.28-0.04,0.37
			c0,5.19,0,10.38-0.01,15.58c0,0.42,0.2,0.48,0.59,0.48c1.88-0.01,3.76-0.03,5.64,0.01c0.58,0.01,0.72-0.16,0.71-0.66
			c-0.02-2.67-0.01-5.34-0.01-8.01c0-2.39-0.01-4.78,0.01-7.17c0-0.47-0.15-0.61-0.66-0.59c-1,0.03-2,0.01-3,0.01
			C48.97,51.47,47.91,51.47,46.8,51.47z"/>
		<path class="st0" d="M69.46,63.76c0,1.63,0,3.25,0,4.88c0,0.92-0.37,1.26-1.36,1.26c-2.82,0.01-5.64,0.01-8.47,0
			c-1.22,0-1.53-0.29-1.53-1.39c0-3.19,0-6.39,0-9.58c0-0.97,0.34-1.28,1.38-1.28c2.82,0,5.64,0,8.47,0c1.19,0,1.5,0.29,1.5,1.41
			C69.46,60.62,69.46,62.19,69.46,63.76z M60.36,59.68c0,2.74,0,5.45,0,8.18c2.3,0,4.54,0,6.83,0c0-2.74,0-5.45,0-8.18
			C64.89,59.68,62.65,59.68,60.36,59.68z"/>
	</g>
	<g>
		<path class="st1" d="M18.08,49.95c2.41,0,4.36,1.95,4.36,4.36c0,2.41-1.95,4.36-4.36,4.36c-2.41,0-4.36-1.95-4.36-4.36
			C13.72,51.91,15.67,49.95,18.08,49.95L18.08,49.95z M18.08,49.95"/>
		<path class="st2" d="M18.08,52.25c1.14,0,2.07,0.93,2.07,2.07c0,1.14-0.93,2.07-2.07,2.07c-1.14,0-2.07-0.93-2.07-2.07
			C16.01,53.18,16.94,52.25,18.08,52.25L18.08,52.25z M18.08,52.25"/>
	</g>
</g>
</svg>
