<?xml version="1.0" encoding="utf-8"?>
<!-- Generator: Adobe Illustrator 27.0.0, SVG Export Plug-In . SVG Version: 6.00 Build 0)  -->
<svg version="1.1" id="Layer_1" xmlns="http://www.w3.org/2000/svg" xmlns:xlink="http://www.w3.org/1999/xlink" x="0px" y="0px"
	 viewBox="0 0 437.38 183.7" width="500px" style="enable-background:new 0 0 437.38 183.7;" xml:space="preserve">
<style type="text/css">
	.st0{fill-rule:evenodd;clip-rule:evenodd;fill:#2AB1E5;}
	.st1{fill-rule:evenodd;clip-rule:evenodd;fill:#CDCDCF;}
	.st2{fill-rule:evenodd;clip-rule:evenodd;fill:#3D4452;}
</style>
<g>
	<g>
		<path class="st0" d="M78.71,63.04h238.76c10.61,0,19.22-8.61,19.22-19.22c0-10.62-8.61-19.23-19.22-19.23H78.71
			c-29.16,0-56.25,8.87-78.71,24.07v51.38C18.75,77.43,47.06,63.04,78.71,63.04z"/>
		<path class="st0" d="M80.04,154.97h312.98c10.62,0,19.23-8.59,19.23-19.2V43.56H373.8v72.99H80.04
			c-25.95,0-46.99,21.04-46.99,46.96v20.18h38.45v-20.18C71.49,158.81,75.31,154.97,80.04,154.97z"/>
	</g>
	<path class="st1" d="M393.02,2.96c22.42,0,40.6,18.18,40.6,40.6c0,22.39-18.18,40.56-40.6,40.56c-22.41,0-40.57-18.18-40.57-40.56
		C352.45,21.14,370.61,2.96,393.02,2.96L393.02,2.96z M393.02,2.96"/>
	<path class="st2" d="M393.02,24.33c10.62,0,19.23,8.61,19.23,19.23c0,10.61-8.61,19.22-19.23,19.22
		c-10.61,0-19.22-8.61-19.22-19.22C373.8,32.94,382.41,24.33,393.02,24.33L393.02,24.33z M393.02,24.33"/>
</g>
</svg>
