<?xml version="1.0" encoding="utf-8"?>
<!-- Generator: Adobe Illustrator 27.0.0, SVG Export Plug-In . SVG Version: 6.00 Build 0)  -->
<svg version="1.1" id="Layer_1" xmlns="http://www.w3.org/2000/svg" xmlns:xlink="http://www.w3.org/1999/xlink" x="0px" y="0px"
	 viewBox="0 0 85.95 94.25" style="enable-background:new 0 0 85.95 94.25;" xml:space="preserve">
<style type="text/css">
	.st0{fill:#26B3E7;}
	.st1{fill-rule:evenodd;clip-rule:evenodd;fill:#CDCDCF;}
	.st2{fill-rule:evenodd;clip-rule:evenodd;fill:#3D4452;}
</style>
<g>
	<g>
		<path class="st0" d="M64.4,51.74c0,9.48,0,14.64,0,24.11c0,1.62-0.16,1.78-1.77,1.78c-13.1,0-26.21,0-39.31,0
			c-1.65,0-1.78-0.14-1.78-1.89c0-18.87,0-33.42,0-52.29c0-1.77,0.13-1.9,1.77-1.91c13.06,0,26.13,0,39.19,0
			c1.81,0,1.9,0.08,1.9,2.02C64.41,32.95,64.41,42.34,64.4,51.74z M62.4,23.64c-13.02,0-25.93,0-38.81,0c0,18.81,0,33.21,0,51.9
			c12.99,0,25.87,0,38.81,0C62.4,56.79,62.4,42.42,62.4,23.64z"/>
		<path class="st0" d="M42.97,40.53c5.23,0,10.46,0,15.7,0c1.68,0,1.84,0.16,1.84,1.83c0,7.92,0,15.85,0,23.77
			c0,1.68-0.18,1.85-1.83,1.85c-10.38,0-20.77,0-31.15,0c-1.99,0-2.08-0.1-2.08-2.1c0-7.84,0-15.68,0-23.52
			c0-1.66,0.18-1.84,1.84-1.84C32.51,40.53,37.74,40.53,42.97,40.53z M46.8,65.91c0-6.1,0-12.08,0-18.1c-6.5,0-12.92,0-19.34,0
			c0,6.08,0,12.05,0,18.1C33.92,65.91,40.31,65.91,46.8,65.91z M48.86,65.86c3.27,0,6.42,0,9.61,0c0-6.06,0-12.07,0-18.05
			c-3.26,0-6.44,0-9.61,0C48.86,53.86,48.86,59.8,48.86,65.86z M46.82,42.65c-6.53,0-12.95,0-19.36,0c0,1.05,0,1.99,0,2.98
			c6.48,0,12.89,0,19.36,0C46.82,44.61,46.82,43.66,46.82,42.65z M58.52,42.65c-3.29,0-6.47,0-9.63,0c0,1.05,0,1.99,0,2.96
			c3.25,0,6.43,0,9.63,0C58.52,44.59,58.52,43.67,58.52,42.65z"/>
		<path class="st0" d="M25.73,32.76c0-0.66,0-1.2,0-1.83c4.67,0,9.3,0,14.01,0c0,0.6,0,1.17,0,1.83
			C35.11,32.76,30.47,32.76,25.73,32.76z"/>
		<path class="st0" d="M59.45,72.82c-2.55,0-5.07,0-7.65,0c0-0.63,0-1.2,0-1.86c2.53,0,5.05,0,7.65,0
			C59.45,71.56,59.45,72.15,59.45,72.82z"/>
		<path class="st0" d="M33.13,26.89c0,0.66,0,1.2,0,1.82c-2.49,0-4.93,0-7.46,0c0-0.59,0-1.15,0-1.82
			C28.11,26.89,30.58,26.89,33.13,26.89z"/>
		<path class="st0" d="M45.04,36.58c-1.09,0-2.09,0-3.15,0c0-0.63,0-1.2,0-1.86c1.04,0,2.06,0,3.15,0
			C45.04,35.32,45.04,35.88,45.04,36.58z"/>
		<path class="st0" d="M36.48,34.68c1.05,0,2.04,0,3.1,0c0,0.65,0,1.24,0,1.9c-1.06,0-2.04,0-3.1,0
			C36.48,35.96,36.48,35.4,36.48,34.68z"/>
		<path class="st0" d="M34.19,34.69c0,0.67,0,1.24,0,1.88c-1.04,0-2.03,0-3.1,0c0-0.61,0-1.21,0-1.88
			C32.1,34.69,33.08,34.69,34.19,34.69z"/>
		<path class="st0" d="M28.78,34.69c0,0.66,0,1.23,0,1.87c-1.04,0-2.02,0-3.1,0c0-0.6,0-1.2,0-1.87
			C26.67,34.69,27.66,34.69,28.78,34.69z"/>
		<path class="st0" d="M44.86,53.82c0,0.69,0,1.26,0,1.89c-3.32,0-6.58,0-9.93,0c0-0.63,0-1.23,0-1.89
			C38.24,53.82,41.5,53.82,44.86,53.82z"/>
		<path class="st0" d="M44.86,61.87c0,0.69,0,1.26,0,1.9c-3.32,0-6.58,0-9.93,0c0-0.64,0-1.23,0-1.9
			C38.24,61.87,41.51,61.87,44.86,61.87z"/>
		<path class="st0" d="M36.64,57.86c0,0.67,0,1.21,0,1.85c-2.39,0-4.76,0-7.22,0c0-0.58,0-1.17,0-1.85
			C31.8,57.86,34.16,57.86,36.64,57.86z"/>
		<path class="st0" d="M29.4,51.66c0-0.67,0-1.24,0-1.87c2.43,0,4.79,0,7.21,0c0,0.64,0,1.21,0,1.87
			C34.22,51.66,31.86,51.66,29.4,51.66z"/>
		<path class="st0" d="M44.86,49.79c0,0.69,0,1.25,0,1.89c-2.1,0-4.14,0-6.26,0c0-0.63,0-1.23,0-1.89
			C40.68,49.79,42.72,49.79,44.86,49.79z"/>
		<path class="st0" d="M44.87,57.86c0,0.62,0,1.19,0,1.85c-2.09,0-4.16,0-6.29,0c0-0.62,0-1.19,0-1.85
			C40.67,57.86,42.74,57.86,44.87,57.86z"/>
		<path class="st0" d="M29.36,55.69c0-0.66,0-1.19,0-1.84c1.16,0,2.3,0,3.55,0c0,0.56,0,1.16,0,1.84
			C31.77,55.69,30.62,55.69,29.36,55.69z"/>
		<path class="st0" d="M32.95,61.88c0,0.64,0,1.21,0,1.86c-1.17,0-2.32,0-3.54,0c0-0.62,0-1.21,0-1.86
			C30.61,61.88,31.75,61.88,32.95,61.88z"/>
		<path class="st0" d="M50.81,51.65c0-0.63,0-1.2,0-1.85c1.92,0,3.79,0,5.73,0c0,0.61,0,1.18,0,1.85
			C54.69,51.65,52.82,51.65,50.81,51.65z"/>
		<path class="st0" d="M50.83,55.69c0-0.66,0-1.23,0-1.87c1.93,0,3.8,0,5.73,0c0,0.64,0,1.21,0,1.87
			C54.67,55.69,52.8,55.69,50.83,55.69z"/>
		<path class="st0" d="M56.57,57.88c0,0.62,0,1.19,0,1.84c-1.92,0-3.79,0-5.73,0c0-0.6,0-1.17,0-1.84
			C52.68,57.88,54.55,57.88,56.57,57.88z"/>
		<path class="st0" d="M50.82,61.86c1.95,0,3.79,0,5.71,0c0,0.65,0,1.24,0,1.9c-1.91,0-3.78,0-5.71,0
			C50.82,63.12,50.82,62.55,50.82,61.86z"/>
	</g>
	<g>
		<path class="st1" d="M52.34,16.62c3.28,0,5.95,2.66,5.95,5.95c0,3.28-2.66,5.94-5.95,5.94c-3.28,0-5.94-2.66-5.94-5.94
			C46.4,19.28,49.06,16.62,52.34,16.62L52.34,16.62z M52.34,16.62"/>
		<path class="st2" d="M52.34,19.75c1.56,0,2.82,1.26,2.82,2.82c0,1.55-1.26,2.82-2.82,2.82c-1.55,0-2.82-1.26-2.82-2.82
			C49.53,21.01,50.79,19.75,52.34,19.75L52.34,19.75z M52.34,19.75"/>
	</g>
</g>
</svg>
