<?xml version="1.0" encoding="utf-8"?>
<!-- Generator: Adobe Illustrator 27.0.0, SVG Export Plug-In . SVG Version: 6.00 Build 0)  -->
<svg version="1.1" id="Layer_1" xmlns="http://www.w3.org/2000/svg" xmlns:xlink="http://www.w3.org/1999/xlink" x="0px" y="0px"
	 viewBox="0 0 85.95 94.25" style="enable-background:new 0 0 85.95 94.25;" xml:space="preserve">
<style type="text/css">
	.st0{fill:#29B0E4;}
	.st1{fill-rule:evenodd;clip-rule:evenodd;fill:#CDCDCF;}
	.st2{fill-rule:evenodd;clip-rule:evenodd;fill:#3D4452;}
</style>
<g>
	<g>
		<path class="st0" d="M73.08,56.93h-4.6c-0.01-0.91-0.75-1.65-1.66-1.65h-2.14v-1.51c0-0.54-0.44-0.98-0.98-0.98h-6.89
			c-0.54,0-0.98,0.44-0.98,0.98v3.16h-4.76v-3.16c0-0.54-0.44-0.98-0.98-0.98h-2.01v-3.07c6.98-2.18,12.07-8.7,12.07-16.39
			c0-9.46-7.7-17.16-17.17-17.16c-9.46,0-17.17,7.7-17.17,17.16c0,7.69,5.08,14.21,12.07,16.39v3.07h-2.01
			c-0.54,0-0.98,0.44-0.98,0.98v3.16h-4.76v-3.16c0-0.54-0.44-0.98-0.98-0.98h-6.89c-0.54,0-0.98,0.44-0.98,0.98v1.51h-2.14
			c-0.91,0-1.65,0.74-1.66,1.65h-4.6c-0.54,0-0.98,0.44-0.98,0.98v13.76c0,0.54,0.44,0.98,0.98,0.98h4.6
			c0.01,0.91,0.75,1.65,1.66,1.65h2.14v1.51c0,0.54,0.44,0.98,0.98,0.98h6.89c0.54,0,0.98-0.44,0.98-0.98v-3.16h25.71v3.16
			c0,0.54,0.44,0.98,0.98,0.98h6.89c0.54,0,0.98-0.44,0.98-0.98V74.3h2.14c0.91,0,1.65-0.74,1.66-1.65h4.6
			c0.54,0,0.98-0.44,0.98-0.98V57.91C74.06,57.37,73.63,56.93,73.08,56.93z M27.77,33.33c0-8.38,6.82-15.21,15.21-15.21
			c8.39,0,15.21,6.82,15.21,15.21c0,8.38-6.82,15.21-15.21,15.21C34.59,48.54,27.77,41.71,27.77,33.33z M39.83,50.2
			c1.02,0.19,2.07,0.29,3.14,0.29c1.07,0,2.12-0.1,3.14-0.29v2.59h-6.28V50.2z M36.84,54.75h2.01h8.24h2.01v2.07H36.84V54.75z
			 M13.84,58.88h3.62v11.81h-3.62V58.88z M28.16,74.83h-4.93v-1.51v-1.8V60.58c0-0.54-0.44-0.98-0.98-0.98
			c-0.54,0-0.98,0.44-0.98,0.98v10.94v0.82h-1.85v-0.67V57.91v-0.67h2.83c0.54,0,0.98-0.44,0.98-0.98v-1.51h4.93v3.16v13.76V74.83z
			 M30.12,70.69V58.88h25.71v11.81H30.12z M66.53,72.34H63.7c-0.54,0-0.98,0.44-0.98,0.98v1.51h-4.93v-3.16V57.91v-3.16h4.93v1.51
			v1.8V69c0,0.54,0.44,0.98,0.98,0.98c0.54,0,0.98-0.44,0.98-0.98V58.05v-0.82h1.85v0.67v13.76V72.34z M72.11,70.69h-3.62V58.88
			h3.62V70.69z"/>
		<path class="st0" d="M56.57,33.33c0-7.5-6.1-13.6-13.6-13.6c-7.5,0-13.6,6.1-13.6,13.6c0,7.5,6.1,13.6,13.6,13.6
			C50.47,46.93,56.57,40.83,56.57,33.33z M31.33,33.33c0-6.42,5.22-11.64,11.64-11.64c6.42,0,11.64,5.22,11.64,11.64
			c0,6.42-5.22,11.64-11.64,11.64C36.56,44.97,31.33,39.75,31.33,33.33z"/>
		<path class="st0" d="M43.95,37.11v-1.44c0.93-0.39,1.59-1.3,1.59-2.37c0-1.07-0.66-1.98-1.59-2.37v-6.42
			c0-0.54-0.44-0.98-0.98-0.98c-0.54,0-0.98,0.44-0.98,0.98v6.42c-0.93,0.39-1.59,1.3-1.59,2.37c0,1.07,0.66,1.98,1.59,2.37v1.44
			c0,0.54,0.44,0.98,0.98,0.98C43.51,38.09,43.95,37.65,43.95,37.11z M42.97,33.91c-0.33,0-0.61-0.27-0.61-0.61
			c0-0.34,0.27-0.61,0.61-0.61c0.34,0,0.61,0.27,0.61,0.61C43.58,33.64,43.31,33.91,42.97,33.91z"/>
	</g>
	<g>
		<path class="st1" d="M46.98,66.19c3.28,0,5.95,2.66,5.95,5.95c0,3.28-2.66,5.94-5.95,5.94c-3.28,0-5.94-2.66-5.94-5.94
			C41.03,68.86,43.69,66.19,46.98,66.19L46.98,66.19z M46.98,66.19"/>
		<path class="st2" d="M46.98,69.32c1.56,0,2.82,1.26,2.82,2.82c0,1.55-1.26,2.82-2.82,2.82c-1.55,0-2.82-1.26-2.82-2.82
			C44.16,70.59,45.42,69.32,46.98,69.32L46.98,69.32z M46.98,69.32"/>
	</g>
</g>
</svg>
