<?xml version="1.0" encoding="utf-8"?>
<!-- Generator: Adobe Illustrator 27.0.0, SVG Export Plug-In . SVG Version: 6.00 Build 0)  -->
<svg version="1.1" id="Layer_1" xmlns="http://www.w3.org/2000/svg" xmlns:xlink="http://www.w3.org/1999/xlink" x="0px" y="0px"
	 viewBox="0 0 85.95 94.25" style="enable-background:new 0 0 85.95 94.25;" xml:space="preserve">
<style type="text/css">
	.st0{fill:#29B0E4;stroke:#29B0E4;stroke-width:0.8489;stroke-miterlimit:10;}
	.st1{fill-rule:evenodd;clip-rule:evenodd;fill:#CDCDCF;}
	.st2{fill-rule:evenodd;clip-rule:evenodd;fill:#3D4452;}
	.st3{fill:none;stroke:#29B0E4;stroke-width:2.3688;stroke-miterlimit:10;}
</style>
<g>
	<g>
		<path class="st0" d="M49.07,55.04c-1.64-1.76-2.96-3.16-4.41-4.71c-4.54,3.33-9.85,4.22-15.47,2.55c-4.1-1.22-7.29-3.79-9.53-7.48
			c-4.51-7.44-2.67-17.39,4.18-22.53c7.19-5.4,17.04-4.62,23.09,1.8c5.78,6.13,6.81,16.7-0.64,24.36c1.34,1.43,2.69,2.86,4.27,4.55
			c0.53-0.55,1.22-1.27,1.9-1.98c0.69-0.71,1.27-0.69,1.95,0.1c4.64,5.33,9.3,10.65,13.98,15.95c0.75,0.86,0.7,1.53-0.15,2.26
			c-1.75,1.5-3.48,3.02-5.2,4.55c-0.78,0.69-1.44,0.67-2.14-0.13c-4.69-5.36-9.38-10.72-14.09-16.06c-0.63-0.72-0.61-1.29,0.14-1.83
			C47.64,55.96,48.36,55.52,49.07,55.04z M49.9,37.45c0.56-8.58-5.93-15.97-14.5-16.53c-8.53-0.55-16,5.98-16.57,14.5
			C18.26,44,24.73,51.41,33.3,51.98C42.03,52.57,49.33,46.18,49.9,37.45z M61.95,72.92c1.71-1.44,3.38-2.83,4.96-4.16
			c-4.54-5.18-9.08-10.36-13.54-15.45c-1.56,1.34-3.26,2.79-4.92,4.21C52.95,62.67,57.47,67.81,61.95,72.92z"/>
	</g>
	<g>
		<path class="st1" d="M23.73,41.56c2.56,1.14,3.71,4.14,2.57,6.7c-1.14,2.56-4.14,3.71-6.7,2.57c-2.56-1.14-3.71-4.14-2.57-6.7
			C18.17,41.57,21.17,40.42,23.73,41.56L23.73,41.56z M23.73,41.56"/>
		<path class="st2" d="M22.64,44c1.21,0.54,1.76,1.96,1.22,3.17c-0.54,1.21-1.96,1.76-3.17,1.22c-1.21-0.54-1.76-1.96-1.22-3.17
			C20.01,44,21.43,43.46,22.64,44L22.64,44z M22.64,44"/>
	</g>
	<g>
		<line class="st3" x1="26.6" y1="40.25" x2="32.52" y2="26.96"/>
		<line class="st3" x1="32.2" y1="42.74" x2="37.03" y2="31.89"/>
		<line class="st3" x1="37.52" y1="45.11" x2="41.05" y2="37.18"/>
	</g>
</g>
</svg>
