<?xml version="1.0" encoding="utf-8"?>
<!-- Generator: Adobe Illustrator 27.0.0, SVG Export Plug-In . SVG Version: 6.00 Build 0)  -->
<svg version="1.1" id="Layer_1" xmlns="http://www.w3.org/2000/svg" xmlns:xlink="http://www.w3.org/1999/xlink" x="0px" y="0px"
	 viewBox="0 0 85.95 94.25" style="enable-background:new 0 0 85.95 94.25;" xml:space="preserve">
<style type="text/css">
	.st0{fill:#29B0E4;}
	.st1{fill-rule:evenodd;clip-rule:evenodd;fill:#CDCDCF;}
	.st2{fill-rule:evenodd;clip-rule:evenodd;fill:#3D4452;}
</style>
<g>
	<g>
		<g>
			<path class="st0" d="M67.18,53.37c-0.05-2.25-0.52-4.44-1.4-6.51c-0.9-2.12-2.18-4.02-3.81-5.65c-1.63-1.63-3.53-2.91-5.65-3.81
				c-2.2-0.93-4.53-1.4-6.93-1.4h-3.28v-0.33c0-2.37-1.93-4.31-4.31-4.31h-1.96v-4.68h0.32c0.4,0,0.74-0.28,0.83-0.67L41.44,24h5.28
				c1.42,0,2.58-1.16,2.58-2.58c0-1.42-1.16-2.58-2.58-2.58h-6.47c-0.37-1.26-1.54-2.19-2.92-2.19c-1.38,0-2.55,0.93-2.92,2.19
				h-6.47c-1.42,0-2.58,1.16-2.58,2.58c0,1.42,1.16,2.58,2.58,2.58h5.28l0.44,2.01c0.09,0.39,0.43,0.67,0.83,0.67h0.32v4.68h-1.96
				c-2.37,0-4.31,1.93-4.31,4.31v0.33H16.75c-0.47,0-0.85,0.38-0.85,0.85v11.23c0,0.47,0.38,0.85,0.85,0.85h9.06
				c1.38,0,2.61,0.89,3.07,2.22c1.3,3.75,4.85,6.27,8.81,6.27c3.97,0,7.51-2.52,8.81-6.27c0.45-1.28,1.62-2.18,2.92-2.25
				c2.54,0.02,4.63,1.98,4.84,4.48c-1.59,0.12-2.84,1.45-2.84,3.07c0,1.7,1.38,3.08,3.08,3.08h12.47c1.7,0,3.08-1.38,3.08-3.08
				C70.05,54.81,68.78,53.47,67.18,53.37z M37.33,18.35c0.42,0,0.79,0.19,1.04,0.49h-2.08C36.54,18.54,36.91,18.35,37.33,18.35z
				 M27.06,21.42c0-0.49,0.4-0.88,0.88-0.88h18.77c0.49,0,0.88,0.4,0.88,0.88c0,0.49-0.4,0.88-0.88,0.88h-5.96h-6.85h-5.96
				C27.46,22.31,27.06,21.91,27.06,21.42z M39.7,24l-0.21,0.98h-4.31L34.96,24H39.7z M36.51,26.71h1.64v4.65h-1.64V26.71z
				 M30.24,35.67c0-1.44,1.17-2.61,2.61-2.61h2.81H39h2.81c1.44,0,2.61,1.17,2.61,2.61v0.33H30.24V35.67z M49.42,47.19
				c0,0-0.01,0-0.01,0h-0.02c-0.03,0-0.06,0-0.08,0c-1.97,0.11-3.74,1.46-4.41,3.38c-1.07,3.07-3.96,5.13-7.21,5.13
				c-3.25,0-6.15-2.06-7.21-5.13c-0.7-2.01-2.58-3.36-4.67-3.36H17.6v-9.53h11.79h15.88h4.13c2.17,0,4.28,0.43,6.27,1.27
				c1.92,0.81,3.64,1.97,5.11,3.45c1.48,1.48,2.64,3.2,3.45,5.11c0.79,1.86,1.21,3.82,1.26,5.84h-9.51
				C55.75,49.93,52.9,47.21,49.42,47.19z M66.97,57.82H54.5c-0.76,0-1.38-0.62-1.38-1.38c0-0.76,0.62-1.38,1.38-1.38h12.47
				c0.76,0,1.38,0.62,1.38,1.38C68.35,57.2,67.73,57.82,66.97,57.82z"/>
			<path class="st0" d="M66.16,67.41l-4.55-6.05c-0.16-0.21-0.41-0.34-0.68-0.34c0,0,0,0,0,0c-0.26,0-0.51,0.12-0.67,0.33
				l-4.61,6.05c-0.01,0.01-0.02,0.03-0.03,0.04c-0.76,1.09-1.16,2.36-1.16,3.7c0,3.56,2.89,6.45,6.45,6.45
				c3.56,0,6.45-2.89,6.45-6.45c0-1.34-0.41-2.62-1.18-3.71C66.17,67.43,66.17,67.42,66.16,67.41z M60.91,75.9
				c-2.62,0-4.75-2.13-4.75-4.75c0-0.98,0.3-1.93,0.86-2.73l3.92-5.14l3.86,5.14c0.56,0.8,0.86,1.74,0.86,2.73
				C65.66,73.77,63.53,75.9,60.91,75.9z"/>
		</g>
	</g>
	<g>
		<path class="st1" d="M60.73,35.27c3.28,0,5.95,2.66,5.95,5.95c0,3.28-2.66,5.94-5.95,5.94c-3.28,0-5.94-2.66-5.94-5.94
			C54.79,37.93,57.45,35.27,60.73,35.27L60.73,35.27z M60.73,35.27"/>
		<path class="st2" d="M60.73,38.4c1.56,0,2.82,1.26,2.82,2.82c0,1.55-1.26,2.82-2.82,2.82c-1.55,0-2.82-1.26-2.82-2.82
			C57.92,39.66,59.18,38.4,60.73,38.4L60.73,38.4z M60.73,38.4"/>
	</g>
</g>
</svg>
