<?xml version="1.0" encoding="utf-8"?>
<!-- Generator: Adobe Illustrator 27.0.0, SVG Export Plug-In . SVG Version: 6.00 Build 0)  -->
<svg version="1.1" id="Layer_1" xmlns="http://www.w3.org/2000/svg" xmlns:xlink="http://www.w3.org/1999/xlink" x="0px" y="0px"
	 viewBox="0 0 85.95 94.25" style="enable-background:new 0 0 85.95 94.25;" xml:space="preserve">
<style type="text/css">
	.st0{fill:#29B0E4;stroke:#29B0E4;stroke-width:0.5265;stroke-miterlimit:10;}
	.st1{fill:#29B0E4;}
	.st2{fill:#FFFFFF;}
	.st3{fill-rule:evenodd;clip-rule:evenodd;fill:#CDCDCF;}
	.st4{fill-rule:evenodd;clip-rule:evenodd;fill:#3D4452;}
</style>
<g>
	<g>
		<g>
			<path class="st0" d="M38.47,70.85c0,0.56,0,1.02,0,1.67c-1.28-0.06-2.56,0.01-3.77-0.23c-1.16-0.23-1.87-1.15-2.06-2.34
				c-0.11-0.71-0.08-1.45-0.12-2.17c-0.04-0.84-0.39-1.43-1.23-1.71c-0.6-0.2-1.18-0.45-1.75-0.72c-0.94-0.47-1.76-0.35-2.48,0.42
				c-0.28,0.3-0.57,0.59-0.87,0.87c-1.42,1.35-3.14,1.35-4.55-0.02c-1.33-1.3-2.65-2.62-3.95-3.95c-1.29-1.31-1.48-3.18-0.09-4.37
				c1.74-1.49,1.9-2.92,0.84-4.85c-0.74-1.34-0.95-1.65-2.49-1.68c-0.69-0.01-1.41,0.01-2.06-0.18c-1.26-0.37-2.04-1.57-2.06-2.98
				c-0.02-1.83-0.03-3.66,0-5.49c0.03-2.13,1.25-3.33,3.36-3.36c0.41,0,0.82,0.01,1.23-0.01c0.91-0.04,1.58-0.43,1.84-1.34
				c0.37-1.34,1.77-2.59,0.34-4.08c-0.37-0.39-0.77-0.75-1.13-1.15c-1.04-1.17-1.09-2.91-0.02-4.05c1.43-1.51,2.9-2.99,4.42-4.42
				c1.23-1.15,3.06-1.2,4.16,0.11c1.44,1.72,2.84,1.9,4.76,0.86c1.45-0.79,1.7-0.9,1.74-2.54c0.02-0.72,0.05-1.47,0.26-2.14
				c0.34-1.07,1.18-1.7,2.29-1.87c0.49-0.08,1.01-0.05,1.51-0.06c0.59-0.01,1.19,0,1.85,0c0,0.55,0,1,0,1.6
				c-0.83,0-1.67-0.01-2.51,0c-1.25,0.02-1.77,0.54-1.8,1.79c-0.01,0.44,0.01,0.88-0.01,1.33c-0.06,1.5-0.78,2.56-2.17,3.14
				c-0.64,0.27-1.29,0.51-1.92,0.8c-1.5,0.69-2.86,0.48-3.98-0.7c-2.24-2.37-2.69-1.61-4.37,0.11c-0.9,0.93-1.84,1.82-2.74,2.75
				c-0.87,0.89-0.85,1.63,0.02,2.53c0.33,0.34,0.72,0.64,0.98,1.02c0.33,0.48,0.66,1.01,0.82,1.57c0.43,1.53-1.12,5.17-2.54,5.87
				c-0.62,0.31-1.38,0.42-2.08,0.44c-2.47,0.06-2.67,0.23-2.68,2.73c0,1.45-0.01,2.9,0,4.36c0.01,1.25,0.54,1.77,1.79,1.79
				c0.44,0.01,0.88-0.01,1.33,0c1.48,0.04,2.5,0.75,3.1,2.09c0.32,0.72,0.6,1.46,0.9,2.18c0.6,1.41,0.33,2.65-0.71,3.74
				c-2.13,2.22-2.13,2.22,0.06,4.42c0.93,0.94,1.87,1.88,2.82,2.81c0.78,0.75,1.65,0.84,2.31,0.01c1.8-2.24,3.8-2.36,6.27-1.14
				c2.27,1.12,2.8,1.67,2.8,4.22c0,1.92,0.39,2.31,2.32,2.32C37.11,70.85,37.77,70.85,38.47,70.85z"/>
			<g>
				<g>
					<path class="st1" d="M45.82,41.23c-0.4,0-0.8,0-1.23,0c0,0.72,0,1.25,0,1.99c0.55,0,1,0,1.45,0c4.73,0,9.46,0.02,14.2-0.02
						c0.8-0.01,1.27,0.15,1.67,0.94c0.83,1.61,2.69,2.29,4.41,1.82c1.69-0.46,2.84-2.04,2.8-3.86c-0.03-1.75-1.22-3.23-2.92-3.64
						c-1.77-0.43-3.49,0.3-4.33,1.95c-0.33,0.64-0.69,0.84-1.39,0.84C55.59,41.21,50.71,41.23,45.82,41.23z M35.17,38.8
						c0,0.66,0,1.18,0,1.9c1.48,0,2.89,0.03,4.29-0.01c2.3-0.05,3.81-1.62,3.84-3.94c0.01-1.22,0.02-2.44,0-3.66
						c-0.02-1.09,0.24-1.98,1.41-2.32c0.74-0.21,2.93-0.16,4.96-0.16c0.78,0,0.64,0.73,0.94,1.2c0.93,1.42,2.67,2.09,4.29,1.64
						c1.65-0.46,2.82-2,2.83-3.73c0.01-1.74-1.11-3.23-2.81-3.74c-1.6-0.48-3.49,0.09-4.26,1.6c-0.27,0.53-0.04,0.99-0.55,0.99
						c-1.71,0-4.15,0.2-4.66,0.19c-2.5-0.04-4,1.43-4.09,3.91c-0.05,1.26,0,2.52-0.02,3.77c-0.03,1.7-0.67,2.33-2.37,2.35
						C37.73,38.81,36.48,38.8,35.17,38.8z M27.72,47.02c3.67,0,12.96,0,16.47,0c0-0.67,0-1.26,0-1.83c-3.61,0-12.9,0-16.47,0
						C27.72,45.83,27.72,46.39,27.72,47.02z M74.12,60.41c-0.79-1.99-3.11-3-5.11-2.08c-0.84,0.39-1.34,0.22-1.99-0.32
						c-2.47-2.04-5.03-3.97-7.49-6.03c-1.7-1.42-3.6-2.05-5.79-2.04c-5.76,0.02-11.52,0.01-17.29,0.01c-0.4,0-0.81,0-1.28,0
						c0,0.72,0,1.27,0,2c0.53,0,0.94,0,1.36,0c5.88,0,11.75,0.01,17.63-0.01c1.48,0,2.75,0.45,3.9,1.38
						c2.58,2.09,5.17,4.17,7.78,6.21c0.68,0.53,1.15,1,0.85,1.97c-0.14,0.47-0.02,1.07,0.14,1.57c0.65,2.08,2.9,3.18,4.95,2.46
						C73.88,64.79,74.94,62.48,74.12,60.41z M70.52,63.8c-1.06,0.01-1.98-0.93-1.96-1.98c0.02-1.08,0.93-1.92,2.04-1.87
						c1.06,0.05,1.84,0.89,1.82,1.95C72.39,62.96,71.55,63.8,70.52,63.8z M25.39,47.24c-0.11-3.39,0.83-6.41,2.97-9.02
						c2.59-3.16,6.03-4.66,10.1-4.88c0-0.64,0-1.19,0-1.92c-5.79,0.27-10.21,2.71-13.01,7.63c-3.07,5.38-2.83,10.85,0.58,16.01
						c2.88,4.36,7.11,6.48,12.41,6.68c0-0.71,0-1.29,0-1.86C30.42,58.67,25.6,53.96,25.39,47.24z M53.87,68.12
						c-0.63-0.32-0.77-0.69-0.76-1.32c0.02-3.24,0.03-1.71,0-4.95c-0.03-2.81-2.23-5.54-4.94-5.74c-3.07-0.22-6.17-0.06-9.25-0.06
						c-0.05,0-0.11,0.1-0.16,0.14c0,0.53,0,1.05,0,1.7c2.77,0,5.4-0.01,8.03,0c2.6,0.01,4.31,1.68,4.34,4.26
						c0.03,3.17,0,1.55,0.04,4.72c0.01,0.61-0.16,0.93-0.73,1.22c-1.74,0.9-2.5,2.61-2.07,4.39c0.4,1.65,1.98,2.93,3.65,2.95
						c1.81,0.02,3.41-1.15,3.85-2.82C56.35,70.78,55.62,69,53.87,68.12z M54.04,71.76c-0.11,1.03-1.05,1.82-2.05,1.73
						c-1.07-0.1-1.91-1.11-1.8-2.14c0.11-0.99,1.13-1.84,2.08-1.74C53.36,69.74,54.15,70.7,54.04,71.76z"/>
				</g>
			</g>
			<path class="st2" d="M52.27,69.62c1.09,0.12,1.88,1.08,1.77,2.14c-0.11,1.03-1.05,1.82-2.05,1.73c-1.07-0.1-1.91-1.11-1.8-2.13
				C50.3,70.37,51.32,69.52,52.27,69.62z"/>
		</g>
	</g>
	<g>
		<path class="st3" d="M66.37,36.34c3.28,0,5.95,2.66,5.95,5.95c0,3.28-2.66,5.94-5.95,5.94c-3.28,0-5.94-2.66-5.94-5.94
			C60.42,39,63.08,36.34,66.37,36.34L66.37,36.34z M66.37,36.34"/>
		<path class="st4" d="M66.37,39.47c1.56,0,2.82,1.26,2.82,2.82c0,1.55-1.26,2.82-2.82,2.82c-1.55,0-2.82-1.26-2.82-2.82
			C63.55,40.73,64.81,39.47,66.37,39.47L66.37,39.47z M66.37,39.47"/>
	</g>
</g>
</svg>
