<?xml version="1.0" encoding="utf-8"?>
<!-- Generator: Adobe Illustrator 27.0.0, SVG Export Plug-In . SVG Version: 6.00 Build 0)  -->
<svg version="1.1" id="Layer_1" xmlns="http://www.w3.org/2000/svg" xmlns:xlink="http://www.w3.org/1999/xlink" x="0px" y="0px"
	 viewBox="0 0 85.95 94.25" style="enable-background:new 0 0 85.95 94.25;" xml:space="preserve">
<style type="text/css">
	.st0{fill:#FFFFFF;}
	.st1{fill-rule:evenodd;clip-rule:evenodd;fill:#CECED0;}
	.st2{fill-rule:evenodd;clip-rule:evenodd;fill:#3D4553;}
</style>
<g>
	<g>
		<path class="st0" d="M53.16,60.48H33.13c-1.76,0-3.18-1.57-3.18-3.5c0-1.62,1.01-2.99,2.37-3.38c0.96-2.2,1.46-4.64,1.46-7.08
			v-1.18c0-5.67,4.2-10.29,9.36-10.29c5.16,0,9.36,4.62,9.36,10.29v1.13c0,2.37,0.45,4.66,1.35,6.81l0.12,0.28
			c1.39,0.32,2.37,1.69,2.37,3.42C56.34,58.91,54.91,60.48,53.16,60.48z M33.13,55.59c-0.7,0-1.27,0.63-1.27,1.4
			c0,0.77,0.57,1.4,1.27,1.4h20.03c0.7,0,1.27-0.63,1.27-1.4c0-0.67-0.35-1.4-1.1-1.4c-0.37,0-0.72-0.24-0.87-0.62l-0.34-0.82
			c-1.01-2.43-1.52-5.01-1.52-7.68v-1.13c0-4.52-3.34-8.19-7.45-8.19c-4.11,0-7.45,3.67-7.45,8.19v1.18c0,2.38-0.43,4.76-1.24,6.97
			h7.96c0.53,0,0.96,0.47,0.96,1.05c0,0.58-0.43,1.05-0.96,1.05H33.13z"/>
		<path class="st0" d="M43.08,33.96c-0.58,0-1.05-0.47-1.05-1.05V28.6c0-0.58,0.47-1.05,1.05-1.05s1.05,0.47,1.05,1.05v4.31
			C44.13,33.49,43.66,33.96,43.08,33.96z"/>
		<path class="st0" d="M66.62,55.95c-0.27,0-0.54-0.1-0.74-0.31c-0.41-0.41-0.41-1.08,0-1.49c1.71-1.71,2.65-3.98,2.65-6.39
			c0-2.41-0.94-4.68-2.65-6.39c-0.41-0.41-0.41-1.08,0-1.49c0.41-0.41,1.08-0.41,1.49,0c2.1,2.1,3.26,4.9,3.26,7.88
			c0,2.98-1.16,5.77-3.26,7.88C67.16,55.85,66.89,55.95,66.62,55.95z"/>
		<path class="st0" d="M69.95,59.28c-0.27,0-0.54-0.1-0.74-0.31c-0.41-0.41-0.41-1.08,0-1.49c2.6-2.6,4.03-6.05,4.03-9.72
			s-1.43-7.13-4.03-9.72c-0.41-0.41-0.41-1.08,0-1.49c0.41-0.41,1.08-0.41,1.49,0c2.99,2.99,4.64,6.97,4.64,11.21
			c0,4.23-1.65,8.21-4.64,11.21C70.49,59.18,70.22,59.28,69.95,59.28z"/>
		<path class="st0" d="M19.33,55.95c-0.27,0-0.54-0.1-0.74-0.31c-2.1-2.1-3.26-4.9-3.26-7.88c0-2.98,1.16-5.77,3.26-7.88
			c0.41-0.41,1.08-0.41,1.49,0c0.41,0.41,0.41,1.08,0,1.49c-1.71,1.71-2.65,3.98-2.65,6.39c0,2.41,0.94,4.69,2.65,6.39
			c0.41,0.41,0.41,1.08,0,1.49C19.87,55.85,19.6,55.95,19.33,55.95z"/>
		<path class="st0" d="M16,59.28c-0.27,0-0.54-0.1-0.74-0.31c-2.99-2.99-4.64-6.97-4.64-11.21c0-4.23,1.65-8.21,4.64-11.21
			c0.41-0.41,1.08-0.41,1.49,0c0.41,0.41,0.41,1.08,0,1.49c-2.6,2.6-4.03,6.05-4.03,9.72s1.43,7.13,4.03,9.72
			c0.41,0.41,0.41,1.08,0,1.49C16.54,59.18,16.27,59.28,16,59.28z"/>
		<g>
			<path class="st0" d="M56.36,75.43H30.08c-2.79,0-5.05-2.27-5.05-5.05V19.62c0-2.79,2.27-5.05,5.05-5.05h26.28
				c2.79,0,5.05,2.27,5.05,5.05v50.75C61.42,73.16,59.15,75.43,56.36,75.43z M30.08,16.59c-1.67,0-3.03,1.36-3.03,3.03v50.75
				c0,1.67,1.36,3.03,3.03,3.03h26.28c1.67,0,3.03-1.36,3.03-3.03V19.62c0-1.67-1.36-3.03-3.03-3.03H30.08z"/>
			<path class="st0" d="M50.7,22.05H35.74c-1.45,0-2.63-1.18-2.63-2.63v-3.84c0-0.56,0.45-1.01,1.01-1.01h18.2
				c0.56,0,1.01,0.45,1.01,1.01v3.84C53.33,20.87,52.15,22.05,50.7,22.05z M35.13,16.59v2.83c0,0.33,0.27,0.61,0.61,0.61H50.7
				c0.33,0,0.61-0.27,0.61-0.61v-2.83H35.13z"/>
		</g>
	</g>
	<g>
		<path class="st1" d="M43.53,69.59c2.79,0,5.05,2.26,5.05,5.05c0,2.78-2.26,5.04-5.05,5.04c-2.79,0-5.04-2.26-5.04-5.04
			C38.49,71.85,40.75,69.59,43.53,69.59L43.53,69.59z M43.53,69.59"/>
		<path class="st2" d="M43.53,72.25c1.32,0,2.39,1.07,2.39,2.39c0,1.32-1.07,2.39-2.39,2.39c-1.32,0-2.39-1.07-2.39-2.39
			C41.14,73.32,42.21,72.25,43.53,72.25L43.53,72.25z M43.53,72.25"/>
	</g>
</g>
</svg>
