<?xml version="1.0" encoding="utf-8"?>
<!-- Generator: Adobe Illustrator 27.0.0, SVG Export Plug-In . SVG Version: 6.00 Build 0)  -->
<svg version="1.1" id="Layer_1" xmlns="http://www.w3.org/2000/svg" xmlns:xlink="http://www.w3.org/1999/xlink" x="0px" y="0px"
	 viewBox="0 0 85.95 94.25" style="enable-background:new 0 0 85.95 94.25;" xml:space="preserve">
<style type="text/css">
	.st0{fill:#FFFFFF;}
	.st1{fill-rule:evenodd;clip-rule:evenodd;fill:#CECED0;}
	.st2{fill-rule:evenodd;clip-rule:evenodd;fill:#3D4553;}
</style>
<g>
	<g>
		<g>
			<path class="st0" d="M67.69,35.38c1.08-0.32,2.11-0.66,3.15-0.94c0.94-0.26,1.3,0.1,1.01,1.04c-0.74,2.35-1.52,4.69-2.29,7.03
				c-0.21,0.63-0.63,0.89-1.19,0.48c-2.04-1.5-4.07-3.03-6.06-4.59c-0.2-0.15-0.14-0.63-0.2-0.95c0.36,0,0.83-0.14,1.07,0.03
				c1.49,1.05,2.93,2.18,4.39,3.28c0.26,0.19,0.53,0.37,0.94,0.66c0.54-1.82,1.03-3.51,1.58-5.34c-0.75,0.22-1.47,0.39-2.15,0.64
				c-0.79,0.3-1.21,0.08-1.57-0.69c-2.2-4.68-5.51-8.41-9.89-11.16c-10.72-6.74-25.25-4.33-33.34,5.51
				c-0.09,0.12-0.16,0.3-0.28,0.34c-0.39,0.16-0.8,0.28-1.2,0.41c0.06-0.42-0.03-0.97,0.21-1.25c6.15-7.39,14.06-10.88,23.62-9.99
				c9.85,0.92,17.04,6.07,21.69,14.78c0.09,0.16,0.18,0.33,0.27,0.49C67.5,35.21,67.56,35.26,67.69,35.38z"/>
			<path class="st0" d="M68.88,43.65c-0.21,0-0.48-0.07-0.78-0.29c-2.24-1.65-4.22-3.15-6.07-4.6c-0.3-0.23-0.32-0.63-0.34-0.95
				c-0.01-0.1-0.01-0.2-0.03-0.29c-0.03-0.14,0.01-0.27,0.1-0.38c0.09-0.1,0.22-0.17,0.35-0.17h0c0.1-0.04,0.2-0.01,0.31-0.02
				c0.34-0.04,0.72-0.08,1.03,0.14c1.09,0.77,2.15,1.58,3.21,2.38l1.19,0.91c0.13,0.1,0.26,0.19,0.41,0.29l1.16-3.94
				c-0.45,0.12-0.89,0.25-1.31,0.41c-0.99,0.38-1.68,0.08-2.15-0.92c-2.15-4.57-5.42-8.26-9.72-10.97
				c-10.46-6.57-24.84-4.2-32.74,5.41c-0.12,0.2-0.24,0.39-0.45,0.48c-0.29,0.12-0.59,0.22-0.89,0.31l-0.34,0.11
				c-0.15,0.05-0.32,0.02-0.44-0.08c-0.12-0.1-0.18-0.26-0.16-0.42c0.02-0.12,0.02-0.25,0.02-0.38c0.01-0.37,0.02-0.79,0.28-1.1
				c6.35-7.63,14.43-11.05,24.02-10.15c9.8,0.92,17.22,5.97,22.06,15.02c0.07,0.14,0.15,0.28,0.23,0.41l0.7-0.21
				c0.74-0.23,1.47-0.45,2.2-0.65c0.65-0.18,1.13-0.11,1.42,0.2c0.3,0.31,0.35,0.79,0.15,1.42c-0.52,1.65-1.06,3.29-1.6,4.94
				L70,42.66c-0.21,0.63-0.56,0.87-0.81,0.95C69.1,43.63,69,43.65,68.88,43.65z M62.61,37.86c0.01,0.09,0.02,0.19,0.03,0.23
				c1.79,1.39,3.77,2.89,6,4.53c0.12,0.09,0.22,0.12,0.25,0.11c0.04-0.01,0.14-0.1,0.22-0.36l0.69-2.1c0.54-1.64,1.08-3.28,1.6-4.93
				c0.12-0.37,0.07-0.5,0.06-0.51l0,0c-0.01,0-0.14-0.05-0.52,0.05c-0.72,0.2-1.44,0.42-2.17,0.64l-0.97,0.29
				c-0.16,0.05-0.33,0.01-0.45-0.11l-0.1-0.1c-0.07-0.06-0.14-0.12-0.2-0.22c-0.1-0.17-0.2-0.34-0.29-0.52
				c-4.68-8.76-11.86-13.65-21.33-14.54c-9.27-0.86-17.08,2.44-23.22,9.83c-0.04,0.04-0.05,0.17-0.06,0.31
				c0.18-0.06,0.35-0.12,0.52-0.19c0.01-0.09,0.05-0.16,0.1-0.21c8.19-9.96,23.1-12.43,33.94-5.61c4.45,2.8,7.84,6.62,10.07,11.35
				c0.29,0.61,0.48,0.65,0.99,0.46c0.48-0.18,0.98-0.32,1.5-0.46c0.23-0.06,0.46-0.12,0.69-0.19c0.16-0.04,0.34,0,0.46,0.12
				c0.12,0.12,0.16,0.29,0.12,0.46l-1.58,5.35c-0.04,0.14-0.15,0.26-0.29,0.3c-0.14,0.05-0.29,0.03-0.42-0.06l-0.39-0.27
				c-0.22-0.15-0.4-0.27-0.57-0.4l-1.2-0.91c-1.05-0.8-2.1-1.6-3.18-2.36C62.89,37.84,62.74,37.85,62.61,37.86z"/>
		</g>
		<g>
			<path class="st0" d="M17.42,52.22c-0.55,1.87-1.04,3.54-1.58,5.37c0.74-0.21,1.47-0.37,2.17-0.62c0.73-0.27,1.13-0.13,1.49,0.62
				c2.44,5.15,6.13,9.15,11.13,11.92c10.61,5.87,24.25,3.3,32.02-6.05c0.17-0.2,0.28-0.5,0.49-0.6c0.35-0.15,0.77-0.18,1.15-0.25
				c-0.03,0.36,0.06,0.82-0.12,1.06c-2.33,2.98-5.16,5.39-8.53,7.14C42,77.89,25.92,72.77,18.78,59.06
				c-0.32-0.61-0.62-0.83-1.3-0.56c-0.8,0.32-1.63,0.54-2.46,0.77c-0.82,0.23-1.2-0.13-0.95-0.93c0.74-2.39,1.52-4.77,2.29-7.15
				c0.26-0.79,0.75-0.87,1.37-0.4c1.91,1.44,3.82,2.87,5.69,4.35c0.26,0.2,0.26,0.72,0.38,1.1c-0.4-0.03-0.9,0.09-1.17-0.1
				C20.94,54.93,19.29,53.64,17.42,52.22z"/>
			<path class="st0" d="M42.94,74.41c-10,0-19.53-5.47-24.57-15.14c-0.25-0.48-0.34-0.49-0.72-0.34c-0.8,0.32-1.63,0.55-2.44,0.77
				c-0.81,0.22-1.2,0.02-1.4-0.19c-0.2-0.2-0.39-0.6-0.18-1.3c0.6-1.94,1.23-3.88,1.86-5.81l0.44-1.35
				c0.17-0.52,0.44-0.84,0.82-0.96c0.38-0.12,0.81-0.01,1.26,0.33l0.85,0.64c1.6,1.21,3.26,2.45,4.86,3.72
				c0.31,0.24,0.38,0.64,0.45,0.98c0.02,0.12,0.05,0.23,0.08,0.33c0.05,0.15,0.02,0.3-0.07,0.43c-0.09,0.12-0.23,0.18-0.39,0.18
				c-0.11-0.01-0.23,0-0.35,0.01c-0.35,0.02-0.75,0.03-1.06-0.19c-1.28-0.92-2.54-1.88-3.88-2.9l-0.81-0.62l-1.16,3.94
				c0.46-0.12,0.91-0.24,1.34-0.4c0.97-0.36,1.61-0.1,2.06,0.85c2.42,5.09,6.1,9.03,10.94,11.71c10.35,5.73,23.87,3.17,31.45-5.94
				c0.05-0.05,0.08-0.12,0.12-0.18c0.12-0.19,0.27-0.43,0.54-0.54c0.3-0.13,0.62-0.18,0.92-0.23c0.11-0.02,0.22-0.03,0.33-0.05
				c0.14-0.03,0.29,0.01,0.4,0.11c0.11,0.1,0.16,0.24,0.15,0.39c-0.01,0.1-0.01,0.2,0,0.31c0.01,0.33,0.01,0.7-0.21,0.99
				c-2.41,3.08-5.33,5.53-8.68,7.26C51.69,73.38,47.27,74.41,42.94,74.41z M17.98,57.93c0.63,0,0.98,0.47,1.21,0.92
				c6.99,13.4,22.92,18.47,36.26,11.55c3.23-1.67,6.05-4.03,8.38-7.01c0.02-0.03,0.02-0.13,0.02-0.24
				c-0.19,0.03-0.36,0.07-0.51,0.13c-0.02,0.02-0.08,0.12-0.13,0.19c-0.06,0.1-0.12,0.19-0.19,0.27
				c-7.86,9.44-21.87,12.09-32.6,6.15c-5.01-2.77-8.82-6.85-11.32-12.12c-0.26-0.54-0.41-0.57-0.91-0.39
				c-0.5,0.18-1.01,0.32-1.53,0.45c-0.23,0.06-0.45,0.12-0.68,0.18c-0.16,0.04-0.34,0-0.45-0.12c-0.12-0.12-0.16-0.29-0.11-0.45
				l1.58-5.37c0.04-0.15,0.15-0.26,0.3-0.31c0.14-0.05,0.3-0.02,0.42,0.07l1.35,1.03c1.34,1.02,2.58,1.97,3.86,2.88
				c0.05,0.03,0.19,0.03,0.33,0.03c-0.03-0.12-0.06-0.25-0.1-0.29c-1.58-1.26-3.24-2.5-4.83-3.71l-0.85-0.64
				c-0.24-0.18-0.39-0.2-0.43-0.19c-0.04,0.01-0.14,0.11-0.22,0.37l-0.44,1.35c-0.63,1.93-1.25,3.86-1.85,5.8
				c-0.08,0.25-0.05,0.37-0.04,0.39c0.02,0.01,0.15,0.04,0.43-0.04c0.85-0.24,1.66-0.46,2.41-0.76
				C17.56,57.98,17.78,57.93,17.98,57.93z"/>
		</g>
		<g>
			<path class="st0" d="M47.61,64.95c-0.26,0-0.51-0.01-0.78-0.02c-2.07-0.08-3.89-0.53-5.58-1.36c-1.78-0.88-3.37-2.16-4.86-3.89
				c-1.62-1.89-2.66-3.98-3.09-6.21c-0.91-4.79,0.11-9.02,3.02-12.55c1.65-2,3.38-3.96,5.06-5.86l0.46-0.52
				c1-1.13,2.02-2.25,3.04-3.37l1.57-1.72c0.01-0.01,0.15-0.22,0.16-0.22c0.21-0.29,0.56-0.47,0.93-0.45
				c0.35,0.01,0.78,0.19,0.98,0.48c0.01,0.01,0.07,0.11,0.08,0.12l1.68,1.88c1.09,1.21,2.18,2.43,3.26,3.65
				c1.7,1.94,3.4,3.88,5.07,5.84c1.64,1.93,2.65,3.9,3.1,6.03c1.02,4.88,0.07,9.16-2.82,12.7c-1.69,2.06-3.58,3.51-5.77,4.43
				C51.46,64.6,49.65,64.95,47.61,64.95z M47.57,31.52l-1.04,1.14c-1.01,1.11-2.02,2.22-3.02,3.34l-0.46,0.52
				c-1.67,1.89-3.39,3.84-5.01,5.81c-2.51,3.05-3.35,6.56-2.56,10.73c0.36,1.87,1.2,3.57,2.59,5.19c1.29,1.5,2.65,2.6,4.16,3.35
				c1.4,0.69,2.94,1.07,4.69,1.14c2.03,0.1,3.78-0.2,5.35-0.86c1.86-0.78,3.47-2.02,4.92-3.79c2.49-3.04,3.26-6.59,2.37-10.85
				c-0.37-1.75-1.22-3.4-2.62-5.05c-1.66-1.96-3.35-3.89-5.04-5.81c-1.07-1.22-2.16-2.43-3.25-3.64L47.57,31.52z"/>
		</g>
		<g>
			<path class="st0" d="M54.48,52.33c-0.2-0.33-0.56-0.54-0.95-0.54h-2.89c1.1-2.21,3.02-6.04,3.25-6.47
				c0.07-0.1,0.12-0.22,0.14-0.34c0.08-0.35,0.02-0.7-0.18-0.98c-0.21-0.29-0.64-0.5-1-0.5L44,43.52c-0.74-0.07-1.35,0.39-1.48,1.12
				L40.5,56.38c-0.06,0.32,0.03,0.65,0.24,0.9c0.21,0.25,0.52,0.39,0.85,0.39h2.74l-1.71,7.31c-0.09,0.37,0.03,0.77,0.3,1.04
				c0.21,0.21,0.49,0.32,0.78,0.32c0.09,0,0.17-0.01,0.26-0.03c0.85-0.21,10.48-12.77,10.55-12.89
				C54.69,53.07,54.68,52.66,54.48,52.33z M45.87,60.8l0.93-3.98c0.08-0.33,0-0.67-0.21-0.94c-0.21-0.26-0.53-0.42-0.87-0.42H42.9
				l1.68-9.74l6.63-0.01c-1.29,2.52-3.37,6.8-3.39,6.85c-0.11,0.34-0.05,0.7,0.16,0.99c0.21,0.28,0.54,0.45,0.89,0.45h2.39
				C49.87,55.77,47.67,58.55,45.87,60.8z"/>
		</g>
		<g>
			<g>
				<path class="st0" d="M35.53,56.24c-0.93-0.79-1.71-0.67-2.56,0.07c-0.31,0.27-0.69,0.44-1.05,0.65
					c-1.38,0.78-1.35,0.75-2.36-0.41c-0.45-0.51-0.54-0.94-0.08-1.45c0.02-0.03,0.03-0.07,0.06-0.09c2.09-1.8,1.88-3.88,0.65-6.02
					c-0.21-0.36-0.62-0.71-1.01-0.82c-0.86-0.25-1.75-0.36-2.64-0.49c-0.75-0.11-0.89-0.64-0.81-1.22c0.08-0.62-0.39-1.49,0.73-1.71
					c0.88-0.17,1.76-0.36,2.59-0.67c0.41-0.15,0.81-0.56,1.01-0.96c0.29-0.59,0.29-1.34,0.61-1.91c0.65-1.13,0.34-1.93-0.56-2.72
					c-0.41-0.36-0.68-0.89-1.05-1.31c-0.49-0.54-0.38-0.97-0.01-1.57c0.64-1.05,1.38-1.29,2.33-0.55c1.65,1.3,3.04,1.12,4.71-0.17
					c0.97-0.75,1.62-1.27,1.34-2.54c-0.1-0.46,0-0.97-0.02-1.45c-0.04-0.92,0.33-1.37,1.29-1.56c0.9-0.18,1.5-0.04,1.68,0.87
					c0.37,1.99,1.46,2.93,3.16,3.23l0.34-1.33c-0.9-0.17-1.49-0.73-1.96-1.77c-0.06-0.14-0.13-0.27-0.19-0.41
					c-1.12-2.45-1.12-2.45-3.77-1.79c-1.71,0.43-1.83,0.58-1.85,2.36c0,0.26-0.04,0.53,0.01,0.78c0.28,1.51-0.38,2.48-1.75,2.99
					c-0.42,0.15-0.97,0.21-1.37,0.07c-0.88-0.3-1.68-0.84-2.56-1.11c-0.39-0.12-1.05,0.02-1.33,0.3c-2.45,2.4-2.45,2.85-0.29,5.51
					c0.02,0.03,0.04,0.06,0.07,0.09c0.66,0.56,0.58,1.15,0.41,1.98c-0.3,1.41-1.06,1.98-2.38,2.13c-0.4,0.04-0.78,0.28-1.18,0.35
					c-1.11,0.19-1.38,0.89-1.39,1.92c-0.03,2.96,0.06,3.19,2.98,3.68c1.16,0.2,1.79,0.57,2.19,1.75c0.32,0.94,0.31,1.58-0.35,2.3
					c-0.4,0.43-0.62,1.03-1,1.48c-0.75,0.89-0.59,1.63,0.16,2.44c2.41,2.66,1.75,2.36,4.51,0.82c1.12-0.62,1.89-0.74,2.98-0.04
					c0.07,0.04,0.12,0.09,0.18,0.13l0.45-1.3C36.1,56.6,35.79,56.46,35.53,56.24z"/>
				<path class="st0" d="M30.49,59.44c-0.54,0-0.96-0.45-1.87-1.47l-0.56-0.62c-0.57-0.63-1.21-1.62-0.16-2.87
					c0.16-0.19,0.3-0.42,0.44-0.66c0.17-0.28,0.34-0.57,0.57-0.83c0.53-0.57,0.6-1.05,0.28-1.98c-0.33-0.98-0.79-1.33-1.94-1.53
					c-3.15-0.54-3.27-0.95-3.24-4c0.01-0.91,0.2-1.99,1.66-2.23c0.16-0.03,0.32-0.09,0.5-0.15c0.22-0.08,0.45-0.17,0.7-0.2
					c1.26-0.13,1.85-0.66,2.1-1.87c0.17-0.83,0.2-1.24-0.3-1.67c-0.05-0.04-0.08-0.09-0.11-0.12c-2.29-2.82-2.26-3.43,0.31-5.95
					c0.36-0.35,1.15-0.53,1.65-0.38c0.49,0.15,0.95,0.38,1.39,0.6c0.4,0.2,0.78,0.38,1.17,0.52c0.3,0.11,0.77,0.08,1.16-0.07
					c1.28-0.47,1.78-1.33,1.54-2.63c-0.04-0.21-0.03-0.42-0.02-0.63c0-0.07,0.01-0.15,0.01-0.22c0.01-1.93,0.23-2.2,2.09-2.67
					c2.8-0.7,2.95-0.62,4.14,1.97l0.19,0.41c0.43,0.96,0.95,1.44,1.72,1.59c0.09,0.02,0.16,0.07,0.21,0.14
					c0.05,0.08,0.06,0.17,0.04,0.25l-0.34,1.33c-0.04,0.16-0.19,0.27-0.37,0.24c-1.92-0.34-3.04-1.49-3.42-3.49
					c-0.05-0.28-0.15-0.46-0.3-0.56c-0.19-0.13-0.52-0.14-1-0.05c-0.81,0.16-1.07,0.47-1.03,1.23c0.01,0.2,0,0.39-0.01,0.59
					c-0.01,0.29-0.03,0.57,0.03,0.81c0.32,1.49-0.5,2.13-1.46,2.87c-1.89,1.46-3.41,1.51-5.11,0.17c-0.36-0.28-0.68-0.39-0.94-0.35
					c-0.31,0.05-0.61,0.33-0.91,0.81c-0.35,0.58-0.36,0.82-0.03,1.19c0.16,0.18,0.31,0.38,0.45,0.59c0.18,0.26,0.36,0.51,0.57,0.69
					c0.69,0.6,1.51,1.58,0.63,3.12c-0.15,0.26-0.22,0.57-0.3,0.91c-0.07,0.33-0.15,0.67-0.31,0.98c-0.25,0.49-0.72,0.94-1.18,1.12
					c-0.84,0.32-1.73,0.51-2.65,0.69c-0.52,0.1-0.53,0.3-0.48,0.86c0.02,0.19,0.03,0.39,0.01,0.58c-0.08,0.64,0.16,0.81,0.54,0.86
					l0.35,0.05c0.77,0.11,1.57,0.23,2.33,0.45c0.45,0.13,0.95,0.53,1.2,0.97c1.5,2.62,1.27,4.72-0.71,6.42
					c0.03-0.03,0.01,0.02-0.03,0.07c-0.28,0.31-0.34,0.54,0.09,1.03l0.07,0.08c0.77,0.9,0.77,0.9,1.89,0.26l0.25-0.14
					c0.27-0.15,0.53-0.29,0.74-0.47c1.03-0.9,1.98-0.92,2.98-0.07l0,0c0.22,0.19,0.52,0.32,0.8,0.45c0.15,0.07,0.23,0.24,0.17,0.4
					l-0.45,1.3c-0.03,0.1-0.11,0.17-0.21,0.2c-0.1,0.03-0.2,0.01-0.29-0.05l-0.08-0.06c-0.03-0.02-0.05-0.04-0.08-0.06
					c-0.91-0.58-1.53-0.57-2.65,0.05c-0.4,0.22-0.72,0.42-1,0.58C31.29,59.22,30.87,59.44,30.49,59.44z M30.11,33.49
					c-0.28,0-0.64,0.1-0.79,0.25c-2.31,2.26-2.32,2.55-0.27,5.08c0.87,0.76,0.7,1.6,0.54,2.33c-0.31,1.48-1.13,2.22-2.66,2.38
					c-0.17,0.02-0.35,0.09-0.55,0.16c-0.19,0.07-0.39,0.15-0.61,0.18c-0.82,0.14-1.11,0.56-1.12,1.6c-0.02,2.84-0.02,2.9,2.71,3.36
					c1.16,0.2,1.98,0.6,2.44,1.96c0.32,0.95,0.37,1.76-0.42,2.62c-0.19,0.2-0.33,0.45-0.49,0.72c-0.15,0.25-0.3,0.52-0.5,0.75
					c-0.59,0.7-0.55,1.25,0.15,2.02l0.56,0.63c1.3,1.46,1.3,1.46,2.53,0.72c0.28-0.17,0.61-0.37,1.02-0.59
					c1.09-0.61,1.97-0.82,3.15-0.13l0.22-0.63c-0.24-0.11-0.48-0.24-0.69-0.43l0,0c-0.75-0.64-1.35-0.62-2.14,0.07
					c-0.26,0.23-0.57,0.39-0.86,0.55l-0.24,0.13c-1.47,0.83-1.65,0.81-2.7-0.4l-0.07-0.08c-0.37-0.43-0.78-1.09-0.08-1.88
					c-0.01,0,0.02-0.06,0.08-0.12c1.74-1.5,1.92-3.28,0.58-5.62c-0.17-0.3-0.52-0.59-0.82-0.67c-0.72-0.21-1.5-0.32-2.25-0.43
					l-0.35-0.05c-0.47-0.07-1.25-0.37-1.08-1.58c0.02-0.12,0-0.28-0.01-0.44c-0.04-0.5-0.12-1.33,1-1.55
					c0.89-0.17,1.75-0.36,2.54-0.66c0.31-0.12,0.66-0.46,0.83-0.8c0.12-0.25,0.19-0.53,0.26-0.84c0.08-0.37,0.17-0.75,0.37-1.08
					c0.52-0.9,0.38-1.56-0.5-2.32c-0.27-0.24-0.48-0.53-0.67-0.81c-0.13-0.18-0.26-0.36-0.4-0.53c-0.68-0.76-0.38-1.41-0.05-1.96
					c0.4-0.66,0.84-1.02,1.34-1.11c0.46-0.08,0.95,0.08,1.46,0.48c1.45,1.15,2.66,1.1,4.31-0.17c0.99-0.76,1.45-1.17,1.23-2.22
					c-0.07-0.33-0.05-0.66-0.04-0.98c0.01-0.18,0.02-0.35,0.01-0.53c-0.05-1.08,0.43-1.67,1.55-1.89c0.42-0.08,1.03-0.16,1.49,0.15
					c0.29,0.2,0.48,0.53,0.57,0.98c0.31,1.65,1.12,2.56,2.6,2.91l0.18-0.71c-0.81-0.25-1.39-0.85-1.86-1.87l-0.19-0.41
					c-1.01-2.21-1.01-2.21-3.4-1.61c-1.58,0.39-1.59,0.41-1.6,2.05c0,0.08,0,0.16-0.01,0.24c-0.01,0.17-0.02,0.34,0.01,0.48
					c0.3,1.61-0.38,2.77-1.95,3.35c-0.42,0.16-1.06,0.26-1.59,0.07c-0.43-0.15-0.85-0.35-1.25-0.55c-0.44-0.22-0.86-0.42-1.3-0.56
					C30.27,33.5,30.19,33.49,30.11,33.49z"/>
			</g>
		</g>
		<path class="st0" d="M35.07,36.99"/>
	</g>
	<g>
		<path class="st1" d="M30.54,66.16c2.43,0,4.41,1.97,4.41,4.41c0,2.43-1.97,4.4-4.41,4.4c-2.43,0-4.4-1.97-4.4-4.4
			C26.14,68.13,28.11,66.16,30.54,66.16L30.54,66.16z M30.54,66.16"/>
		<path class="st2" d="M30.54,68.47c1.15,0,2.09,0.93,2.09,2.09c0,1.15-0.93,2.09-2.09,2.09c-1.15,0-2.09-0.93-2.09-2.09
			C28.45,69.41,29.39,68.47,30.54,68.47L30.54,68.47z M30.54,68.47"/>
	</g>
</g>
</svg>
